<?xml version="1.0" encoding="utf-8"?>
<!-- Generator: Adobe Illustrator 23.0.4, SVG Export Plug-In . SVG Version: 6.00 Build 0)  -->
<svg version="1.1" id="Capa_1" xmlns="http://www.w3.org/2000/svg" xmlns:xlink="http://www.w3.org/1999/xlink" x="0px" y="0px"
	 viewBox="0 0 226.77 57.31" style="enable-background:new 0 0 226.77 57.31;" xml:space="preserve">
<style type="text/css">
	.st0{fill-rule:evenodd;clip-rule:evenodd;fill:#FBBC10;}
	.st1{fill-rule:evenodd;clip-rule:evenodd;fill:#AA1A18;}
	.st2{fill-rule:evenodd;clip-rule:evenodd;fill:#13110C;}
	.st3{fill-rule:evenodd;clip-rule:evenodd;fill:#FFFFFF;}
	.st4{fill-rule:evenodd;clip-rule:evenodd;fill:#FBDAB2;}
	.st5{fill-rule:evenodd;clip-rule:evenodd;fill:#F7D9A7;}
	.st6{fill-rule:evenodd;clip-rule:evenodd;fill:#F8D59F;}
	.st7{fill-rule:evenodd;clip-rule:evenodd;fill:#F8CE96;}
	.st8{fill-rule:evenodd;clip-rule:evenodd;fill:#F6CC8A;}
	.st9{fill-rule:evenodd;clip-rule:evenodd;fill:#F6C781;}
	.st10{fill-rule:evenodd;clip-rule:evenodd;fill:#F4C277;}
	.st11{fill-rule:evenodd;clip-rule:evenodd;fill:#F4BE6C;}
	.st12{fill-rule:evenodd;clip-rule:evenodd;fill:#F1B965;}
	.st13{fill-rule:evenodd;clip-rule:evenodd;fill:#F3B55B;}
	.st14{fill-rule:evenodd;clip-rule:evenodd;fill:#FCECD6;}
	.st15{fill-rule:evenodd;clip-rule:evenodd;fill:#FBE7CF;}
	.st16{fill-rule:evenodd;clip-rule:evenodd;fill:#F9E5C5;}
	.st17{fill-rule:evenodd;clip-rule:evenodd;fill:#FADFBB;}
	.st18{fill-rule:evenodd;clip-rule:evenodd;fill:#F2AF51;}
	.st19{fill-rule:evenodd;clip-rule:evenodd;fill:#F2AC45;}
	.st20{fill-rule:evenodd;clip-rule:evenodd;fill:#F1A83B;}
	.st21{fill-rule:evenodd;clip-rule:evenodd;fill:#F0A52E;}
	.st22{fill-rule:evenodd;clip-rule:evenodd;fill:#F19F28;}
	.st23{fill-rule:evenodd;clip-rule:evenodd;fill:#EE9B1D;}
	.st24{fill-rule:evenodd;clip-rule:evenodd;fill:#ED9611;}
	.st25{fill-rule:evenodd;clip-rule:evenodd;fill:#E89D0E;}
	.st26{fill-rule:evenodd;clip-rule:evenodd;fill:#EC9106;}
	.st27{fill-rule:evenodd;clip-rule:evenodd;fill:#EBA620;}
	.st28{fill-rule:evenodd;clip-rule:evenodd;fill:#EBA928;}
	.st29{fill-rule:evenodd;clip-rule:evenodd;fill:#EDAC32;}
	.st30{fill-rule:evenodd;clip-rule:evenodd;fill:#ECB33A;}
	.st31{fill-rule:evenodd;clip-rule:evenodd;fill:#ECB544;}
	.st32{fill-rule:evenodd;clip-rule:evenodd;fill:#EFB950;}
	.st33{fill-rule:evenodd;clip-rule:evenodd;fill:#EFBD5A;}
	.st34{fill-rule:evenodd;clip-rule:evenodd;fill:#F0C064;}
	.st35{fill-rule:evenodd;clip-rule:evenodd;fill:#F1C36C;}
	.st36{fill-rule:evenodd;clip-rule:evenodd;fill:#F1C776;}
	.st37{fill-rule:evenodd;clip-rule:evenodd;fill:#F5CC81;}
	.st38{fill-rule:evenodd;clip-rule:evenodd;fill:#F5D18B;}
	.st39{fill-rule:evenodd;clip-rule:evenodd;fill:#F6D694;}
	.st40{fill-rule:evenodd;clip-rule:evenodd;fill:#F6D99E;}
	.st41{fill-rule:evenodd;clip-rule:evenodd;fill:#F7DEA5;}
	.st42{fill-rule:evenodd;clip-rule:evenodd;fill:#F7E0B1;}
	.st43{fill-rule:evenodd;clip-rule:evenodd;fill:#FAE1BB;}
	.st44{fill-rule:evenodd;clip-rule:evenodd;fill:#F9E7C4;}
	.st45{fill-rule:evenodd;clip-rule:evenodd;fill:#F9ECCF;}
	.st46{fill-rule:evenodd;clip-rule:evenodd;fill:#FCEFDB;}
	.st47{fill-rule:evenodd;clip-rule:evenodd;fill:#FCF6E4;}
	.st48{fill-rule:evenodd;clip-rule:evenodd;fill:#FFF8EF;}
	.st49{fill-rule:evenodd;clip-rule:evenodd;fill:#FCF1E0;}
	.st50{fill-rule:evenodd;clip-rule:evenodd;fill:#FFFCF7;}
	.st51{fill-rule:evenodd;clip-rule:evenodd;fill:#FCF5EC;}
	.st52{fill-rule:evenodd;clip-rule:evenodd;fill:#FFFAF5;}
</style>
<rect x="0.28" y="44.09" class="st0" width="226.43" height="7.26"/>
<rect x="0.24" y="0.38" class="st1" width="226.48" height="45"/>
<path class="st2" d="M16.81,9.83h7c0.13,0.7,0.5,1.52,0.94,2.59c0.07,0.12,0.12,0.25,0.12,0.32l3.22,6.79l3.96-6.79
	c0.33-0.5,0.58-1.01,0.77-1.52c0.19-0.45,0.44-0.89,0.63-1.39h6.75l-9.52,14.81l-0.2,8.76v0.89v1.51c0,0.37,0,0.69,0.07,1.06h-6.11
	c0.06-1.19,0.12-2.14,0.18-2.94c0.07-0.84,0.07-1.41,0.07-1.64L25,24.71L16.81,9.83z"/>
<path class="st2" d="M48.7,36.87c0.12-0.51,0.19-1,0.24-1.63c0.07-0.58,0.14-1.52,0.19-2.72l0.39-5.87
	c-0.33,0.25-0.64,0.46-0.96,0.58c-0.38,0.19-0.69,0.33-1,0.43l-2.71,0.9c-1.25,0.38-2.01,0.76-2.4,1.13
	c-0.37,0.31-0.5,0.83-0.5,1.38c0,0.69,0.19,1.22,0.69,1.58c0.44,0.37,1.08,0.56,1.89,0.56c0.32-0.01,0.77-0.06,1.27-0.13
	c0.43-0.11,1.12-0.24,1.89-0.5l-1.2,4.28c-0.65,0.12-1.26,0.25-1.88,0.38c-0.58,0.07-1.15,0.12-1.65,0.12
	c-2.08,0-3.65-0.5-4.85-1.57c-1.2-1.09-1.76-2.59-1.76-4.41c0-1.58,0.44-2.91,1.26-3.84c0.87-1.01,2.21-1.78,3.97-2.28l4.27-1.26
	c1.46-0.42,2.47-0.81,2.98-1.19c0.44-0.31,0.7-0.75,0.7-1.28c0-0.68-0.26-1.18-0.82-1.56c-0.51-0.39-1.26-0.56-2.21-0.56
	c-1.01,0-2.07,0.17-3.27,0.48c-1.21,0.4-2.6,0.9-4.11,1.58l0.7-4.97c1.45-0.38,2.77-0.62,4.02-0.82c1.26-0.12,2.52-0.25,3.72-0.25
	c2.7,0,4.66,0.45,5.87,1.38c1.12,0.89,1.7,2.33,1.7,4.41v1.08v0.75L54.68,33.4v0.89v2.58H48.7z"/>
<path class="st2" d="M58.66,36.87c0.31-3.28,0.57-6.62,0.75-10.07c0.19-3.4,0.26-7,0.26-10.72h5.29v2.51
	c0.94-1.07,1.89-1.89,3.02-2.32c1.14-0.51,2.47-0.76,4.09-0.76c2.78,0,4.8,0.57,6,1.64c1.26,1.07,1.88,2.84,1.88,5.36
	c0,0.41-0.06,2.09-0.12,4.79c-0.12,2.76-0.19,5.28-0.19,7.48v2.08H73.9c0.19-2.45,0.38-4.71,0.5-6.87c0.13-2.15,0.13-3.84,0.13-5.17
	c0-1.82-0.25-3.16-0.82-3.9c-0.57-0.69-1.58-1.08-2.96-1.08c-2.33,0-3.97,1.02-4.92,3.03c-0.93,2.01-1.38,5.6-1.38,10.91v1.89v1.19
	H58.66z"/>
<path class="st2" d="M95.27,36.87c0.05-0.51,0.11-1,0.24-1.63c0.07-0.58,0.15-1.52,0.2-2.72l0.37-5.87
	c-0.32,0.25-0.69,0.46-1.02,0.58c-0.29,0.19-0.62,0.33-0.99,0.43l-2.72,0.9c-1.18,0.38-2.01,0.76-2.32,1.13
	c-0.37,0.31-0.57,0.83-0.57,1.38c0,0.69,0.25,1.22,0.69,1.58c0.44,0.37,1.13,0.56,1.96,0.56c0.3-0.01,0.68-0.06,1.18-0.13
	c0.52-0.11,1.15-0.24,1.97-0.5l-1.21,4.28c-0.62,0.12-1.25,0.25-1.87,0.38c-0.59,0.07-1.15,0.12-1.71,0.12
	c-2.01,0-3.65-0.5-4.79-1.57c-1.2-1.09-1.83-2.59-1.83-4.41c0-1.58,0.44-2.91,1.34-3.84c0.82-1.01,2.15-1.78,3.96-2.28l4.23-1.26
	c1.51-0.42,2.45-0.81,2.96-1.19c0.51-0.31,0.75-0.75,0.75-1.28c0-0.68-0.32-1.18-0.8-1.56c-0.58-0.39-1.34-0.56-2.28-0.56
	c-1,0-2.08,0.17-3.27,0.48c-1.2,0.4-2.53,0.9-4.04,1.58l0.64-4.97c1.44-0.38,2.83-0.62,4.09-0.82c1.25-0.12,2.45-0.25,3.71-0.25
	c2.71,0,4.65,0.45,5.79,1.38c1.19,0.89,1.77,2.33,1.77,4.41v1.08c0,0.24-0.06,0.51-0.06,0.75l-0.38,10.33
	c0,0.18-0.07,0.53-0.07,0.89v2.58H95.27z"/>
<path class="st2" d="M121.6,21.17c-1.13-0.37-2.08-0.62-2.84-0.74c-0.74-0.12-1.45-0.2-2.01-0.2c-2.01,0-3.53,0.57-4.6,1.72
	c-1.07,1.12-1.58,2.76-1.58,4.96c0,1.83,0.51,3.28,1.44,4.23c0.95,1.03,2.4,1.45,4.29,1.45c0.63,0,1.33-0.07,2.15-0.19
	c0.81-0.2,1.81-0.45,3.08-0.82l-0.82,4.99c-1.06,0.23-2.13,0.49-3.03,0.63c-0.88,0.18-1.76,0.24-2.57,0.24
	c-3.15,0-5.68-0.94-7.38-2.72c-1.77-1.83-2.65-4.41-2.65-7.73c0.01-3.58,0.95-6.38,2.91-8.39c1.88-2.01,4.61-3.02,7.94-3.02
	c0.88,0,1.76,0.06,2.72,0.19c0.94,0.14,1.95,0.32,2.96,0.57V21.17z"/>
<path class="st2" d="M134.96,20.04h-0.26v-4.53h0.38c3.34,0,5.91,0.88,7.75,2.71c1.83,1.82,2.71,4.42,2.71,7.69
	c0,3.66-0.95,6.43-2.96,8.51c-1.9,1.9-4.54,2.9-7.88,3.02v-4.55c1.7,0,2.96-0.55,3.78-1.68c0.88-1.14,1.33-2.84,1.33-5.11
	c0-2.01-0.39-3.54-1.2-4.55C137.79,20.55,136.59,20.04,134.96,20.04 M134.7,20.04c-1.63,0.07-2.89,0.64-3.78,1.71
	c-0.88,1.12-1.31,2.89-1.31,5.16c0,1.96,0.37,3.47,1.18,4.48c0.82,1.01,2.09,1.5,3.73,1.5h0.19v4.55h-0.43
	c-3.35,0-5.85-0.94-7.68-2.77c-1.76-1.82-2.71-4.41-2.71-7.75c0-3.51,1.01-6.3,3.01-8.32c1.89-1.93,4.55-3.02,7.82-3.08V20.04z"/>
<path class="st2" d="M164.89,21.17c-1.12-0.37-2.08-0.62-2.83-0.74c-0.76-0.12-1.45-0.2-2.03-0.2c-2.01,0-3.52,0.57-4.59,1.72
	c-1.07,1.12-1.58,2.76-1.58,4.96c0,1.83,0.51,3.28,1.46,4.23c0.94,1.03,2.38,1.45,4.28,1.45c0.64,0,1.33-0.07,2.15-0.19
	c0.82-0.2,1.81-0.45,3.02-0.82L164,36.57c-1.13,0.23-2.14,0.49-3.02,0.63c-0.96,0.18-1.77,0.24-2.59,0.24
	c-3.14,0-5.68-0.94-7.43-2.72c-1.69-1.83-2.58-4.41-2.58-7.73c0.01-3.58,0.94-6.38,2.91-8.39c1.87-2.01,4.58-3.02,7.93-3.02
	c0.88,0,1.77,0.06,2.71,0.19c0.94,0.14,1.95,0.32,2.96,0.57V21.17z"/>
<path class="st2" d="M167.27,36.87c0.37-3.79,0.7-7.87,0.88-12.35c0.2-4.48,0.34-9.39,0.34-14.69h5.6c-0.2,1.46-0.31,2.91-0.38,4.34
	c-0.13,1.45-0.13,2.98-0.13,4.56c0.76-1.08,1.7-1.9,2.84-2.4c1.21-0.57,2.58-0.82,4.23-0.82c2.83,0,4.86,0.57,6.05,1.64
	c1.25,1.07,1.89,2.84,1.89,5.36c0,0.41-0.07,2.09-0.12,4.79c-0.12,2.76-0.19,5.28-0.19,7.48v2.08h-5.73
	c0.18-2.45,0.37-4.79,0.5-6.87c0.05-2.15,0.12-3.84,0.12-5.11c0-1.88-0.24-3.22-0.87-3.89c-0.56-0.76-1.58-1.14-2.96-1.14
	c-2.35,0-3.98,1.02-4.92,3.03c-0.88,2.01-1.39,5.86-1.39,11.54v2.45H167.27z"/>
<path class="st2" d="M203.89,36.87c0.06-0.51,0.1-1,0.17-1.63c0.07-0.58,0.2-1.52,0.26-2.72l0.37-5.87
	c-0.31,0.25-0.7,0.46-1.01,0.58c-0.31,0.19-0.68,0.33-0.99,0.43l-2.71,0.9c-1.2,0.38-2.02,0.76-2.33,1.13
	c-0.38,0.31-0.58,0.83-0.58,1.38c0,0.69,0.25,1.22,0.7,1.58c0.43,0.37,1.06,0.56,1.89,0.56c0.37-0.01,0.76-0.06,1.25-0.13
	c0.52-0.11,1.13-0.24,1.96-0.5l-1.26,4.28c-0.63,0.12-1.19,0.25-1.83,0.38c-0.63,0.07-1.21,0.12-1.7,0.12
	c-2.02,0-3.66-0.5-4.86-1.57c-1.12-1.09-1.76-2.59-1.76-4.41c0-1.58,0.44-2.91,1.32-3.84c0.82-1.01,2.16-1.78,3.97-2.28l4.22-1.26
	c1.52-0.42,2.46-0.81,2.97-1.19c0.5-0.31,0.74-0.75,0.74-1.28c0-0.68-0.31-1.18-0.8-1.56c-0.57-0.39-1.33-0.56-2.28-0.56
	c-1,0-2.08,0.17-3.26,0.48c-1.22,0.4-2.54,0.9-4.04,1.58l0.64-4.97c1.43-0.38,2.83-0.62,4.08-0.82c1.26-0.12,2.46-0.25,3.72-0.25
	c2.71,0,4.66,0.45,5.78,1.38c1.22,0.89,1.78,2.33,1.78,4.41v1.08c-0.07,0.24-0.07,0.51-0.07,0.75l-0.37,10.33
	c0,0.18-0.05,0.53-0.05,0.89v2.58H203.89z"/>
<path class="st3" d="M15.54,8.71h6.95c0.18,0.7,0.5,1.58,1,2.64c0.06,0.12,0.12,0.18,0.12,0.22l3.21,6.82l3.98-6.82
	c0.31-0.48,0.57-0.99,0.76-1.41c0.18-0.45,0.37-0.95,0.55-1.45h6.81l-9.52,14.79l-0.19,8.79v0.92v1.51v1.01h-6.04
	c0.06-1.13,0.12-2.15,0.18-2.96c0-0.82,0.06-1.32,0.06-1.56l0.25-7.62L15.54,8.71z"/>
<path class="st3" d="M47.44,35.74c0.06-0.45,0.19-1.02,0.26-1.57c0.05-0.63,0.12-1.51,0.18-2.77l0.38-5.8
	c-0.31,0.19-0.63,0.37-1.02,0.57c-0.31,0.12-0.63,0.26-1,0.39l-2.71,0.87c-1.19,0.43-1.95,0.76-2.33,1.15
	c-0.39,0.38-0.57,0.81-0.57,1.44c0,0.63,0.25,1.13,0.7,1.51c0.51,0.39,1.12,0.56,1.95,0.56c0.32,0,0.76,0,1.19-0.12
	c0.52-0.06,1.13-0.25,1.96-0.45l-1.2,4.23c-0.62,0.19-1.26,0.32-1.89,0.39c-0.57,0.1-1.13,0.1-1.65,0.1c-2.07,0-3.64-0.5-4.85-1.57
	c-1.19-1.08-1.76-2.51-1.76-4.41c0-1.58,0.39-2.84,1.26-3.84c0.87-1.01,2.21-1.77,3.96-2.27l4.21-1.27c1.52-0.43,2.46-0.8,2.96-1.12
	c0.52-0.4,0.76-0.83,0.76-1.33c0-0.7-0.24-1.21-0.82-1.59c-0.51-0.3-1.26-0.5-2.27-0.5c-0.94,0-2.08,0.12-3.27,0.5
	c-1.2,0.32-2.52,0.83-4.03,1.59l0.7-5.05c1.44-0.32,2.77-0.64,4.03-0.76c1.26-0.18,2.52-0.26,3.72-0.26c2.71,0,4.65,0.45,5.79,1.33
	c1.2,0.89,1.77,2.4,1.77,4.47v1.01c0,0.26,0,0.58-0.07,0.84l-0.37,10.28v0.93c-0.07,0.37-0.07,1.26-0.07,2.52H47.44z"/>
<path class="st3" d="M57.39,35.74c0.33-3.22,0.56-6.55,0.76-10.02c0.18-3.48,0.25-7.06,0.25-10.7h5.29v2.5
	c0.87-1.13,1.89-1.88,3.03-2.39c1.06-0.51,2.45-0.77,4.03-0.77c2.84,0,4.79,0.59,6.04,1.66c1.27,1.07,1.9,2.88,1.9,5.33
	c0,0.52-0.07,2.09-0.2,4.89c-0.06,2.7-0.12,5.22-0.12,7.47v2.02h-5.74c0.21-2.45,0.38-4.73,0.45-6.87c0.14-2.07,0.19-3.86,0.19-5.1
	c0-1.9-0.26-3.22-0.89-3.92c-0.57-0.75-1.51-1.12-2.88-1.12c-2.35,0-3.98,0.99-4.93,3.02c-0.94,2.01-1.44,5.65-1.44,10.9v1.88
	c0.06,0.43,0.06,0.82,0.06,1.2H57.39z"/>
<path class="st3" d="M94,35.74c0.07-0.45,0.12-1.02,0.2-1.57c0.06-0.63,0.11-1.51,0.18-2.77l0.39-5.8
	c-0.32,0.19-0.64,0.37-0.95,0.57c-0.32,0.12-0.69,0.26-1.01,0.39l-2.72,0.87c-1.2,0.43-2,0.76-2.33,1.15
	c-0.37,0.38-0.56,0.81-0.56,1.44c0,0.63,0.26,1.13,0.7,1.51c0.44,0.39,1.07,0.56,1.88,0.56c0.4,0,0.76,0,1.28-0.12
	c0.49-0.06,1.13-0.25,1.94-0.45l-1.26,4.23c-0.61,0.19-1.25,0.32-1.82,0.39c-0.62,0.1-1.19,0.1-1.7,0.1c-2.01,0-3.66-0.5-4.85-1.57
	c-1.13-1.08-1.77-2.51-1.77-4.41c0-1.58,0.45-2.84,1.32-3.84c0.83-1.01,2.16-1.77,3.98-2.27l4.24-1.27c1.43-0.43,2.44-0.8,2.96-1.12
	c0.5-0.4,0.69-0.83,0.69-1.33c0-0.7-0.26-1.21-0.76-1.59c-0.56-0.3-1.33-0.5-2.28-0.5c-1,0-2.07,0.12-3.26,0.5
	c-1.2,0.32-2.53,0.83-4.04,1.59l0.65-5.05c1.44-0.32,2.83-0.64,4.08-0.76c1.19-0.18,2.45-0.26,3.71-0.26c2.72,0,4.66,0.45,5.81,1.33
	c1.12,0.89,1.76,2.4,1.76,4.47c0,0.39,0,0.77-0.07,1.01v0.84l-0.37,10.28c-0.07,0.19-0.07,0.49-0.07,0.93v2.52H94z"/>
<path class="st3" d="M120.32,20.04c-1.12-0.32-2.06-0.57-2.82-0.69c-0.76-0.19-1.46-0.25-2.09-0.25c-1.95,0-3.46,0.58-4.53,1.7
	c-1.07,1.21-1.57,2.83-1.57,4.98c0,1.89,0.44,3.28,1.44,4.29c0.94,0.94,2.4,1.45,4.29,1.45c0.63,0,1.31-0.12,2.14-0.24
	c0.83-0.2,1.82-0.45,3.03-0.76l-0.75,4.91c-1.14,0.31-2.16,0.5-3.04,0.7c-0.95,0.1-1.76,0.19-2.59,0.19c-3.2,0-5.66-0.89-7.42-2.73
	c-1.77-1.81-2.59-4.4-2.59-7.74c0-3.53,0.96-6.37,2.84-8.37c1.96-2.02,4.59-3.02,8-3.02c0.88,0,1.76,0.04,2.72,0.18
	c0.94,0.12,1.94,0.32,2.94,0.58V20.04z"/>
<path class="st3" d="M133.69,18.9h-0.24v-4.54h0.37c3.34,0,5.92,0.96,7.77,2.79c1.82,1.75,2.7,4.34,2.7,7.62
	c0,3.64-1.01,6.49-2.95,8.51c-1.97,1.95-4.55,2.95-7.88,3.02v-4.48c1.64-0.06,2.89-0.62,3.77-1.7c0.91-1.12,1.34-2.89,1.34-5.16
	c0-2.03-0.43-3.53-1.21-4.54C136.53,19.42,135.33,18.9,133.69,18.9 M133.45,18.9c-1.7,0.07-2.96,0.63-3.78,1.71
	c-0.96,1.2-1.4,2.89-1.4,5.17c0.01,2.01,0.44,3.54,1.26,4.52c0.84,1.02,2.08,1.52,3.73,1.52h0.19v4.48H133
	c-3.33,0-5.86-0.89-7.69-2.72c-1.81-1.82-2.69-4.41-2.69-7.74c0-3.6,1.01-6.37,3.01-8.37c1.9-1.96,4.48-2.98,7.82-3.11V18.9z"/>
<path class="st3" d="M163.55,20.04c-1.07-0.32-2-0.57-2.75-0.69c-0.77-0.19-1.47-0.25-2.1-0.25c-1.94,0-3.45,0.58-4.54,1.7
	c-1.06,1.21-1.57,2.83-1.57,4.98c0,1.89,0.45,3.28,1.45,4.29c0.95,0.94,2.39,1.45,4.23,1.45c0.69,0,1.38-0.12,2.21-0.24
	c0.82-0.2,1.83-0.45,3.02-0.76l-0.76,4.91c-1.13,0.31-2.14,0.5-3.03,0.7c-0.94,0.1-1.77,0.19-2.57,0.19c-3.23,0-5.68-0.89-7.46-2.73
	c-1.76-1.81-2.64-4.4-2.64-7.74c0-3.53,1.01-6.37,2.9-8.37c1.96-2.02,4.61-3.02,8-3.02c0.89,0,1.77,0.04,2.71,0.18
	c0.96,0.12,1.96,0.32,2.89,0.58V20.04z"/>
<path class="st3" d="M166.01,35.74c0.37-3.78,0.7-7.89,0.88-12.33c0.2-4.5,0.24-9.34,0.24-14.69h5.69
	c-0.19,1.45-0.33,2.86-0.45,4.34c-0.06,1.51-0.11,2.97-0.11,4.53c0.73-1.06,1.74-1.89,2.89-2.38c1.14-0.51,2.57-0.84,4.22-0.84
	c2.77,0,4.77,0.59,6.04,1.66c1.27,1.07,1.9,2.88,1.9,5.33c0,0.52-0.06,2.09-0.2,4.89c-0.07,2.7-0.12,5.22-0.12,7.47v2.02h-5.74
	c0.2-2.45,0.38-4.73,0.45-6.87c0.11-2.07,0.18-3.79,0.18-5.1c0-1.82-0.32-3.16-0.87-3.92c-0.58-0.75-1.58-1.12-2.97-1.12
	c-2.33,0-3.96,0.99-4.92,3.02c-0.94,2.01-1.37,5.85-1.37,11.52v2.45H166.01z"/>
<path class="st3" d="M202.57,35.74c0.13-0.45,0.19-1.02,0.26-1.57c0.06-0.63,0.13-1.51,0.18-2.77l0.37-5.8
	c-0.32,0.19-0.63,0.37-0.94,0.57c-0.32,0.12-0.69,0.26-1,0.39l-2.71,0.87c-1.26,0.43-2.02,0.76-2.4,1.15
	c-0.32,0.38-0.51,0.81-0.51,1.44c0,0.63,0.25,1.13,0.7,1.51c0.43,0.39,1.07,0.56,1.88,0.56c0.38,0,0.76,0,1.26-0.12
	c0.43-0.06,1.14-0.25,1.95-0.45l-1.25,4.23c-0.64,0.19-1.26,0.32-1.84,0.39c-0.62,0.1-1.2,0.1-1.7,0.1c-2.01,0-3.66-0.5-4.84-1.57
	c-1.2-1.08-1.78-2.51-1.78-4.41c0-1.58,0.45-2.84,1.26-3.84c0.87-1.01,2.21-1.77,3.97-2.27l4.29-1.27c1.46-0.43,2.45-0.8,2.97-1.12
	c0.43-0.4,0.68-0.83,0.68-1.33c0-0.7-0.25-1.21-0.75-1.59c-0.58-0.3-1.32-0.5-2.26-0.5c-1.02,0-2.09,0.12-3.29,0.5
	c-1.19,0.32-2.59,0.83-4.03,1.59l0.64-5.05c1.44-0.32,2.75-0.64,4.03-0.76c1.26-0.18,2.5-0.26,3.77-0.26c2.71,0,4.61,0.45,5.8,1.33
	c1.13,0.89,1.7,2.4,1.7,4.47v1.01v0.84l-0.37,10.28c-0.08,0.19-0.08,0.49-0.08,0.93v2.52H202.57z"/>
<polygon class="st4" points="39.5,9.03 39.67,9.06 39.69,9.03 "/>
<path class="st5" d="M17.47,11.16l6.97,0.85l-0.07-0.15c0,0-0.06-0.12-0.12-0.28c-0.51-1.04-0.82-1.94-1.01-2.55H16.3L17.47,11.16z
	 M39.67,9.06L39.5,9.03h-6.62c-0.2,0.49-0.38,0.95-0.57,1.39c-0.27,0.44-0.51,0.94-0.75,1.5l-0.52,0.9l5.74,0.7L39.67,9.06z"/>
<path class="st6" d="M24.44,12.01l-6.97-0.85l3.47,6.36l6.25,0.36L24.44,12.01z M36.79,13.52l-5.74-0.71l-2.98,5.11l5.67,0.33
	L36.79,13.52z"/>
<polygon class="st7" points="33.73,18.26 28.07,17.93 27.6,18.73 27.2,17.87 20.94,17.52 24.18,23.45 30.41,23.4 "/>
<polygon class="st8" points="30.41,23.4 24.18,23.45 24.44,23.91 24.26,29.12 30.04,28.71 30.17,23.77 "/>
<path class="st9" d="M30.04,28.71l-5.77,0.41l-0.08,2.33c0,0.25-0.06,0.84-0.12,1.63c0,0.55-0.03,1.15-0.09,1.83l5.96-0.81
	c-0.01-0.19-0.01-0.39-0.01-0.62v-0.9L30.04,28.71z"/>
<path class="st10" d="M29.94,34.1l-5.96,0.81c-0.03,0.36-0.06,0.73-0.1,1.14h6.11v-1.08C29.98,34.77,29.95,34.48,29.94,34.1"/>
<path class="st5" d="M46.07,14.65l5.73,0.69c-1.15-0.48-2.73-0.73-4.74-0.73C46.73,14.62,46.39,14.63,46.07,14.65"/>
<path class="st6" d="M51.8,15.35l-5.73-0.7c-0.91,0.04-1.8,0.13-2.73,0.21c-1.26,0.21-2.65,0.47-4.1,0.84l-0.37,2.85l4.9,0.28
	c0.76-0.15,1.47-0.24,2.15-0.24c0.86,0,1.58,0.16,2.13,0.49l6.52,0.38c-0.16-1.57-0.72-2.72-1.71-3.5
	C52.57,15.72,52.21,15.52,51.8,15.35"/>
<path class="st7" d="M43.78,18.83l-4.9-0.28l-0.26,2.13c1.52-0.69,2.84-1.21,4.03-1.58C43.03,19,43.41,18.91,43.78,18.83
	 M54.58,19.46l-6.52-0.38c0.05,0.02,0.09,0.06,0.14,0.08c0.51,0.37,0.83,0.88,0.83,1.58c0,0.5-0.25,0.93-0.76,1.27
	c-0.51,0.37-1.44,0.75-2.96,1.19l-0.34,0.1l9.56-0.06l0.03-0.99c0-0.23,0.08-0.49,0.08-0.75v-1.07
	C54.63,20.09,54.6,19.76,54.58,19.46"/>
<path class="st8" d="M54.51,23.24l-9.56,0.06l-3.89,1.16c-1.82,0.5-3.14,1.25-3.96,2.26c-0.41,0.44-0.73,0.97-0.95,1.55l8.26-0.58
	L47,26.84c0.38-0.12,0.7-0.24,1.02-0.42c0.31-0.14,0.69-0.32,1-0.57l-0.1,1.54l5.47-0.39L54.51,23.24z"/>
<path class="st9" d="M44.42,27.7l-8.26,0.58c-0.25,0.68-0.38,1.46-0.38,2.3c0,1,0.19,1.89,0.56,2.66l6.8-0.92
	c-0.43-0.09-0.79-0.26-1.07-0.49c-0.44-0.36-0.69-0.87-0.69-1.57c0-0.56,0.2-1.07,0.57-1.38c0.31-0.39,1.13-0.76,2.33-1.13
	L44.42,27.7z M54.38,26.99l-5.47,0.39l-0.27,4.19l5.61-0.76L54.38,26.99z"/>
<path class="st10" d="M43.15,32.31l-6.8,0.92c0.3,0.63,0.72,1.19,1.26,1.68c1.13,1.14,2.77,1.66,4.77,1.66
	c0.58,0,1.14-0.08,1.71-0.15c0.62-0.11,1.26-0.26,1.88-0.37l1.2-4.29c-0.82,0.25-1.44,0.4-1.95,0.53c-0.51,0.04-0.9,0.11-1.2,0.11
	C43.72,32.41,43.42,32.37,43.15,32.31 M54.24,30.81l-5.61,0.76l-0.01,0.14c-0.06,1.18-0.13,2.13-0.19,2.71
	c-0.1,0.57-0.17,1.04-0.23,1.49l5.91-1.19v-1.23c0-0.4,0.06-0.71,0.06-0.9L54.24,30.81z"/>
<polygon class="st11" points="54.12,34.72 48.21,35.9 48.19,36.06 54.12,36.06 "/>
<path class="st4" d="M70.08,14.77l7.21,1.35c-1.28-0.94-3.2-1.43-5.79-1.43C71.01,14.69,70.53,14.71,70.08,14.77"/>
<path class="st5" d="M59.15,16.25l5.3,0.65v-1.63h-5.29C59.16,15.59,59.16,15.92,59.15,16.25 M77.29,16.12l-7.21-1.36
	c-0.99,0.11-1.87,0.34-2.6,0.69c-0.85,0.33-1.61,0.85-2.31,1.53l13.87,1.69c-0.31-0.99-0.8-1.78-1.48-2.34
	C77.48,16.26,77.38,16.19,77.29,16.12"/>
<path class="st6" d="M79.04,18.68l-13.87-1.69c-0.24,0.25-0.49,0.51-0.72,0.79v-0.88l-5.3-0.64c-0.01,1.17-0.02,2.33-0.05,3.47
	l7.65,0.44c0.9-0.75,2.05-1.11,3.43-1.11c1.37,0,2.4,0.38,2.95,1.07c0.09,0.12,0.19,0.27,0.26,0.42l6.01,0.35
	C79.37,20.06,79.24,19.32,79.04,18.68"/>
<path class="st7" d="M66.76,20.16l-7.65-0.44c-0.03,1.17-0.07,2.34-0.1,3.49l5.9-0.04c0.13-0.41,0.27-0.77,0.42-1.09
	C65.71,21.28,66.18,20.64,66.76,20.16 M79.41,20.89l-6.01-0.35c0.32,0.62,0.52,1.48,0.6,2.56l5.41-0.04
	c0.02-0.71,0.03-1.18,0.03-1.39C79.43,21.4,79.43,21.14,79.41,20.89"/>
<path class="st8" d="M64.91,23.16L59,23.21c-0.03,0.92-0.07,1.84-0.1,2.75l-0.04,0.7l5.38-0.37C64.42,25.05,64.64,24.01,64.91,23.16
	 M79.4,23.06L74,23.1c0.02,0.29,0.03,0.6,0.03,0.92c0,0.48-0.02,1-0.03,1.58l5.31-0.38C79.35,24.35,79.38,23.63,79.4,23.06"/>
<path class="st9" d="M64.25,26.29l-5.38,0.38c-0.07,1.2-0.15,2.37-0.23,3.54l5.33-0.72C64.02,28.3,64.12,27.24,64.25,26.29
	 M79.31,25.22L74,25.6c-0.02,0.76-0.06,1.6-0.11,2.54l5.34-0.73l0.02-0.95C79.28,26.02,79.29,25.6,79.31,25.22"/>
<path class="st10" d="M63.96,29.49l-5.33,0.72c-0.09,1.23-0.18,2.44-0.29,3.65l5.53-1.12C63.88,31.57,63.92,30.49,63.96,29.49
	 M79.24,27.42l-5.34,0.72c-0.02,0.34-0.04,0.68-0.06,1.05c-0.02,0.51-0.04,1.04-0.07,1.57l5.42-1.09L79.24,27.42z"/>
<path class="st11" d="M63.87,32.74l-5.53,1.12c-0.06,0.73-0.13,1.46-0.2,2.19h5.73v-1.2v-1.88V32.74z M79.18,29.66l-5.42,1.09
	c-0.04,0.88-0.11,1.79-0.18,2.72l5.55-1.5C79.15,31.22,79.17,30.45,79.18,29.66"/>
<path class="st12" d="M79.14,31.97l-5.55,1.48c-0.06,0.85-0.12,1.71-0.19,2.6h0.69l5.03-1.71v-0.38
	C79.12,33.31,79.13,32.65,79.14,31.97"/>
<polygon class="st13" points="79.12,34.34 74.09,36.05 79.12,36.05 "/>
<path class="st14" d="M96,14.77l4.14,1.95c-0.21-0.28-0.44-0.54-0.71-0.77C98.62,15.36,97.49,14.96,96,14.77"/>
<path class="st15" d="M100.14,16.72L96,14.77c-0.72-0.09-1.51-0.14-2.39-0.14c-0.4,0-0.79,0.01-1.18,0.03l8.32,3.3
	C100.61,17.5,100.4,17.09,100.14,16.72"/>
<path class="st16" d="M100.76,17.96l-8.32-3.3c-0.86,0.04-1.72,0.12-2.6,0.21c-0.28,0.05-0.57,0.09-0.86,0.15l12.03,3.9
	C100.94,18.57,100.86,18.26,100.76,17.96"/>
<path class="st17" d="M101,18.92l-12.03-3.9c-1,0.18-2.03,0.4-3.15,0.68l-0.03,0.19l15.3,3.9C101.07,19.48,101.04,19.19,101,18.92"
	/>
<path class="st4" d="M101.09,19.78l-15.3-3.9l-0.22,1.79l5.5,1.03c0.49-0.07,0.96-0.11,1.42-0.11c0.95,0,1.71,0.19,2.19,0.57
	c0.14,0.09,0.26,0.18,0.36,0.29l6.07,1.14v-0.17C101.11,20.21,101.1,19.99,101.09,19.78"/>
<path class="st5" d="M91.07,18.7l-5.5-1.03l-0.23,1.77l2.13,0.26c0.62-0.24,1.2-0.44,1.75-0.61C89.87,18.93,90.48,18.79,91.07,18.7
	 M101.11,20.59l-6.07-1.14c0.32,0.33,0.46,0.74,0.47,1.24l5.6,0.69V20.59z"/>
<path class="st6" d="M87.46,19.7l-2.13-0.26l-0.15,1.24C85.97,20.3,86.73,19.98,87.46,19.7 M101.11,21.37l-5.6-0.69v0.06
	c0,0.4-0.15,0.75-0.45,1.05l6.05,0.35v-0.64V21.37z"/>
<path class="st7" d="M101.11,22.14l-6.05-0.35c-0.07,0.08-0.16,0.16-0.25,0.22c-0.4,0.31-1.17,0.62-2.22,0.96l8.49-0.06l0.03-0.67
	V22.14z"/>
<path class="st8" d="M101.08,22.91l-8.49,0.06c-0.23,0.08-0.48,0.15-0.73,0.23l-4.27,1.26c-0.25,0.07-0.48,0.14-0.7,0.22l14.18-1
	L101.08,22.91z"/>
<path class="st9" d="M101.05,23.68l-14.18,1c-1.42,0.49-2.51,1.17-3.28,2.04c-0.03,0.04-0.07,0.08-0.09,0.11l17.52-2.37
	L101.05,23.68z"/>
<path class="st10" d="M101.02,24.46L83.5,26.84c-0.48,0.59-0.81,1.32-0.99,2.15l11.5-2.32c0.18-0.07,0.36-0.16,0.55-0.25
	c0.31-0.14,0.63-0.32,0.94-0.57l-0.03,0.53l5.51-1.11L101.02,24.46z"/>
<path class="st11" d="M94.01,26.66l-11.5,2.32c-0.11,0.5-0.16,1.03-0.16,1.6c0,0.18,0,0.35,0.02,0.52l5.68-1.53
	c0.09-0.28,0.23-0.52,0.41-0.7c0.37-0.39,1.13-0.76,2.38-1.13l2.71-0.9C93.71,26.78,93.86,26.73,94.01,26.66 M100.99,25.26
	l-5.51,1.11l-0.08,1.22l5.55-1.5L100.99,25.26z"/>
<path class="st12" d="M88.05,29.57l-5.68,1.53c0.04,0.74,0.18,1.4,0.44,2l5.37-1.82c-0.16-0.28-0.22-0.63-0.22-1.02
	C87.95,30.01,87.98,29.78,88.05,29.57 M100.95,26.09l-5.55,1.5l-0.07,1.26l5.58-1.9L100.95,26.09z"/>
<path class="st13" d="M88.17,31.28l-5.37,1.81c0.27,0.65,0.67,1.22,1.2,1.72l5.94-2.45c-0.53-0.07-0.96-0.25-1.28-0.53
	C88.43,31.67,88.28,31.48,88.17,31.28 M100.91,26.94l-5.58,1.9l-0.09,1.33l5.64-2.33L100.91,26.94z"/>
<path class="st18" d="M89.94,32.36l-5.94,2.45c0.03,0.04,0.07,0.07,0.1,0.1c0.54,0.52,1.17,0.91,1.89,1.18l7.52-3.69l0.18-0.64
	c-0.76,0.25-1.45,0.4-1.89,0.53c-0.5,0.04-0.95,0.11-1.27,0.11C90.31,32.41,90.12,32.39,89.94,32.36 M100.88,27.85l-5.64,2.33
	l-0.09,1.42l5.7-2.79L100.88,27.85z"/>
<path class="st19" d="M93.51,32.4l-7.52,3.69c0.85,0.32,1.84,0.48,2.98,0.48l0.07-0.01l3.94-2.26L93.51,32.4z M100.84,28.81
	l-5.69,2.79l-0.01,0.11c-0.03,0.52-0.06,1-0.09,1.41l5.74-3.28L100.84,28.81z"/>
<path class="st20" d="M92.98,34.31l-3.94,2.25c0.48-0.01,1.01-0.07,1.62-0.14c0.58-0.11,1.2-0.25,1.83-0.37L92.98,34.31z
	 M100.79,29.84l-5.74,3.28c-0.04,0.54-0.06,0.98-0.1,1.3l-0.05,0.4l5.84-3.86L100.79,29.84z"/>
<path class="st21" d="M100.74,30.96l-5.84,3.86c-0.06,0.46-0.11,0.84-0.21,1.24h0.89l5.11-3.88L100.74,30.96z"/>
<polygon class="st22" points="100.69,32.18 95.57,36.06 97.72,36.06 100.67,33.51 100.67,33.48 100.67,32.58 "/>
<polygon class="st23" points="100.67,33.51 97.72,36.06 99.57,36.06 100.67,34.96 "/>
<polygon class="st24" points="100.67,34.96 99.57,36.05 100.67,36.05 "/>
<path class="st25" d="M116.08,19.43l3.75-4.19c-0.24-0.06-0.49-0.1-0.73-0.14l-3.41,4.34C115.83,19.43,115.95,19.43,116.08,19.43"/>
<path class="st26" d="M110.06,26.14l-4.61,5.15c0.11,0.25,0.23,0.5,0.35,0.73l4.27-5.43C110.07,26.44,110.06,26.29,110.06,26.14"/>
<path class="st27" d="M115.7,19.44l3.41-4.34c-0.23-0.04-0.46-0.08-0.69-0.11l-3.07,4.48C115.47,19.45,115.58,19.44,115.7,19.44"/>
<path class="st24" d="M110.08,26.59l-4.27,5.43c0.13,0.24,0.27,0.48,0.42,0.7l3.88-5.64C110.1,26.92,110.09,26.75,110.08,26.59"/>
<path class="st28" d="M115.35,19.46l3.07-4.47c-0.09-0.01-0.19-0.03-0.29-0.04c-0.12-0.02-0.24-0.04-0.37-0.05l-2.74,4.6
	C115.13,19.48,115.24,19.47,115.35,19.46"/>
<path class="st23" d="M110.11,27.08l-3.88,5.64c0.16,0.23,0.33,0.45,0.51,0.66l3.44-5.78C110.16,27.44,110.13,27.26,110.11,27.08"/>
<path class="st29" d="M115.02,19.49l2.74-4.59c-0.21-0.03-0.42-0.06-0.63-0.08l-2.42,4.72C114.82,19.53,114.92,19.51,115.02,19.49"
	/>
<path class="st22" d="M110.19,27.61l-3.45,5.77c0.14,0.15,0.28,0.31,0.42,0.46c0.05,0.04,0.1,0.1,0.15,0.14l2.99-5.82
	C110.26,27.98,110.22,27.79,110.19,27.61"/>
<path class="st30" d="M114.72,19.54l2.42-4.71c-0.21-0.02-0.41-0.04-0.61-0.05l-2.1,4.81C114.54,19.58,114.62,19.56,114.72,19.54"/>
<path class="st21" d="M110.3,28.16l-2.99,5.82c0.2,0.2,0.41,0.39,0.63,0.57l2.53-5.84C110.41,28.54,110.35,28.35,110.3,28.16"/>
<path class="st31" d="M114.44,19.59l2.1-4.81c-0.2-0.01-0.4-0.02-0.59-0.03l-1.77,4.9C114.27,19.63,114.35,19.61,114.44,19.59"/>
<path class="st20" d="M110.47,28.72l-2.53,5.84c0.22,0.17,0.45,0.35,0.69,0.5l2.09-5.8C110.63,29.09,110.55,28.9,110.47,28.72"/>
<path class="st32" d="M114.18,19.66l1.77-4.9c-0.17-0.01-0.36-0.01-0.53-0.01h-0.04l-1.45,4.97
	C114.02,19.7,114.09,19.68,114.18,19.66"/>
<path class="st19" d="M110.71,29.26l-2.09,5.79c0.24,0.16,0.48,0.3,0.75,0.44l1.66-5.73C110.92,29.61,110.81,29.44,110.71,29.26"/>
<path class="st33" d="M113.93,19.72l1.45-4.98c-0.19,0-0.38,0.01-0.56,0.01l-1.11,5.03C113.78,19.77,113.86,19.74,113.93,19.72"/>
<path class="st18" d="M111.03,29.76l-1.66,5.73c0.25,0.14,0.51,0.25,0.78,0.36l1.25-5.65C111.27,30.07,111.14,29.92,111.03,29.76"/>
<path class="st34" d="M113.71,19.79l1.11-5.03c-0.19,0.01-0.36,0.02-0.54,0.03l-0.79,5.08C113.56,19.85,113.63,19.82,113.71,19.79"
	/>
<path class="st13" d="M111.41,30.2l-1.25,5.65c0.26,0.11,0.53,0.21,0.82,0.28l0.85-5.52c-0.11-0.1-0.21-0.2-0.32-0.31
	C111.48,30.27,111.44,30.24,111.41,30.2"/>
<path class="st35" d="M113.49,19.87l0.79-5.09c-0.18,0.02-0.35,0.03-0.53,0.05l-0.46,5.12C113.36,19.92,113.42,19.9,113.49,19.87"/>
<path class="st12" d="M111.83,30.61l-0.85,5.53c0.27,0.08,0.56,0.16,0.85,0.22l0.48-5.4C112.14,30.85,111.98,30.73,111.83,30.61"/>
<path class="st36" d="M113.29,19.95l0.46-5.12c-0.17,0.02-0.35,0.05-0.51,0.07l-0.13,5.13C113.17,20.01,113.23,19.98,113.29,19.95"
	/>
<path class="st11" d="M112.31,30.96l-0.48,5.4c0.28,0.06,0.57,0.1,0.86,0.15l0.13-5.28C112.65,31.15,112.47,31.06,112.31,30.96"/>
<path class="st37" d="M113.11,20.04l0.13-5.14c-0.18,0.02-0.34,0.06-0.51,0.08l0.21,5.14C112.99,20.09,113.04,20.06,113.11,20.04"/>
<path class="st10" d="M112.82,31.23l-0.13,5.28c0.3,0.04,0.58,0.07,0.89,0.09l-0.2-5.15C113.18,31.38,113,31.31,112.82,31.23"/>
<path class="st38" d="M112.93,20.12l-0.21-5.14c-0.17,0.03-0.33,0.07-0.49,0.11l0.53,5.12C112.82,20.18,112.87,20.15,112.93,20.12"
	/>
<path class="st9" d="M113.38,31.44l0.2,5.15c0.29,0.02,0.58,0.03,0.89,0.04l-0.53-5.04C113.75,31.55,113.56,31.5,113.38,31.44"/>
<path class="st39" d="M112.76,20.21l-0.53-5.13c-0.17,0.04-0.33,0.09-0.49,0.12l0.86,5.09C112.66,20.27,112.71,20.24,112.76,20.21"
	/>
<path class="st8" d="M113.94,31.59l0.53,5.04h0.14c0.25,0,0.5-0.01,0.76-0.02l-0.83-4.92C114.33,31.67,114.13,31.64,113.94,31.59"/>
<path class="st40" d="M112.6,20.3l-0.86-5.09c-0.16,0.05-0.31,0.09-0.47,0.15l1.19,5.03C112.51,20.36,112.56,20.33,112.6,20.3"/>
<path class="st7" d="M114.54,31.7l0.83,4.91c0.29-0.02,0.59-0.05,0.91-0.09l-1.13-4.77C114.93,31.74,114.73,31.72,114.54,31.7"/>
<path class="st41" d="M112.46,20.4l-1.19-5.04c-0.16,0.05-0.31,0.11-0.46,0.16l1.51,4.96C112.37,20.46,112.41,20.43,112.46,20.4"/>
<path class="st6" d="M115.15,31.75l1.12,4.77c0.28-0.04,0.58-0.09,0.89-0.16l-1.41-4.6h-0.02
	C115.53,31.77,115.33,31.76,115.15,31.75"/>
<path class="st42" d="M112.32,20.49l-1.51-4.97c-0.15,0.06-0.3,0.12-0.45,0.19l1.83,4.88C112.23,20.56,112.28,20.52,112.32,20.49"/>
<path class="st5" d="M115.76,31.77l1.4,4.6l0.03,0c0.28-0.04,0.57-0.1,0.88-0.16l-1.68-4.46C116.16,31.76,115.95,31.77,115.76,31.77
	"/>
<path class="st43" d="M112.19,20.59l-1.83-4.88c-0.15,0.07-0.3,0.14-0.44,0.21l2.15,4.77C112.11,20.65,112.15,20.62,112.19,20.59"/>
<path class="st4" d="M116.39,31.74l1.68,4.46c0.3-0.06,0.59-0.13,0.91-0.21l-1.94-4.31C116.8,31.71,116.59,31.73,116.39,31.74"/>
<path class="st44" d="M112.07,20.7l-2.15-4.77c-0.15,0.08-0.29,0.16-0.43,0.23l2.46,4.63C111.99,20.76,112.03,20.73,112.07,20.7"/>
<path class="st17" d="M117.03,31.69l1.94,4.31c0.31-0.07,0.62-0.16,0.94-0.24l-2.23-4.18C117.46,31.61,117.24,31.65,117.03,31.69"/>
<path class="st45" d="M111.96,20.79l-2.46-4.64c-0.15,0.08-0.28,0.17-0.42,0.25l2.77,4.49C111.88,20.86,111.92,20.83,111.96,20.79"
	/>
<path class="st16" d="M117.68,31.57l2.23,4.18l0.3-0.08l0.15-0.96l-2.02-3.27c-0.14,0.03-0.27,0.05-0.39,0.07
	C117.86,31.54,117.78,31.55,117.68,31.57"/>
<path class="st46" d="M111.85,20.9l-2.77-4.49c-0.13,0.09-0.26,0.18-0.39,0.27l3.05,4.32C111.77,20.96,111.81,20.93,111.85,20.9"/>
<path class="st15" d="M118.35,31.45l2.02,3.27l0.19-1.27l-1.52-2.14C118.8,31.36,118.57,31.4,118.35,31.45"/>
<path class="st47" d="M111.73,21l-3.05-4.32c-0.13,0.09-0.26,0.19-0.38,0.29l3.35,4.13C111.67,21.07,111.7,21.03,111.73,21"/>
<path class="st14" d="M119.03,31.3l1.52,2.14l0.17-1.11l-0.98-1.22C119.5,31.18,119.26,31.25,119.03,31.3"/>
<path class="st48" d="M111.64,21.1l-3.35-4.14c-0.12,0.1-0.25,0.21-0.37,0.32l3.62,3.93C111.57,21.17,111.61,21.14,111.64,21.1
	L111.64,21.1z"/>
<path class="st49" d="M119.74,31.12l0.98,1.22l0.16-0.99l-0.4-0.43C120.22,30.98,119.98,31.06,119.74,31.12"/>
<path class="st50" d="M111.54,21.21l-3.62-3.93c-0.11,0.11-0.23,0.22-0.35,0.33l3.87,3.7C111.49,21.28,111.51,21.24,111.54,21.21"/>
<path class="st51" d="M120.48,30.91l0.4,0.43l0.09-0.58C120.81,30.81,120.64,30.86,120.48,30.91"/>
<path class="st3" d="M111.45,21.32l-3.87-3.7c-0.06,0.05-0.11,0.1-0.16,0.16c-0.06,0.07-0.12,0.13-0.18,0.2l4.12,3.45
	C111.39,21.39,111.42,21.35,111.45,21.32"/>
<path class="st52" d="M111.36,21.43l-4.12-3.46c-0.11,0.12-0.21,0.25-0.32,0.37l4.35,3.2C111.3,21.5,111.34,21.46,111.36,21.43"/>
<path class="st51" d="M111.28,21.54l-4.35-3.2c-0.1,0.12-0.2,0.26-0.29,0.39l4.57,2.92C111.22,21.61,111.25,21.58,111.28,21.54"/>
<path class="st49" d="M111.2,21.65l-4.57-2.92c-0.09,0.14-0.19,0.27-0.27,0.4l4.76,2.63L111.2,21.65z"/>
<path class="st14" d="M111.12,21.77l-4.76-2.63c-0.09,0.13-0.18,0.27-0.26,0.41l4.94,2.34C111.07,21.84,111.09,21.8,111.12,21.77"/>
<path class="st15" d="M111.05,21.89l-4.94-2.34c-0.08,0.15-0.17,0.29-0.24,0.44l5.11,2.02C110.99,21.96,111.02,21.93,111.05,21.89"
	/>
<path class="st16" d="M110.97,22.01l-5.11-2.02c-0.08,0.15-0.15,0.29-0.22,0.44l5.25,1.71C110.92,22.09,110.94,22.05,110.97,22.01"
	/>
<path class="st17" d="M110.9,22.13l-5.25-1.71c-0.07,0.16-0.13,0.31-0.2,0.47l5.38,1.38C110.85,22.22,110.87,22.18,110.9,22.13"/>
<path class="st4" d="M110.82,22.27l-5.38-1.38c-0.06,0.16-0.12,0.32-0.18,0.48l5.49,1.04C110.79,22.35,110.8,22.31,110.82,22.27"/>
<path class="st5" d="M110.76,22.4l-5.49-1.04c-0.06,0.16-0.11,0.32-0.16,0.49l5.58,0.68C110.71,22.49,110.74,22.45,110.76,22.4"/>
<path class="st6" d="M110.69,22.54l-5.58-0.69c-0.05,0.17-0.1,0.34-0.14,0.51l5.66,0.33C110.65,22.64,110.67,22.59,110.69,22.54"/>
<path class="st7" d="M110.63,22.69l-5.66-0.33c-0.04,0.17-0.08,0.35-0.12,0.52l5.72-0.04C110.59,22.79,110.61,22.74,110.63,22.69"/>
<path class="st8" d="M110.57,22.84l-5.72,0.04c-0.04,0.18-0.07,0.35-0.1,0.53l5.76-0.41C110.53,22.95,110.55,22.9,110.57,22.84"/>
<path class="st9" d="M110.51,23l-5.76,0.41c-0.04,0.18-0.06,0.36-0.08,0.54l5.79-0.79C110.47,23.12,110.49,23.06,110.51,23"/>
<path class="st10" d="M110.46,23.18l-5.8,0.78c-0.03,0.19-0.05,0.37-0.06,0.56l5.79-1.17C110.41,23.3,110.44,23.24,110.46,23.18"/>
<path class="st11" d="M110.4,23.36l-5.8,1.17c-0.01,0.19-0.03,0.39-0.04,0.58l5.79-1.56C110.36,23.49,110.38,23.42,110.4,23.36"/>
<path class="st12" d="M110.35,23.55l-5.79,1.56c-0.01,0.2-0.02,0.39-0.03,0.6l5.76-1.96C110.32,23.69,110.33,23.62,110.35,23.55"/>
<polygon class="st35" points="121.04,20.11 120.72,20.21 121.04,20.3 "/>
<path class="st13" d="M110.3,23.76l-5.77,1.96c0,0.15,0,0.3,0,0.44v0.19l5.72-2.37C110.27,23.91,110.28,23.83,110.3,23.76"/>
<path class="st34" d="M120.72,20.21l0.32-0.11v-0.59l-1.13,0.47C120.17,20.05,120.44,20.13,120.72,20.21"/>
<path class="st18" d="M110.25,23.97l-5.72,2.37c0,0.22,0.01,0.43,0.02,0.65l5.66-2.77C110.22,24.13,110.23,24.06,110.25,23.97"/>
<path class="st33" d="M119.91,19.99l1.13-0.47V18.9l-1.83,0.89C119.43,19.86,119.67,19.92,119.91,19.99"/>
<path class="st19" d="M110.21,24.22l-5.66,2.77c0.01,0.23,0.03,0.45,0.04,0.67l5.58-3.19C110.18,24.38,110.19,24.3,110.21,24.22"/>
<path class="st32" d="M119.21,19.8l1.83-0.89v-0.65l-2.46,1.41C118.77,19.7,118.99,19.74,119.21,19.8"/>
<path class="st20" d="M110.17,24.47l-5.58,3.19c0.02,0.24,0.05,0.47,0.08,0.7l5.46-3.61C110.14,24.65,110.16,24.56,110.17,24.47"/>
<path class="st31" d="M118.57,19.66l2.46-1.41v-0.71l-3.06,2.02c0.09,0.02,0.19,0.03,0.28,0.05
	C118.37,19.62,118.47,19.63,118.57,19.66"/>
<path class="st21" d="M110.13,24.75l-5.46,3.6c0.03,0.25,0.07,0.49,0.11,0.72l5.31-4.02C110.11,24.95,110.12,24.84,110.13,24.75"/>
<path class="st30" d="M117.98,19.56l3.06-2.02v-0.77l-3.59,2.72C117.62,19.51,117.8,19.53,117.98,19.56"/>
<path class="st22" d="M110.1,25.05l-5.31,4.02c0.05,0.25,0.1,0.49,0.16,0.74l5.13-4.43C110.09,25.27,110.1,25.15,110.1,25.05"/>
<path class="st29" d="M117.45,19.49l3.59-2.72v-0.85l-4.09,3.53C117.11,19.46,117.28,19.47,117.45,19.49"/>
<path class="st23" d="M110.08,25.38l-5.13,4.43c0.07,0.25,0.14,0.49,0.22,0.74l4.89-4.81C110.06,25.62,110.07,25.5,110.08,25.38"/>
<path class="st28" d="M116.95,19.45l4.09-3.53v-0.41c-0.15-0.04-0.3-0.07-0.45-0.11l-4.1,4.02
	C116.65,19.43,116.79,19.44,116.95,19.45"/>
<path class="st24" d="M110.06,25.74l-4.89,4.81c0.08,0.26,0.18,0.51,0.29,0.74l4.61-5.15v-0.12V25.74"/>
<path class="st27" d="M116.49,19.43l4.1-4.02c-0.25-0.06-0.51-0.11-0.75-0.17l-3.75,4.19h0.09
	C116.28,19.43,116.39,19.43,116.49,19.43"/>
<path class="st52" d="M127.79,35.21l-2.08-1.75c0.12,0.13,0.23,0.25,0.36,0.37C126.57,34.37,127.15,34.82,127.79,35.21"/>
<path class="st3" d="M125.71,33.46l2.08,1.74c1.09,0.64,2.37,1.08,3.82,1.28l-7.38-5.43C124.6,31.96,125.1,32.76,125.71,33.46"/>
<path class="st50" d="M124.23,31.06l7.38,5.43c0.68,0.1,1.4,0.15,2.15,0.15h0.38v-0.3l0.41,0.27c-0.14,0.01-0.27,0.02-0.41,0.03
	v-0.3l-10.36-6.63C123.91,30.18,124.06,30.63,124.23,31.06"/>
<path class="st48" d="M134.14,36.34l0.41,0.27c0.94-0.06,1.82-0.19,2.64-0.39l-3.05-1.69V36.34z M123.78,29.71l10.36,6.63v-1.82
	l-10.58-5.86C123.62,29.02,123.69,29.37,123.78,29.71"/>
<path class="st47" d="M123.56,28.66l10.58,5.86V32.8l5.4,2.55c-0.72,0.36-1.51,0.65-2.35,0.86l-3.05-1.69V32.8l-2.49-1.17
	l-0.06-0.03l-8.15-3.86C123.47,28.06,123.51,28.36,123.56,28.66"/>
<path class="st46" d="M134.14,32.8l5.4,2.55c0.69-0.35,1.33-0.77,1.92-1.26l-5.65-2.24c-0.5,0.14-1.06,0.22-1.67,0.22V32.8z
	 M131.66,31.63l2.49,1.17v-0.72h-0.19C133.08,32.08,132.31,31.93,131.66,31.63 M123.44,27.74l8.15,3.86
	c-0.51-0.25-0.94-0.59-1.29-1.02c-0.27-0.34-0.51-0.73-0.7-1.18l-6.21-2.47C123.4,27.21,123.42,27.48,123.44,27.74"/>
<path class="st45" d="M135.81,31.85l5.65,2.24c0.21-0.18,0.41-0.37,0.62-0.57c0.32-0.31,0.6-0.66,0.86-1.02l-5.3-1.72
	C137.12,31.29,136.52,31.65,135.81,31.85 M123.38,26.93l6.21,2.47c-0.17-0.4-0.3-0.85-0.4-1.34l-5.83-1.88
	C123.37,26.43,123.37,26.68,123.38,26.93"/>
<path class="st44" d="M137.63,30.79l5.3,1.72c0.41-0.55,0.75-1.15,1.05-1.8l-5.39-1.37c-0.17,0.39-0.38,0.75-0.62,1.05
	C137.87,30.53,137.75,30.66,137.63,30.79 M123.37,26.17l5.83,1.88c-0.07-0.36-0.12-0.74-0.15-1.15l-5.67-1.44
	c-0.01,0.21-0.01,0.43-0.01,0.65V26.17z"/>
<path class="st43" d="M138.59,29.34l5.38,1.37c0.27-0.61,0.5-1.26,0.66-1.96l-5.54-1.04C138.98,28.32,138.81,28.85,138.59,29.34
	 M123.38,25.46l5.67,1.45c-0.02-0.28-0.03-0.58-0.03-0.88v-0.2l-5.61-1.05C123.4,24.99,123.39,25.23,123.38,25.46"/>
<path class="st42" d="M139.1,27.71l5.54,1.04c0.16-0.65,0.26-1.32,0.33-2.04l-5.68-0.69C139.26,26.63,139.2,27.19,139.1,27.71
	 M123.42,24.78l5.61,1.05c0-0.37,0.02-0.72,0.05-1.05l-5.59-0.68C123.46,24.32,123.44,24.54,123.42,24.78"/>
<path class="st41" d="M139.29,26.01l5.68,0.69c0.05-0.52,0.07-1.06,0.07-1.62c0-0.15,0-0.29-0.01-0.43l-5.77-0.33
	c0.03,0.31,0.03,0.63,0.03,0.96C139.3,25.53,139.3,25.78,139.29,26.01 M123.48,24.09l5.59,0.68c0.04-0.36,0.07-0.71,0.14-1.03
	l-5.63-0.32C123.54,23.65,123.51,23.87,123.48,24.09"/>
<path class="st40" d="M139.27,24.31l5.77,0.33c-0.02-0.72-0.09-1.4-0.2-2.04l-5.85,0.04C139.12,23.14,139.22,23.7,139.27,24.31
	 M123.58,23.43l5.63,0.32c0.07-0.37,0.16-0.71,0.26-1.04l-5.76,0.04C123.66,22.97,123.62,23.2,123.58,23.43"/>
<path class="st39" d="M138.99,22.65l5.85-0.05c-0.12-0.72-0.31-1.39-0.54-2.01l-6.05,0.43C138.56,21.48,138.81,22.02,138.99,22.65
	 M123.71,22.75l5.76-0.04c0.12-0.4,0.29-0.77,0.48-1.1l-6.06,0.43C123.83,22.28,123.77,22.51,123.71,22.75"/>
<path class="st38" d="M138.25,21.02l6.04-0.43c-0.26-0.69-0.58-1.33-0.96-1.9l-6.75,0.92c0.59,0.25,1.1,0.63,1.47,1.13
	C138.11,20.83,138.18,20.92,138.25,21.02 M123.89,22.05l6.06-0.44c0.13-0.25,0.29-0.48,0.47-0.69c0.15-0.2,0.31-0.38,0.49-0.54
	l-6.78,0.93C124.04,21.55,123.97,21.79,123.89,22.05"/>
<path class="st37" d="M124.13,21.31l6.78-0.93c0.79-0.72,1.89-1.11,3.23-1.15v-0.68l7.7-1.56c0.15,0.13,0.28,0.26,0.42,0.4
	c0.39,0.4,0.75,0.83,1.06,1.3l-6.75,0.92c-0.61-0.25-1.33-0.38-2.12-0.38h-0.32v-0.68l-9.69,1.96
	C124.34,20.77,124.23,21.04,124.13,21.31"/>
<path class="st36" d="M134.14,18.55l7.7-1.56c-0.62-0.56-1.34-1.01-2.14-1.36l-5.56,1.5V18.55z M124.46,20.51l9.69-1.96v-1.42
	l-9.23,2.48C124.76,19.91,124.6,20.21,124.46,20.51"/>
<path class="st35" d="M124.92,19.62l9.23-2.49v-1.49l2.45-0.83c1.15,0.14,2.19,0.42,3.11,0.82l-5.56,1.5v-1.49l-8.48,2.89
	C125.39,18.87,125.15,19.24,124.92,19.62"/>
<path class="st34" d="M134.14,15.64l2.45-0.83c-0.64-0.08-1.32-0.12-2.02-0.12h-0.43V15.64z M125.66,18.53l8.48-2.89v-0.95
	c-0.61,0.01-1.19,0.05-1.75,0.12l-5.2,2.15c-0.31,0.25-0.6,0.52-0.88,0.81C126.09,18.02,125.86,18.26,125.66,18.53"/>
<path class="st33" d="M127.2,16.97l5.2-2.15C130.36,15.09,128.63,15.81,127.2,16.97"/>
<path class="st44" d="M163.5,35.68l-14.4-3.67c0.37,0.69,0.82,1.29,1.36,1.83c1.76,1.84,4.22,2.79,7.43,2.79
	c0.8,0,1.65-0.06,2.52-0.27C161.35,36.24,162.36,35.98,163.5,35.68"/>
<path class="st43" d="M149.1,32.01l14.4,3.67l0.51-3.3l-3.72-0.69c-0.46,0.06-0.88,0.08-1.26,0.08c-1.58,0-2.81-0.32-3.73-1.01
	l-7.16-1.34C148.36,30.37,148.68,31.24,149.1,32.01"/>
<path class="st42" d="M160.29,31.68l3.72,0.7l0.24-1.62c-1.2,0.38-2.26,0.64-3.02,0.76C160.91,31.59,160.59,31.65,160.29,31.68
	 M148.14,29.41l7.16,1.34c-0.18-0.14-0.34-0.28-0.49-0.45c-0.69-0.63-1.11-1.49-1.31-2.57l-5.66-0.68
	C147.88,27.89,147.98,28.67,148.14,29.41"/>
<path class="st41" d="M147.84,27.05l5.66,0.68c-0.1-0.52-0.15-1.09-0.15-1.71c0-0.31,0.01-0.62,0.03-0.91l-5.52-0.32
	c-0.04,0.43-0.04,0.89-0.04,1.35C147.82,26.46,147.82,26.76,147.84,27.05"/>
<path class="st40" d="M147.86,24.81l5.52,0.31c0.08-0.97,0.27-1.83,0.6-2.57l-5.78,0.04C148.04,23.28,147.93,24.02,147.86,24.81"/>
<path class="st39" d="M164.32,19.15l-4.14,0.3c0.44,0.03,0.89,0.08,1.37,0.16c0.76,0.12,1.7,0.38,2.78,0.7V19.15z M148.2,22.58
	l5.78-0.04c0.24-0.54,0.55-1.02,0.93-1.43c0.66-0.72,1.55-1.21,2.63-1.47l-8.51,0.61C148.68,20.96,148.41,21.74,148.2,22.58"/>
<path class="st38" d="M149.03,20.25l8.51-0.61c0.59-0.14,1.24-0.22,1.93-0.22c0.23,0,0.47,0.01,0.71,0.02l4.14-0.3v-3.33l-13.5,1.84
	l-0.11,0.11C150.03,18.5,149.47,19.32,149.03,20.25"/>
<path class="st37" d="M150.82,17.67l13.5-1.84v-0.31c-1-0.25-1.96-0.44-2.91-0.56c-0.94-0.14-1.82-0.2-2.71-0.2
	C155.38,14.75,152.77,15.72,150.82,17.67"/>
<path class="st43" d="M172.51,33.98l-5.45-1.03c-0.09,1.06-0.19,2.09-0.29,3.11h5.73V33.98z M183.59,36.06l-1.55-0.29l-0.02,0.29
	H183.59z"/>
<path class="st42" d="M182.04,35.76l1.55,0.29h4.17v-2.1c0-0.67,0-1.36,0-2.06l-5.43-0.66C182.25,32.67,182.16,34.18,182.04,35.76
	 M167.06,32.95l5.45,1.03v-0.39c0-1.26,0.02-2.44,0.07-3.53l-5.25-0.63C167.25,30.63,167.16,31.8,167.06,32.95"/>
<path class="st41" d="M182.33,31.24l5.43,0.66c0.01-1.51,0.03-3.1,0.1-4.83l-5.27-0.3c-0.03,0.73-0.07,1.53-0.13,2.41
	C182.42,29.84,182.38,30.53,182.33,31.24 M167.33,29.42l5.25,0.63c0.06-1.44,0.16-2.71,0.3-3.83l-5.33-0.31
	C167.48,27.11,167.41,28.28,167.33,29.42"/>
<path class="st40" d="M182.59,26.77l5.27,0.31c0.01-0.2,0.02-0.41,0.03-0.61c0.08-1.97,0.11-3.37,0.11-4.16l-5.47,0.03
	c0.07,0.52,0.11,1.1,0.11,1.76C182.64,24.83,182.63,25.72,182.59,26.77 M167.55,25.92l5.33,0.3c0.2-1.61,0.5-2.88,0.88-3.82
	l-6.05,0.04c-0.02,0.43-0.04,0.85-0.06,1.27C167.62,24.45,167.59,25.19,167.55,25.92"/>
<path class="st39" d="M167.7,22.44l6.05-0.05c0.04-0.11,0.08-0.21,0.13-0.32c0.94-2.03,2.52-3.03,4.92-3.03
	c1.38,0,2.39,0.38,2.96,1.12c0.37,0.46,0.63,1.19,0.77,2.17L188,22.3c0.01-0.29,0.01-0.5,0.01-0.62c0-1.74-0.27-3.13-0.86-4.16
	l-19.34,1.39C167.78,20.11,167.74,21.29,167.7,22.44"/>
<path class="st38" d="M167.81,18.9l19.34-1.39c-0.26-0.46-0.58-0.86-0.97-1.18c-1.25-1.07-3.27-1.64-6.05-1.64
	c-1.64,0-3.09,0.26-4.22,0.82c-1.2,0.52-2.14,1.32-2.9,2.4c0-1.13,0.03-2.23,0.07-3.29l-5.2,0.71
	C167.85,16.54,167.84,17.73,167.81,18.9"/>
<path class="st37" d="M167.87,15.33l5.2-0.71c0.02-0.42,0.04-0.85,0.05-1.25c0.09-0.95,0.17-1.87,0.26-2.77l-5.49,1.11
	C167.89,12.94,167.88,14.15,167.87,15.33"/>
<path class="st36" d="M167.9,11.71l5.49-1.11c0.06-0.53,0.11-1.06,0.18-1.57h-5.67C167.9,9.93,167.9,10.83,167.9,11.71"/>
<path class="st42" d="M201.8,33.59l-10.63-1.28c0.26,1.03,0.77,1.9,1.57,2.6c1.2,1.15,2.78,1.66,4.86,1.66
	c0.5,0,1.07-0.08,1.63-0.14c0.63-0.11,1.26-0.26,1.9-0.37L201.8,33.59z M209.31,34.51l-5.69-0.69c-0.02,0.23-0.03,0.43-0.05,0.6
	c-0.06,0.64-0.12,1.14-0.24,1.64h5.98V34.51z"/>
<path class="st41" d="M203.62,33.82l5.68,0.69v-1.03v-0.9l0.18-4.28L204,27.98l-0.24,3.72C203.71,32.55,203.67,33.26,203.62,33.82
	 M191.17,32.31l10.63,1.28l0.51-1.82c-0.74,0.24-1.45,0.39-1.94,0.52c-0.46,0.05-0.89,0.11-1.21,0.11c-0.81,0-1.45-0.2-1.89-0.58
	c-0.51-0.36-0.69-0.87-0.69-1.57c0-0.56,0.12-1.07,0.49-1.38c0.38-0.39,1.14-0.76,2.35-1.13l0.02-0.01l-7.64-0.43
	c-0.55,0.88-0.85,2-0.85,3.28C190.96,31.19,191.03,31.78,191.17,32.31"/>
<path class="st40" d="M191.81,27.3l7.64,0.43l2.73-0.89c0.33-0.12,0.65-0.25,1.01-0.42c0.32-0.14,0.62-0.31,0.94-0.58L204,27.99
	l5.49,0.31l0.26-6.06v-0.1l-6.63,0.05c-0.51,0.31-1.42,0.64-2.65,1.01l-4.28,1.26c-1.77,0.5-3.07,1.25-3.97,2.26
	C192.08,26.9,191.94,27.1,191.81,27.3"/>
<path class="st39" d="M203.13,22.19l6.63-0.05v-0.65v-1.06c0-2.04-0.56-3.48-1.64-4.42L194.25,17l-0.51,3.68
	c1.52-0.69,2.89-1.21,4.1-1.58c1.19-0.31,2.25-0.51,3.21-0.51c1,0,1.77,0.19,2.27,0.57c0.57,0.37,0.8,0.88,0.8,1.58
	c0,0.5-0.24,0.93-0.75,1.27C203.31,22.07,203.22,22.13,203.13,22.19"/>
<path class="st38" d="M194.25,17l13.86-0.99l-0.06-0.06c-1.2-0.89-3.15-1.33-5.87-1.33c-1.19,0-2.46,0.12-3.72,0.23
	c-1.25,0.21-2.58,0.47-4.03,0.84L194.25,17z"/>
<rect x="0.24" y="50.23" class="st1" width="226.48" height="7.05"/>
</svg>
