<?xml version="1.0" encoding="utf-8"?>
<!-- Generator: Adobe Illustrator 23.0.4, SVG Export Plug-In . SVG Version: 6.00 Build 0)  -->
<svg version="1.1" id="Capa_1" xmlns="http://www.w3.org/2000/svg" xmlns:xlink="http://www.w3.org/1999/xlink" x="0px" y="0px"
	 viewBox="0 0 146.01 141.78" style="enable-background:new 0 0 146.01 141.78;" xml:space="preserve">
<style type="text/css">
	.st0{fill:#457C1F;}
	.st1{fill:#F0B500;}
	.st2{fill:#E16A03;}
	.st3{fill:#2B2523;}
</style>
<path class="st0" d="M143.83,77.02l-32.67-52.07c0,0-2.9-4.07-7.02-4.07h-0.02h0.02h-0.03c-4.12,0-7.02,4.07-7.02,4.07L77.86,55.6
	l-0.03-0.03l-11.92-19c0,0-2.25-3.17-5.46-3.17h-0.02h0.01h-0.02c-3.21,0-5.46,3.17-5.46,3.17L37.38,64.62l-0.02-0.03L27.13,48.26
	c0,0-1.6-2.25-3.88-2.25h-0.01h0.01h-0.01c-2.28,0-3.88,2.25-3.88,2.25L1.34,76.99h7.52l10.5-16.73c0,0,1.6-2.25,3.88-2.25h0.01
	h-0.01h0.01c2.28,0,3.88,2.25,3.88,2.25l10.23,16.32l0.02,0.04l17.59-28.04c0,0,2.25-3.17,5.46-3.17h0.02h-0.01h0.02
	c3.21,0,5.46,3.17,5.46,3.17l11.92,19l0.03,0.02l19.22-30.64c0,0,2.9-4.07,7.02-4.07h0.03h-0.02h0.02c4.13,0,7.02,4.07,7.02,4.07
	l25.11,40.02L143.83,77.02z"/>
<path class="st1" d="M66.87,20.87c0,3.44-2.79,6.23-6.23,6.23c-3.44,0-6.23-2.79-6.23-6.23c0-3.44,2.79-6.23,6.23-6.23
	C64.09,14.64,66.87,17.43,66.87,20.87"/>
<path class="st0" d="M110.47,8.47c0,3.44-2.79,6.23-6.23,6.23c-3.45,0-6.23-2.79-6.23-6.23c0-3.44,2.79-6.23,6.23-6.23
	C107.68,2.24,110.47,5.03,110.47,8.47"/>
<path class="st2" d="M29.53,33.36c0,3.44-2.79,6.23-6.23,6.23c-3.44,0-6.23-2.79-6.23-6.23c0-3.44,2.79-6.23,6.23-6.23
	C26.75,27.13,29.53,29.92,29.53,33.36"/>
<path class="st3" d="M4.83,90.58c0,1.99,0,3.07,0.33,3.34c0.26,0.24,0.67,0.35,1.88,0.35c0.82,0,1.43-0.02,1.82-0.43
	c0.18-0.2,0.37-0.64,0.4-0.93c0.02-0.14,0.05-0.24,0.17-0.24c0.11,0,0.13,0.08,0.13,0.27c0,0.17-0.11,1.33-0.23,1.78
	c-0.09,0.35-0.17,0.42-0.98,0.42c-1.12,0-1.93-0.03-2.63-0.04c-0.7-0.03-1.26-0.05-1.9-0.05c-0.17,0-0.51,0.02-0.88,0.02
	c-0.36,0.01-0.76,0.03-1.07,0.03c-0.2,0-0.31-0.05-0.31-0.16c0-0.08,0.06-0.13,0.25-0.13c0.24,0,0.42-0.03,0.56-0.06
	c0.31-0.07,0.39-0.41,0.45-0.86c0.08-0.65,0.08-1.88,0.08-3.31v-2.74c0-2.36,0-2.8-0.03-3.29c-0.03-0.53-0.15-0.78-0.67-0.89
	c-0.13-0.03-0.31-0.04-0.51-0.04c-0.17,0-0.27-0.04-0.27-0.15c0-0.11,0.11-0.13,0.34-0.13c0.73,0,1.71,0.04,2.13,0.04
	c0.37,0,1.51-0.04,2.12-0.04c0.22,0,0.33,0.03,0.33,0.13c0,0.11-0.09,0.15-0.28,0.15c-0.17,0-0.42,0.02-0.61,0.04
	c-0.42,0.08-0.54,0.35-0.58,0.89c-0.03,0.49-0.03,0.93-0.03,3.29V90.58z"/>
<path class="st3" d="M10.36,90.8c0-1.93,1.28-4.44,4.67-4.44c2.81,0,4.57,1.65,4.57,4.23c0,2.59-1.81,4.64-4.68,4.64
	C11.67,95.23,10.36,92.8,10.36,90.8 M18.01,91.01c0-2.53-1.46-4.1-3.31-4.1c-1.3,0-2.79,0.73-2.79,3.54c0,2.35,1.3,4.21,3.47,4.21
	C16.18,94.66,18.01,94.28,18.01,91.01"/>
<path class="st3" d="M21.45,94.94c-0.18-0.08-0.22-0.14-0.22-0.38c0-0.62,0.04-1.3,0.06-1.48c0.01-0.17,0.04-0.3,0.14-0.3
	c0.1,0,0.11,0.1,0.11,0.19c0,0.15,0.05,0.38,0.1,0.58c0.25,0.84,0.92,1.14,1.62,1.14c1.02,0,1.51-0.69,1.51-1.29
	c0-0.56-0.17-1.09-1.11-1.81l-0.52-0.41c-1.24-0.97-1.67-1.77-1.67-2.68c0-1.24,1.04-2.14,2.61-2.14c0.74,0,1.21,0.12,1.5,0.2
	c0.1,0.02,0.16,0.05,0.16,0.13c0,0.14-0.04,0.47-0.04,1.36c0,0.25-0.04,0.33-0.13,0.33c-0.08,0-0.11-0.06-0.11-0.2
	c0-0.1-0.06-0.45-0.3-0.75c-0.17-0.22-0.49-0.55-1.23-0.55c-0.84,0-1.35,0.48-1.35,1.16c0,0.52,0.26,0.91,1.2,1.63l0.32,0.24
	c1.36,1.05,1.85,1.81,1.85,2.89c0,0.65-0.25,1.43-1.06,1.97c-0.57,0.36-1.2,0.46-1.8,0.46C22.45,95.23,21.94,95.15,21.45,94.94"/>
<path class="st3" d="M2.76,126.12c0-2.18,0-2.59-0.03-3.05c-0.03-0.49-0.15-0.72-0.62-0.82c-0.12-0.03-0.36-0.05-0.56-0.05
	c-0.16,0-0.25-0.03-0.25-0.13c0-0.09,0.1-0.13,0.32-0.13c0.76,0,1.67,0.04,2.07,0.04c0.45,0,1.35-0.04,2.21-0.04
	c1.8,0,4.2,0,5.77,1.64c0.72,0.75,1.39,1.94,1.39,3.65c0,1.81-0.76,3.2-1.57,4.02c-0.66,0.67-2.15,1.69-4.81,1.69
	c-0.51,0-1.11-0.04-1.65-0.08c-0.55-0.05-1.05-0.08-1.41-0.08c-0.16,0-0.48,0.01-0.82,0.01c-0.33,0.02-0.71,0.03-1,0.03
	c-0.18,0-0.28-0.04-0.28-0.14c0-0.07,0.06-0.12,0.23-0.12c0.21,0,0.39-0.03,0.51-0.05c0.29-0.06,0.36-0.37,0.42-0.79
	c0.07-0.6,0.07-1.74,0.07-3.06V126.12z M4.55,127.7c0,1.52,0.02,2.62,0.03,2.9c0.01,0.37,0.04,0.94,0.16,1.09
	c0.18,0.28,0.75,0.58,1.88,0.58c1.47,0,2.44-0.29,3.31-1.03c0.92-0.79,1.21-2.1,1.21-3.58c0-1.83-0.76-3.01-1.38-3.6
	c-1.32-1.26-2.96-1.44-4.08-1.44c-0.29,0-0.82,0.05-0.94,0.1c-0.13,0.06-0.17,0.13-0.17,0.29c-0.02,0.48-0.02,1.73-0.02,2.87V127.7z
	"/>
<path class="st3" d="M17.79,126.12c0-2.19,0-2.59-0.03-3.05c-0.03-0.49-0.15-0.72-0.62-0.82c-0.12-0.03-0.36-0.05-0.56-0.05
	c-0.16,0-0.24-0.03-0.24-0.13c0-0.1,0.1-0.13,0.31-0.13c0.39,0,0.8,0.02,1.17,0.02c0.37,0.02,0.71,0.03,0.91,0.03
	c0.46,0,3.32,0,3.59-0.01c0.27-0.03,0.51-0.06,0.62-0.08c0.07-0.02,0.16-0.06,0.23-0.06c0.07,0,0.08,0.06,0.08,0.13
	c0,0.09-0.07,0.27-0.12,0.94c-0.01,0.14-0.04,0.78-0.07,0.95c-0.02,0.07-0.04,0.16-0.14,0.16c-0.1,0-0.13-0.07-0.13-0.2
	c0-0.1-0.02-0.35-0.09-0.52c-0.1-0.25-0.24-0.43-0.96-0.51c-0.24-0.04-1.75-0.06-2.04-0.06c-0.07,0-0.1,0.04-0.1,0.14v3.64
	c0,0.1,0.02,0.16,0.1,0.16c0.31,0,1.97,0,2.3-0.03c0.34-0.03,0.56-0.07,0.69-0.22c0.1-0.12,0.16-0.19,0.23-0.19
	c0.06,0,0.1,0.03,0.1,0.12c0,0.08-0.07,0.31-0.12,1.05c-0.03,0.28-0.06,0.86-0.06,0.96c0,0.12,0,0.27-0.13,0.27
	c-0.1,0-0.13-0.06-0.13-0.13c-0.01-0.15-0.01-0.33-0.05-0.52c-0.07-0.28-0.27-0.5-0.81-0.56c-0.27-0.03-1.69-0.04-2.04-0.04
	c-0.07,0-0.08,0.05-0.08,0.14v1.14c0,0.48-0.02,1.81,0,2.23c0.03,0.99,0.26,1.21,1.72,1.21c0.37,0,0.98,0,1.35-0.17
	c0.37-0.17,0.55-0.47,0.65-1.07c0.03-0.16,0.06-0.21,0.16-0.21c0.12,0,0.12,0.11,0.12,0.25c0,0.33-0.12,1.31-0.19,1.59
	c-0.1,0.38-0.23,0.38-0.77,0.38c-1.08,0-1.87-0.03-2.49-0.05c-0.62-0.03-1.07-0.04-1.5-0.04c-0.16,0-0.47,0.01-0.82,0.01
	c-0.33,0.01-0.7,0.03-0.99,0.03c-0.18,0-0.28-0.04-0.28-0.14c0-0.07,0.06-0.12,0.23-0.12c0.22,0,0.39-0.03,0.52-0.05
	c0.29-0.06,0.36-0.38,0.41-0.79c0.07-0.6,0.07-1.74,0.07-3.06V126.12z"/>
<path class="st3" d="M35.73,131.46c-1.41-1.24-1.78-2.85-1.78-4.25c0-0.98,0.3-2.67,1.68-3.94c1.03-0.95,2.4-1.52,4.54-1.52
	c0.89,0,1.42,0.06,2.08,0.14c0.55,0.07,1.01,0.2,1.44,0.25c0.16,0.02,0.22,0.08,0.22,0.17c0,0.12-0.05,0.28-0.07,0.79
	c-0.03,0.47-0.01,1.26-0.04,1.55c-0.02,0.22-0.05,0.33-0.17,0.33c-0.12,0-0.14-0.11-0.14-0.32c-0.02-0.45-0.2-0.95-0.56-1.32
	c-0.47-0.5-1.59-0.89-2.92-0.89c-1.25,0-2.07,0.32-2.7,0.89c-1.05,0.97-1.32,2.33-1.32,3.72c0,3.42,2.6,5.12,4.53,5.12
	c1.28,0,2.06-0.14,2.63-0.8c0.25-0.27,0.43-0.69,0.49-0.95c0.04-0.23,0.07-0.28,0.19-0.28c0.1,0,0.13,0.1,0.13,0.21
	c0,0.17-0.17,1.42-0.32,1.92c-0.07,0.24-0.13,0.31-0.37,0.42c-0.57,0.23-1.67,0.33-2.58,0.33
	C38.69,133.02,37.04,132.59,35.73,131.46"/>
<path class="st3" d="M49.74,129.07c-0.07,0-0.1,0.03-0.13,0.12l-0.78,2.05c-0.14,0.36-0.22,0.7-0.22,0.88
	c0,0.26,0.13,0.44,0.57,0.44h0.22c0.17,0,0.22,0.03,0.22,0.12c0,0.11-0.08,0.14-0.24,0.14c-0.46,0-1.08-0.04-1.52-0.04
	c-0.16,0-0.95,0.04-1.7,0.04c-0.18,0-0.27-0.03-0.27-0.14c0-0.08,0.06-0.12,0.17-0.12c0.13,0,0.33-0.01,0.45-0.03
	c0.66-0.08,0.94-0.57,1.22-1.29l3.61-9.03c0.17-0.41,0.26-0.57,0.4-0.57c0.13,0,0.22,0.13,0.36,0.46c0.34,0.79,2.64,6.66,3.56,8.84
	c0.55,1.29,0.96,1.5,1.27,1.57c0.22,0.04,0.43,0.05,0.6,0.05c0.12,0,0.18,0.01,0.18,0.12c0,0.11-0.13,0.14-0.66,0.14
	c-0.52,0-1.57,0-2.72-0.03c-0.26-0.01-0.43-0.01-0.43-0.11c0-0.08,0.06-0.12,0.21-0.13c0.1-0.03,0.2-0.16,0.13-0.33l-1.15-3.04
	c-0.03-0.07-0.07-0.1-0.15-0.1H49.74z M52.68,128.35c0.07,0,0.09-0.05,0.07-0.09l-1.29-3.55c-0.02-0.05-0.03-0.12-0.07-0.12
	c-0.04,0-0.07,0.07-0.08,0.12l-1.33,3.54c-0.02,0.06,0,0.1,0.06,0.1H52.68z"/>
<path class="st3" d="M60.95,126.12c0-2.19,0-2.59-0.03-3.05c-0.03-0.49-0.14-0.72-0.62-0.82c-0.12-0.03-0.36-0.05-0.56-0.05
	c-0.16,0-0.25-0.03-0.25-0.13c0-0.1,0.1-0.13,0.32-0.13c0.76,0,1.67,0.04,2.04,0.04c0.34,0,1.25-0.04,1.81-0.04
	c0.2,0,0.3,0.03,0.3,0.13c0,0.1-0.08,0.13-0.26,0.13c-0.16,0-0.25,0.02-0.41,0.05c-0.39,0.07-0.51,0.31-0.54,0.82
	c-0.03,0.46-0.03,0.87-0.03,3.05v2.66c0,0.62,0.04,1.31,0.04,2.03c0,0.82-0.06,1.74-0.35,2.55c-0.3,0.87-1.06,1.87-2.44,2.71
	c-0.19,0.11-0.42,0.23-0.73,0.37c-0.1,0.05-0.21,0.08-0.28,0.08c-0.06,0-0.12-0.04-0.12-0.12c0-0.07,0.07-0.13,0.32-0.25
	c0.19-0.1,0.41-0.26,0.69-0.55c1.09-1.1,1.08-2.54,1.08-5.36V126.12z"/>
<path class="st3" d="M69.24,129.07c-0.07,0-0.1,0.03-0.13,0.12l-0.78,2.05c-0.14,0.36-0.22,0.7-0.22,0.88
	c0,0.26,0.13,0.44,0.58,0.44h0.22c0.17,0,0.22,0.03,0.22,0.12c0,0.11-0.08,0.14-0.25,0.14c-0.46,0-1.08-0.04-1.52-0.04
	c-0.16,0-0.95,0.04-1.7,0.04c-0.19,0-0.27-0.03-0.27-0.14c0-0.08,0.06-0.12,0.17-0.12c0.13,0,0.33-0.01,0.44-0.03
	c0.66-0.08,0.94-0.57,1.22-1.29l3.61-9.03c0.17-0.41,0.26-0.57,0.4-0.57c0.13,0,0.22,0.13,0.36,0.46c0.35,0.79,2.64,6.66,3.57,8.84
	c0.54,1.29,0.96,1.5,1.26,1.57c0.22,0.04,0.43,0.05,0.61,0.05c0.12,0,0.19,0.01,0.19,0.12c0,0.11-0.13,0.14-0.66,0.14
	c-0.52,0-1.57,0-2.72-0.03c-0.26-0.01-0.43-0.01-0.43-0.11c0-0.08,0.05-0.12,0.2-0.13c0.1-0.03,0.2-0.16,0.13-0.33l-1.15-3.04
	c-0.03-0.07-0.07-0.1-0.14-0.1H69.24z M72.17,128.35c0.07,0,0.08-0.05,0.07-0.09l-1.3-3.55c-0.01-0.05-0.03-0.12-0.07-0.12
	c-0.05,0-0.07,0.07-0.09,0.12l-1.32,3.54c-0.01,0.06,0,0.1,0.06,0.1H72.17z"/>
<path class="st3" d="M81.27,122.01c0.04-0.24,0.13-0.37,0.24-0.37c0.12,0,0.21,0.07,0.39,0.44l3.93,8.12l3.91-8.22
	c0.1-0.23,0.19-0.34,0.32-0.34c0.13,0,0.22,0.15,0.26,0.44l1.3,8.89c0.13,0.91,0.27,1.32,0.7,1.45c0.42,0.14,0.7,0.15,0.89,0.15
	c0.13,0,0.23,0.02,0.23,0.1c0,0.12-0.17,0.16-0.37,0.16c-0.36,0-2.34-0.04-2.92-0.08c-0.33-0.03-0.42-0.07-0.42-0.16
	c0-0.07,0.06-0.12,0.16-0.17c0.08-0.03,0.13-0.21,0.07-0.61l-0.86-6.33h-0.06L85.91,132c-0.33,0.68-0.4,0.8-0.53,0.8
	c-0.13,0-0.27-0.29-0.51-0.72c-0.34-0.66-1.48-2.86-1.65-3.26c-0.13-0.3-0.99-2.11-1.5-3.19h-0.06l-0.74,5.72
	c-0.03,0.26-0.05,0.45-0.05,0.68c0,0.27,0.19,0.4,0.43,0.46c0.26,0.06,0.46,0.07,0.6,0.07c0.11,0,0.21,0.03,0.21,0.1
	c0,0.13-0.13,0.16-0.35,0.16c-0.6,0-1.25-0.04-1.51-0.04c-0.27,0-0.96,0.04-1.42,0.04c-0.14,0-0.25-0.03-0.25-0.16
	c0-0.07,0.08-0.1,0.23-0.1c0.12,0,0.22,0,0.43-0.04c0.4-0.08,0.51-0.64,0.59-1.14L81.27,122.01z"/>
<path class="st3" d="M98.17,129.07c-0.07,0-0.1,0.03-0.13,0.12l-0.78,2.05c-0.14,0.36-0.22,0.7-0.22,0.88
	c0,0.26,0.13,0.44,0.57,0.44h0.22c0.17,0,0.22,0.03,0.22,0.12c0,0.11-0.09,0.14-0.25,0.14c-0.46,0-1.08-0.04-1.52-0.04
	c-0.16,0-0.95,0.04-1.7,0.04c-0.18,0-0.27-0.03-0.27-0.14c0-0.08,0.06-0.12,0.17-0.12c0.13,0,0.34-0.01,0.45-0.03
	c0.66-0.08,0.94-0.57,1.22-1.29l3.61-9.03c0.17-0.41,0.26-0.57,0.4-0.57c0.13,0,0.21,0.13,0.36,0.46c0.34,0.79,2.64,6.66,3.57,8.84
	c0.54,1.29,0.96,1.5,1.26,1.57c0.22,0.04,0.43,0.05,0.6,0.05c0.11,0,0.18,0.01,0.18,0.12c0,0.11-0.13,0.14-0.66,0.14
	c-0.52,0-1.57,0-2.72-0.03c-0.26-0.01-0.44-0.01-0.44-0.11c0-0.08,0.06-0.12,0.2-0.13c0.1-0.03,0.2-0.16,0.13-0.33l-1.15-3.04
	c-0.03-0.07-0.07-0.1-0.15-0.1H98.17z M101.11,128.35c0.07,0,0.08-0.05,0.07-0.09l-1.29-3.55c-0.02-0.05-0.03-0.12-0.07-0.12
	c-0.04,0-0.07,0.07-0.09,0.12l-1.32,3.54c-0.02,0.06,0,0.1,0.06,0.1H101.11z"/>
<path class="st3" d="M109.38,126.12c0-2.18,0-2.59-0.03-3.05c-0.03-0.49-0.14-0.72-0.61-0.82c-0.12-0.03-0.36-0.05-0.56-0.05
	c-0.16,0-0.25-0.03-0.25-0.13c0-0.09,0.1-0.13,0.32-0.13c0.76,0,1.67,0.04,1.97,0.04c0.49,0,1.58-0.04,2.03-0.04
	c0.9,0,1.87,0.09,2.64,0.62c0.4,0.27,0.98,1,0.98,1.97c0,1.07-0.45,2.04-1.9,3.22c1.28,1.61,2.27,2.89,3.12,3.78
	c0.81,0.83,1.4,0.93,1.61,0.98c0.16,0.03,0.29,0.04,0.4,0.04c0.12,0,0.17,0.05,0.17,0.12c0,0.11-0.1,0.14-0.27,0.14h-1.36
	c-0.81,0-1.17-0.06-1.54-0.27c-0.62-0.33-1.17-1-1.97-2.11c-0.57-0.79-1.24-1.77-1.42-1.99c-0.07-0.08-0.16-0.1-0.26-0.1l-1.25-0.03
	c-0.07,0-0.11,0.03-0.11,0.12v0.2c0,1.33,0,2.48,0.07,3.08c0.04,0.42,0.13,0.73,0.56,0.79c0.22,0.03,0.53,0.05,0.7,0.05
	c0.11,0,0.17,0.05,0.17,0.12c0,0.1-0.1,0.14-0.3,0.14c-0.83,0-1.89-0.04-2.11-0.04c-0.27,0-1.18,0.04-1.75,0.04
	c-0.18,0-0.29-0.04-0.29-0.14c0-0.07,0.06-0.12,0.23-0.12c0.22,0,0.39-0.03,0.51-0.05c0.29-0.06,0.36-0.37,0.42-0.79
	c0.07-0.6,0.07-1.74,0.07-3.06V126.12z M111.09,127.26c0,0.15,0.03,0.21,0.12,0.25c0.3,0.1,0.74,0.15,1.09,0.15
	c0.58,0,0.77-0.06,1.03-0.25c0.43-0.32,0.85-0.98,0.85-2.16c0-2.04-1.35-2.63-2.2-2.63c-0.36,0-0.62,0.02-0.76,0.06
	c-0.1,0.03-0.12,0.09-0.12,0.2V127.26z"/>
<path class="st3" d="M122.11,131.46c-1.41-1.24-1.79-2.85-1.79-4.25c0-0.98,0.31-2.67,1.68-3.94c1.04-0.95,2.4-1.52,4.54-1.52
	c0.89,0,1.43,0.06,2.09,0.14c0.54,0.07,1,0.2,1.44,0.25c0.16,0.02,0.22,0.08,0.22,0.17c0,0.12-0.05,0.28-0.07,0.79
	c-0.03,0.47-0.02,1.26-0.04,1.55c-0.02,0.22-0.05,0.33-0.18,0.33c-0.11,0-0.14-0.11-0.14-0.32c-0.02-0.45-0.21-0.95-0.56-1.32
	c-0.48-0.5-1.6-0.89-2.92-0.89c-1.26,0-2.08,0.32-2.71,0.89c-1.05,0.97-1.32,2.33-1.32,3.72c0,3.42,2.6,5.12,4.52,5.12
	c1.28,0,2.06-0.14,2.64-0.8c0.24-0.27,0.43-0.69,0.48-0.95c0.05-0.23,0.07-0.28,0.19-0.28c0.1,0,0.13,0.1,0.13,0.21
	c0,0.17-0.17,1.42-0.32,1.92c-0.07,0.24-0.13,0.31-0.37,0.42c-0.58,0.23-1.67,0.33-2.59,0.33
	C125.07,133.02,123.42,132.59,122.11,131.46"/>
<path class="st3" d="M136.13,129.07c-0.07,0-0.11,0.03-0.13,0.12l-0.78,2.05c-0.14,0.36-0.22,0.7-0.22,0.88
	c0,0.26,0.13,0.44,0.58,0.44h0.22c0.17,0,0.22,0.03,0.22,0.12c0,0.11-0.09,0.14-0.25,0.14c-0.46,0-1.08-0.04-1.52-0.04
	c-0.16,0-0.95,0.04-1.7,0.04c-0.19,0-0.28-0.03-0.28-0.14c0-0.08,0.06-0.12,0.18-0.12c0.13,0,0.33-0.01,0.44-0.03
	c0.66-0.08,0.94-0.57,1.22-1.29l3.61-9.03c0.17-0.41,0.26-0.57,0.4-0.57c0.13,0,0.21,0.13,0.36,0.46c0.35,0.79,2.64,6.66,3.57,8.84
	c0.54,1.29,0.96,1.5,1.26,1.57c0.22,0.04,0.43,0.05,0.6,0.05c0.12,0,0.18,0.01,0.18,0.12c0,0.11-0.13,0.14-0.66,0.14
	c-0.52,0-1.56,0-2.71-0.03c-0.26-0.01-0.43-0.01-0.43-0.11c0-0.08,0.05-0.12,0.2-0.13c0.1-0.03,0.2-0.16,0.13-0.33l-1.15-3.04
	c-0.03-0.07-0.07-0.1-0.14-0.1H136.13z M139.06,128.35c0.07,0,0.09-0.05,0.07-0.09l-1.29-3.55c-0.02-0.05-0.03-0.12-0.07-0.12
	c-0.04,0-0.07,0.07-0.08,0.12l-1.32,3.54c-0.01,0.06,0,0.1,0.06,0.1H139.06z"/>
<path class="st3" d="M30.46,105.18c-0.21,0-0.3,0.09-0.38,0.34l-2.27,6c-0.42,1.05-0.63,2.06-0.63,2.56c0,0.76,0.37,1.3,1.68,1.3
	h0.63c0.5,0,0.63,0.08,0.63,0.34c0,0.33-0.25,0.42-0.71,0.42c-1.35,0-3.15-0.12-4.45-0.12c-0.46,0-2.76,0.12-4.95,0.12
	c-0.54,0-0.8-0.09-0.8-0.42c0-0.25,0.17-0.34,0.51-0.34c0.37,0,0.96-0.04,1.3-0.08c1.93-0.25,2.73-1.68,3.57-3.78l10.53-26.36
	c0.51-1.21,0.76-1.68,1.17-1.68c0.38,0,0.63,0.38,1.05,1.35c1.01,2.3,7.72,19.43,10.41,25.81c1.6,3.78,2.81,4.36,3.7,4.57
	c0.62,0.13,1.26,0.17,1.76,0.17c0.34,0,0.55,0.04,0.55,0.34c0,0.33-0.38,0.42-1.93,0.42c-1.51,0-4.58,0-7.94-0.09
	c-0.75-0.04-1.26-0.04-1.26-0.33c0-0.25,0.17-0.34,0.59-0.38c0.29-0.08,0.59-0.46,0.38-0.97l-3.36-8.89
	c-0.08-0.21-0.21-0.3-0.42-0.3H30.46z M39.02,103.09c0.21,0,0.25-0.13,0.21-0.26l-3.77-10.36c-0.04-0.17-0.08-0.38-0.21-0.38
	c-0.13,0-0.21,0.21-0.25,0.38l-3.86,10.32c-0.04,0.17,0,0.3,0.17,0.3H39.02z"/>
<path class="st3" d="M58.86,111.96c0.06,2.39,0.46,3.18,1.07,3.39c0.51,0.18,1.1,0.22,1.59,0.22c0.34,0,0.52,0.06,0.52,0.25
	c0,0.24-0.28,0.3-0.71,0.3c-1.99,0-3.21-0.09-3.79-0.09c-0.27,0-1.71,0.09-3.3,0.09c-0.39,0-0.67-0.03-0.67-0.3
	c0-0.19,0.18-0.25,0.48-0.25c0.4,0,0.95-0.04,1.37-0.16c0.8-0.24,0.92-1.13,0.95-3.78l0.27-18.08c0-0.61,0.09-1.04,0.4-1.04
	c0.34,0,0.61,0.4,1.13,0.95c0.37,0.39,5,5.37,9.46,9.8c2.08,2.07,6.2,6.47,6.72,6.96h0.16l-0.31-13.71
	c-0.03-1.87-0.31-2.44-1.04-2.75c-0.46-0.18-1.19-0.18-1.62-0.18c-0.37,0-0.49-0.09-0.49-0.27c0-0.24,0.34-0.27,0.79-0.27
	c1.59,0,3.05,0.09,3.7,0.09c0.34,0,1.49-0.09,2.99-0.09c0.4,0,0.7,0.03,0.7,0.27c0,0.18-0.18,0.27-0.55,0.27
	c-0.31,0-0.55,0-0.91,0.09c-0.86,0.25-1.1,0.89-1.13,2.6l-0.34,19.26c0,0.67-0.12,0.95-0.4,0.95c-0.33,0-0.7-0.34-1.04-0.67
	c-1.92-1.84-5.83-5.83-9-8.98c-3.33-3.3-6.72-7.12-7.27-7.7h-0.09L58.86,111.96z"/>
<path class="st3" d="M86.06,101.88c0-4.65,0-5.5-0.06-6.47c-0.06-1.04-0.31-1.53-1.31-1.75c-0.25-0.06-0.76-0.09-1.19-0.09
	c-0.34,0-0.51-0.06-0.51-0.27c0-0.22,0.21-0.27,0.67-0.27c1.62,0,3.54,0.08,4.4,0.08c0.95,0,2.87-0.08,4.71-0.08
	c3.81,0,8.91,0,12.24,3.48c1.53,1.59,2.96,4.11,2.96,7.76c0,3.84-1.62,6.78-3.33,8.51c-1.4,1.44-4.58,3.61-10.23,3.61
	c-1.1,0-2.35-0.09-3.51-0.19c-1.16-0.09-2.23-0.18-2.99-0.18c-0.34,0-1.01,0.03-1.75,0.03c-0.7,0.03-1.49,0.06-2.1,0.06
	c-0.4,0-0.62-0.09-0.62-0.3c0-0.16,0.12-0.25,0.49-0.25c0.46,0,0.82-0.06,1.1-0.12c0.61-0.13,0.76-0.8,0.88-1.68
	c0.15-1.29,0.15-3.7,0.15-6.5V101.88z M89.88,105.24c0,3.24,0.03,5.59,0.06,6.17c0.03,0.76,0.09,1.98,0.33,2.32
	c0.4,0.58,1.59,1.22,4,1.22c3.11,0,5.19-0.6,7.02-2.2c1.95-1.68,2.57-4.45,2.57-7.6c0-3.88-1.62-6.38-2.93-7.63
	c-2.81-2.69-6.29-3.06-8.67-3.06c-0.61,0-1.75,0.09-1.99,0.22c-0.27,0.12-0.36,0.28-0.36,0.61c-0.03,1.04-0.03,3.7-0.03,6.11V105.24
	z"/>
<path class="st3" d="M114.34,101.88c0-4.65,0-5.5-0.06-6.47c-0.06-1.04-0.31-1.53-1.31-1.75c-0.24-0.06-0.76-0.09-1.19-0.09
	c-0.34,0-0.53-0.06-0.53-0.27c0-0.22,0.22-0.27,0.67-0.27c0.82,0,1.71,0.03,2.47,0.03c0.8,0.03,1.5,0.05,1.93,0.05
	c0.98,0,7.05,0,7.63-0.03c0.58-0.06,1.07-0.12,1.31-0.18c0.15-0.03,0.34-0.13,0.49-0.13c0.15,0,0.18,0.13,0.18,0.28
	c0,0.21-0.15,0.58-0.24,1.98c-0.04,0.3-0.09,1.65-0.16,2.01c-0.03,0.15-0.09,0.34-0.31,0.34c-0.22,0-0.27-0.15-0.27-0.43
	c0-0.22-0.03-0.73-0.18-1.1c-0.22-0.55-0.52-0.91-2.05-1.1c-0.52-0.06-3.72-0.12-4.33-0.12c-0.15,0-0.22,0.09-0.22,0.31v7.72
	c0,0.21,0.03,0.34,0.22,0.34c0.67,0,4.18,0,4.88-0.07c0.74-0.06,1.19-0.15,1.47-0.45c0.21-0.25,0.33-0.41,0.48-0.41
	c0.13,0,0.21,0.07,0.21,0.25c0,0.18-0.15,0.67-0.24,2.22c-0.06,0.61-0.12,1.83-0.12,2.05c0,0.24,0,0.58-0.27,0.58
	c-0.22,0-0.28-0.12-0.28-0.28c-0.03-0.3-0.03-0.7-0.12-1.09c-0.15-0.61-0.58-1.07-1.71-1.19c-0.58-0.06-3.61-0.09-4.34-0.09
	c-0.15,0-0.18,0.12-0.18,0.31v2.41c0,1.05-0.03,3.85,0,4.74c0.06,2.11,0.55,2.56,3.66,2.56c0.8,0,2.08,0,2.87-0.36
	c0.79-0.36,1.16-1.01,1.37-2.26c0.06-0.34,0.13-0.45,0.34-0.45c0.24,0,0.24,0.24,0.24,0.55c0,0.7-0.24,2.78-0.39,3.39
	c-0.22,0.79-0.49,0.79-1.65,0.79c-2.29,0-3.97-0.06-5.28-0.09c-1.31-0.06-2.27-0.09-3.18-0.09c-0.34,0-1.01,0.03-1.74,0.03
	c-0.7,0.03-1.49,0.06-2.1,0.06c-0.4,0-0.61-0.09-0.61-0.3c0-0.16,0.12-0.25,0.49-0.25c0.46,0,0.82-0.06,1.09-0.12
	c0.61-0.12,0.77-0.79,0.89-1.68c0.15-1.28,0.15-3.7,0.15-6.51V101.88z"/>
<path class="st3" d="M131.95,115.75c-0.49-0.22-0.58-0.37-0.58-1.04c0-1.68,0.12-3.51,0.15-4c0.03-0.46,0.13-0.8,0.37-0.8
	c0.27,0,0.3,0.28,0.3,0.52c0,0.4,0.12,1.04,0.27,1.56c0.67,2.25,2.47,3.09,4.36,3.09c2.75,0,4.1-1.87,4.1-3.49
	c0-1.5-0.46-2.93-2.99-4.88l-1.41-1.1c-3.35-2.63-4.52-4.76-4.52-7.24c0-3.35,2.81-5.77,7.05-5.77c1.99,0,3.28,0.31,4.07,0.52
	c0.27,0.06,0.43,0.15,0.43,0.37c0,0.4-0.13,1.28-0.13,3.66c0,0.67-0.09,0.91-0.34,0.91c-0.21,0-0.3-0.18-0.3-0.55
	c0-0.27-0.15-1.23-0.8-2.02c-0.45-0.58-1.34-1.49-3.33-1.49c-2.26,0-3.63,1.31-3.63,3.14c0,1.4,0.7,2.48,3.24,4.39l0.85,0.65
	c3.67,2.83,5.01,4.88,5.01,7.78c0,1.78-0.67,3.88-2.87,5.31c-1.53,0.98-3.24,1.26-4.86,1.26
	C134.64,116.54,133.27,116.32,131.95,115.75"/>
</svg>
