<?xml version="1.0" encoding="utf-8"?>
<!-- Generator: Adobe Illustrator 23.0.4, SVG Export Plug-In . SVG Version: 6.00 Build 0)  -->
<svg version="1.1" id="Capa_1" xmlns="http://www.w3.org/2000/svg" xmlns:xlink="http://www.w3.org/1999/xlink" x="0px"
	y="0px" viewBox="0 0 147.06 86.37" style="enable-background:new 0 0 147.06 86.37;" xml:space="preserve">
	<style type="text/css">
		.st0 {
			fill-rule: evenodd;
			clip-rule: evenodd;
			fill: #5aa0db;
		}

		.st1 {
			clip-path: url(#SVGID_2_);
			fill: #5aa0db;
		}
	</style>
	<g>
		<g>
			<path class="st0" d="M14.39,42.6c-0.05-1.09-0.13-2.1-0.13-3.11c-0.01-8.17-0.01-16.33,0-24.5c0-1.59,0.04-1.59-1.55-1.69
			c-0.17-0.01-0.34,0-0.52-0.12c-1.19-0.76-1.63-3.41-0.75-4.53c0.35-0.45,0.76-0.68,1.32-0.68c3.3,0.03,6.61,0.13,9.91,0.05
			c1.73-0.04,3.48-0.02,5.22-0.17c0.67-0.06,1.63-0.22,2.11,0.79c0.55,1.17,0.62,2.19,0,2.94c-0.18,0.22-0.28,0.46-0.32,0.75
			c-0.09,0.6-0.24,1.16-1.07,0.98c-0.33-0.07-0.36,0.1-0.34,0.42c0.32,5.28,0.15,10.55,0.03,15.83c-0.09,3.96,0,7.92-0.07,11.88
			c-0.02,0.85,0.16,1.26,1.17,1.18c1.52-0.12,3.07-0.09,4.6-0.09c0.52,0,0.7-0.2,0.69-0.71c-0.04-5.43,0.05-10.86-0.14-16.29
			c-0.12-3.5,0.01-7,0.14-10.49c0-0.03,0-0.06,0.01-0.09c0.24-1.62,0.24-1.62-1.38-1.65c-1.18-0.02-1.88-1.58-1.28-2.89
			c0.11-0.25,0.37-0.47,0.39-0.72c0.16-1.68,1.22-1.78,2.61-1.75c4.82,0.12,9.63-0.1,14.44-0.33c0.31-0.01,0.62-0.04,0.76,0.34
			c0.35,0.94,1.15,1.66,1.11,2.82c-0.03,0.98-0.59,2.26-1.51,2.6c-0.56,0.21-0.81,0.46-0.66,1.19c0.19,0.95,0.08,1.96,0.08,2.94
			c0,2.83,0,5.65,0,8.48c0.01,5.26,0.02,10.52,0.02,15.77c0,0.2-0.07,0.4-0.13,0.68h6.14c0.35,0,0.59-0.1,0.3-0.47
			c-0.23-0.29-0.25-0.61-0.25-0.95c-0.03-8.5-0.06-17.01-0.08-25.51c0-0.55,0.02-1.11,0.09-1.65c0.06-0.44-0.03-0.56-0.5-0.57
			c-1.98-0.06-2.01-0.07-2.38-2.01c-0.19-1.04-0.33-2.11,0.22-3.14c0.21-0.39,0.39-0.55,0.82-0.53c5.34,0.28,10.67-0.12,16.01-0.01
			C70,7.6,70.48,7.46,70.95,7.44C71.81,7.41,72.17,8,72.27,9.2c0.13,1.42-0.24,2.69-1.01,3.87c-0.09,0.15-0.18,0.26-0.33,0.23
			c-0.95-0.19-0.71,0.46-0.71,0.96c0.01,6.97,0,13.94,0.04,20.91c0.01,2.21,0.13,4.41,0.17,6.62c0.01,0.49,0.17,0.64,0.64,0.63
			c1.41-0.02,2.83-0.05,4.24,0.01c0.68,0.03,0.86-0.14,0.86-0.85c-0.03-5.22-0.02-10.44-0.02-15.66c0-3.71,0.02-7.43,0.02-11.15
			c0-0.46,0.03-0.92,0.16-1.36c-0.27-0.2-0.55-0.11-0.81-0.11c-1.28-0.01-1.84-0.62-2.17-1.86c-0.38-1.44,0.19-2.56,0.87-3.7
			c0.08-0.14,0.1-0.35,0.37-0.31c2.22,0.34,4.45,0.1,6.67,0.14c3.28,0.05,6.57-0.01,9.85,0.17c0.86,0.05,1.18,0.73,1.27,1.22
			c0.26,1.38,0.51,2.83-0.38,4.14c-0.07,0.11,0,0.32-0.21,0.36c-1.04,0.2-0.93,0.98-0.92,1.74c0.03,6.14,0.01,12.28,0.1,18.42
			c0.03,1.96,0.08,3.93,0.08,5.89c0,0.73-0.09,1.46-0.19,2.18c-0.06,0.47,0.11,0.56,0.54,0.55c1.54-0.03,3.07-0.04,4.6,0
			c0.52,0.01,0.59-0.19,0.58-0.63c-0.06-6.17-0.12-12.33-0.16-18.5c-0.02-2.95-0.04-5.9-0.01-8.84c0.01-0.6-0.08-0.95-0.77-0.81
			c-0.3,0.06-0.56,0.01-0.68-0.3c-0.56-1.49-1.45-2.89-1.16-4.62C94,7.56,94.25,7.36,95.2,7.72c0.25,0.09,0.55,0.04,0.82,0.05
			c5.19,0.1,10.37-0.18,15.56-0.18c1.08,0,2.18,0.8,2.29,1.89c0.11,1.16,0.17,2.37-0.51,3.46c-0.2,0.33-0.45,0.57-0.77,0.52
			c-0.77-0.11-0.81,0.26-0.82,0.88c-0.01,6.63-0.01,13.26-0.12,19.89c-0.04,2.57,0.02,5.15-0.36,7.82c1.82,0,3.64-0.01,5.46,0
			c0.44,0,0.38-0.27,0.4-0.54c0.05-1.19-0.06-2.38-0.03-3.58c0.12-5.24,0.2-10.49,0.19-15.73c0-2.76,0.11-5.51,0.22-8.26
			c0.02-0.66-0.34-0.53-0.67-0.49c-1.09,0.11-2.15-0.75-1.99-1.82c0.18-1.19-0.27-2.42,0.25-3.6c0.16-0.38,0.34-0.49,0.72-0.48
			c4.85,0.02,9.7,0.12,14.55-0.01c1.38-0.04,2.73,0.41,4.12,0.11c0.39-0.08,0.54,0.31,0.65,0.64c0.62,1.75,0.37,3.35-0.8,4.8
			c-0.2,0.25-0.44,0.29-0.73,0.25c-0.55-0.07-1.09-0.09-1.66,0.02c0.26,0.95,0.26,1.9,0.26,2.84c0.01,2.05,0.02,4.09-0.12,6.14
			c-0.17,2.37,0.03,4.77,0.02,7.16c0,3.37-0.02,6.75-0.1,10.12c-0.02,0.69,0.31,1.37-0.01,2.08c-0.15,0.34,0.21,0.28,0.4,0.28
			c1.93-0.03,3.87,0,5.79-0.16c0.48-0.04,0.94-0.16,1.44-0.07c0.54,0.09,1.21-0.35,1.64,0.2c0.72,0.92,1.38,1.96,1.1,3.17
			c-0.27,1.15-0.18,2.39-0.82,3.45c-0.08,0.14-0.04,0.36-0.02,0.54c0.33,2.94,0.12,5.89,0.18,8.83c0.11,5.74,0.24,11.47,0.16,17.21
			c-0.02,1.26-0.22,1.53-1.47,1.77c-1.52,0.3-3.06,0.08-4.59,0.12c-5.09,0.13-10.18,0.42-15.26,0.31
			c-6.63-0.15-13.26-0.21-19.88-0.17c-9.7,0.05-19.4,0.11-29.1,0.02c-8.01-0.08-16.02-0.17-24.03-0.14
			c-4.26,0.02-8.53,0.2-12.79,0.12c-5.06-0.09-10.12-0.01-15.18-0.29c-2.38-0.13-4.78,0.03-7.16,0.06c-0.25,0-0.48-0.02-0.64,0.25
			c-0.17,0.3-0.53,0.32-0.72,0.15c-1.11-0.95-2.42-0.49-3.6-0.42C6.69,77,6.5,76.91,6.49,76.18C6.37,70.94,6.52,65.7,6.51,60.46
			c-0.01-3.61-0.06-7.23,0.02-10.84c0.03-1.32-0.01-2.61-0.18-3.92c-0.14-1.04,0.42-2.01,0.58-3.03c0.02-0.12,0.21-0.29,0.31-0.29
			c0.99,0.05,1.97-0.55,2.93-0.12c0.67,0.3,1.45-0.56,1.75-0.08c0.51,0.84,1.14,0.2,1.66,0.4C13.82,42.68,14.12,42.6,14.39,42.6
			 M127.41,69.81c0.13,0.27,0.32,0.13,0.43,0.02c0.94-0.9,1.93-1.77,2.51-2.96c0.1-0.21,0.59-0.46-0.04-0.74
			c-0.44-0.19-0.64-0.22-0.89,0.26c-0.61,1.17-1.16,2.39-2.01,3.42c0.04,0.06,0.08,0.12,0.11,0.18c0.02-0.02,0.04-0.04,0.06-0.06
			C127.53,69.89,127.47,69.85,127.41,69.81 M43.51,70.22c1.56,0.08,3.86-1.49,4.43-3.02c0.19-0.5,0.43-0.99,0.65-1.49
			c0.02-0.08,0.06-0.21,0.05-0.22c-0.12-0.06-0.11,0.06-0.13,0.13c-1.69,1.5-3.11,3.3-4.97,4.61c-0.05,0.04-0.1,0.08-0.16,0.12
			c0.03,0.01,0.06,0.04,0.08,0.03C43.55,70.37,43.58,70.31,43.51,70.22 M64.77,70.47c1.42-0.5,2.7-1.3,3.84-2.25
			c0.49-0.4,0.93-1.06,1.04-1.67c0.17-0.93,0.05-1.92,0.05-2.89c-1.59,2.36-2.99,4.78-5.13,6.65c-0.08,0.07-0.25,0.14-0.15,0.24
			C64.51,70.66,64.68,70.62,64.77,70.47 M15.52,42.23c3.66-4.38,7.67-8.48,10.63-13.46c-0.92-0.25-1.47,0-1.97,0.63
			c-2.58,3.23-5.16,6.46-7.81,9.63c-0.83,1-1.03,2.03-0.84,3.23c-0.05-0.01-0.09-0.02-0.14-0.03c0.01,0.04,0.01,0.08,0.02,0.12
			C15.46,42.31,15.49,42.27,15.52,42.23 M107.47,71.22c3.74,0.15,7.48-0.11,11.22-0.05c0.72,0.01,1.44,0,2.25,0
			c-0.29-0.61-0.77-0.83-1.17-1.12c-0.97-0.71-1.96-1.41-2.12-2.73c-0.08-0.73-0.11-1.46-0.12-2.19
			c-0.01-5.42-0.01-10.84-0.01-16.25h-5.92c0.09,2.05,0.29,4.06,0.25,6.06c-0.07,3.33,0.26,6.66-0.2,10
			c-0.15,1.1-0.14,2.16-0.89,3.05c-0.97,1.15-1.69,2.57-3.3,3.02c-0.18,0.08-0.36,0.17-0.64,0.3
			C107.15,71.36,107.32,71.33,107.47,71.22 M136.99,47.39c0.43,0,0.86,0,1.29,0c2.32-0.01,2.56-0.26,2.54-2.61
			c0-0.12,0.01-0.25-0.01-0.37c-0.15-1.09-0.57-1.47-1.68-1.44c-4.08,0.1-8.15,0.29-12.23,0.32c-6.9,0.06-13.8,0.02-20.7,0.02
			c-2.27,0-4.55,0.03-6.82,0.02c-1.3,0-2.56,0.27-3.89,0.13c-1.63-0.17-3.3,0.03-4.96,0.04c-1.62,0.02-3.26,0.08-4.88-0.01
			c-1.56-0.09-3.09,0.34-4.67,0.05c-0.83-0.15-1.71,0.05-2.57,0.05c-7.74,0.03-15.47,0.05-23.21,0.08
			c-3.56,0.01-7.12-0.06-10.68,0.06c-1.54,0.05-3.13-0.47-4.63,0.33c-0.11,0.06-0.41,0.01-0.42-0.04c-0.15-0.55-0.59-0.31-0.89-0.31
			c-5.11-0.01-10.22-0.01-15.33-0.01H10.63c-3.02,0-3.27,0.27-2.83,3.3c0.17,1.17,0.57,1.73,1.9,1.71
			c4.48-0.05,8.97-0.03,13.45-0.01c1.7,0.01,3.41,0.12,5.11,0.14c3.19,0.03,6.37-0.15,9.56-0.1c2.91,0.04,5.82-0.07,8.74-0.08
			c5.27-0.01,10.54,0.05,15.81-0.16c1.46-0.06,2.92-0.03,4.38-0.15c1.2-0.1,2.45,0.13,3.68,0.12c5.12-0.05,10.25-0.1,15.37-0.18
			c5.08-0.08,10.17-0.1,15.25-0.34c1.91-0.09,3.83-0.18,5.75-0.18c5.37-0.01,10.74,0.07,16.11-0.06
			C127.61,47.61,132.3,47.67,136.99,47.39 M84.26,76.32c5.58,0.25,11.16-0.05,16.74-0.12c9.02-0.13,18.05,0.02,27.07-0.21
			c2.54-0.07,5.09-0.13,7.63-0.18c0.3-0.01,0.52,0,0.51-0.42c-0.02-1.01,0-2.03,0.02-3.04c0.01-0.38-0.11-0.45-0.49-0.38
			c-2.54,0.45-5.13,0.41-7.7,0.44c-7.15,0.09-14.3-0.04-21.45-0.11c-15.2-0.13-30.39,0.01-45.59-0.11
			c-5.43-0.04-10.85-0.2-16.29-0.04c-4.35,0.12-8.71,0.1-13.06,0.1c-4.72,0-9.44-0.05-14.16-0.08c-1.38-0.01-2.76-0.08-4.14-0.07
			c-1.45,0.02-1.45,0.05-1.45,1.45c0,0.46,0.04,0.93-0.01,1.38c-0.08,0.67,0.11,0.89,0.83,0.87c2.18-0.08,4.36-0.18,6.53-0.07
			c4.79,0.23,9.57,0.11,14.36,0.22c4.94,0.11,9.88-0.03,14.82,0.11c5.27,0.16,10.55,0.15,15.83,0.24
			C70.94,76.4,77.61,76.32,84.26,76.32 M56.39,20.14h0.04c0,2.12-0.01,4.23,0.01,6.35c0,0.26-0.22,0.71,0.45,0.58
			c1.6-0.31,3.21,0.04,4.8,0.12c2.14,0.1,4.27,0.11,6.41,0.1c0.66,0,0.9-0.28,0.9-1c0.04-4.17-0.19-8.34,0.14-12.5
			c0.04-0.46-0.17-0.49-0.52-0.48c-0.89,0.02-1.78,0.01-2.67,0.01c-2.97,0-5.95-0.01-8.92,0.01c-0.23,0-0.67-0.31-0.66,0.39
			C56.42,15.85,56.39,17.99,56.39,20.14 M102.78,13.39v0.08c-1.5,0-3.01,0.01-4.51-0.01c-0.42-0.01-0.59,0.07-0.58,0.54
			c0.02,0.86-0.08,1.71-0.07,2.57c0.02,3.1,0.06,6.19,0.09,9.28c0.01,1.43,0,1.43,1.43,1.26c0.21-0.02,0.43-0.06,0.64-0.07
			c3.3-0.08,6.6-0.36,9.87,0.32c0.62,0.13,0.77-0.02,0.79-0.66c0.05-1.57-0.17-3.13-0.17-4.69c0-2.62,0.03-5.25,0.08-7.87
			c0.01-0.59-0.16-0.79-0.77-0.78C107.31,13.41,105.04,13.39,102.78,13.39 M27.22,20.63c0.07-2.32-0.09-4.55,0.1-6.79
			c0.04-0.48-0.25-0.46-0.58-0.46c-3.58,0.03-7.17,0.06-10.75,0.07c-0.41,0-0.56,0.07-0.58,0.55c-0.17,4.23,0.08,8.46,0.01,12.69
			c-0.01,0.44,0.07,0.62,0.58,0.67c2.23,0.21,4.45,0.38,6.69,0.25c1.19-0.07,2.4-0.18,3.58-0.09c0.83,0.07,0.89-0.21,0.88-0.9
			C27.13,24.6,27.06,22.57,27.22,20.63 M48.22,13.3c-4.04,0-8.08,0.01-12.13-0.01c-0.87-0.01-0.71,0.66-0.58,0.98
			c0.34,0.84,0.28,1.68,0.28,2.53c0,2.88-0.02,5.77-0.02,8.65c0,1.44,0.02,1.44,1.41,1.5c0.43,0.02,0.86,0.02,1.28,0.09
			c0.63,0.1,1.12,0.03,1.34-0.68c0.06-0.19,0.23-0.39,0.49-0.32c0.24,0.06,0.33,0.26,0.29,0.5c-0.1,0.56,0.3,0.41,0.56,0.38
			c1.62-0.18,3.24,0.08,4.86,0.01c0.64-0.02,1.28,0.05,1.9,0.08C48.27,22.5,47.64,17.93,48.22,13.3 M123.4,13.38v0.08
			c-1.38,0-2.76,0.03-4.14-0.01c-0.54-0.02-0.69,0.16-0.66,0.67c0.06,0.89,0.15,1.78,0.09,2.66c-0.22,3.12,0.01,6.25-0.12,9.36
			c-0.04,1.08,0.67,1.31,1.22,1.26c0.71-0.07,1.46,0.15,2.13-0.13c0.79-0.33,1.6-0.35,2.43-0.33c0.42,0.01,0.77-0.05,1-0.49
			c0.26-0.5,0.66-0.46,0.86,0.02c0.16,0.37,0.35,0.28,0.56,0.2c1-0.38,2.04-0.31,3.06-0.26c0.8,0.04,1.1-0.2,1.03-1.02
			c-0.24-3.09,0.27-6.16,0.1-9.26c-0.04-0.67-0.07-1.38,0.11-2.01c0.24-0.82-0.16-0.75-0.7-0.74
			C128.06,13.39,125.73,13.38,123.4,13.38 M83.71,13.38c-1.72,0-3.25,0-4.79,0c-0.52,0-1.22-0.25-1.5,0c-0.36,0.31,0.01,1,0.01,1.54
			c-0.06,3.77-0.18,7.53-0.03,11.3c0.02,0.55,0.11,0.69,0.69,0.65c1.13-0.07,2.08-0.81,3.33-0.52c1.92,0.44,3.95,0.21,5.88,0.73
			c0.36,0.1,0.55-0.09,0.79-0.31c0.46-0.42,0.92-0.54,1.14,0.25c0.04,0.15,0.01,0.32,0.23,0.3c0.26-0.02,0.27-0.23,0.24-0.4
			c-0.15-0.86,0.08-1.7,0.08-2.55c0.02-3.43,0-6.86,0.04-10.29c0-0.57-0.2-0.63-0.68-0.63C87.26,13.45,85.39,13.54,83.71,13.38
			 M38.17,71.18c-1.69-1.36-3.25-2.58-3.42-4.8c-0.06-0.78-0.06-1.55-0.05-2.33c0.03-2.52,0.03-5.03,0-7.55
			c-0.03-2.09,0.07-4.17,0.17-6.25c0.02-0.51-0.11-0.69-0.65-0.67c-1.47,0.04-2.95,0.01-4.42,0.03c-0.48,0.01-1.08-0.06-1.42,0.19
			c-0.44,0.32,0.02,0.91,0.02,1.38c-0.01,4.17,0,8.35-0.01,12.52c0,0.24,0,0.51-0.11,0.71c-0.81,1.59-1.23,3.38-2.45,4.77
			c-0.49,0.55-0.9,1.18-1.66,1.81C28.96,70.86,33.48,71.12,38.17,71.18 M100.28,71.34c-0.71-0.73-1.3-1.4-2.03-1.96
			c-0.6-0.45-0.91-1.12-1.1-1.86c-0.33-1.29-0.31-2.61-0.33-3.92c-0.05-4.39-0.03-8.78-0.04-13.17c0-0.21-0.02-0.44,0.03-0.64
			c0.08-0.32,0.16-0.74,0.58-0.71c0.4,0.03,0.49,0.39,0.49,0.76c-0.01,0.6,0,1.19,0,2.04c0.66-1.12,1.18-2.02,1.66-2.84h-8.29
			c-0.46,0-0.63,0.3-0.51,0.66c0.27,0.8,0.27,1.64,0.27,2.45c-0.02,4.25,0.35,8.5-0.12,12.73c-0.2,1.8-1.14,3.42-2.44,4.78
			c-0.67,0.7-1.52,1.17-2.47,1.84C90.84,71.55,95.49,71.54,100.28,71.34 M46.53,71.05c0.06,0.07,0.11,0.15,0.17,0.22h13.37
			c-0.49-0.17-0.89-0.29-1.27-0.44c-0.39-0.16-0.76-0.45-1.16-0.5c-1.15-0.13-1.96-0.89-1.94-2.03c0.01-1.05-0.04-2.09-0.04-3.14
			c0-5.05-0.5-10.1-0.15-15.15c0.03-0.38,0.01-0.62-0.5-0.61c-1.63,0.03-3.25,0.02-4.88,0.01c-0.65,0-0.82,0.44-0.8,0.93
			c0.07,2.47,0.16,4.94,0.27,7.41c0.1,2.42-0.14,4.84,0.17,7.26c0.08,0.64,0.02,1.29-0.26,1.89C48.77,68.45,48.22,70.14,46.53,71.05
			 M66.16,71.3c5.22,0.06,10.43,0.05,15.64,0.18c-0.85-0.68-1.72-1.27-2.58-1.87c-2-1.39-3.16-3.2-3.09-5.76
			c0.09-3.41,0.02-6.81,0.02-10.22c0-1.1,0.06-2.19,0.31-3.27c0.07-0.32,0.43-1.07-0.28-1.1c-1.71-0.05-3.43-0.12-5.15,0.04
			c-0.4,0.04-0.41,0.21-0.42,0.52c-0.03,0.67,0.17,1.33,0.15,1.98c-0.15,4.54-0.09,9.08,0.15,13.6c0.1,1.86-0.45,3.11-1.99,4.13
			C68.01,70.15,67.09,70.7,66.16,71.3 M128.38,71.02c0.15,0.2,0.32,0.14,0.45,0.13c2.2-0.14,4.41-0.22,6.62-0.16
			c0.65,0.02,0.8-0.16,0.8-0.81c-0.04-5.43-0.06-10.87-0.02-16.3c0.01-1.56-0.34-3.11-0.1-4.67c0.05-0.33,0-0.59-0.46-0.57
			c-1.47,0.08-2.93,0.14-4.41,0.19c-0.24,0.01-0.43,0.07-0.54,0.27c-0.88,1.69-2.39,2.98-3.15,4.72c-1.38,3.19-3.42,5.98-5.23,8.9
			c-0.76,1.24-1.34,2.64-2.48,3.6c-0.67,0.56-0.46,1.02-0.07,1.53c0.22,0.28,0.46,0.58,0.83,0.69c0.2-0.38,0.38-0.76,0.59-1.11
			c2.58-4.3,5.45-8.4,8.16-12.62c0.9-1.4,1.87-2.73,1.71-4.52c-0.03-0.29,0.11-0.59,0.17-0.88c0.04-0.2,0.13-0.36,0.35-0.35
			c0.24,0.01,0.26,0.22,0.29,0.4c0.11,0.57,0.32,1.12,0.29,1.79c0.3-0.19,0.62-0.37,0.81-0.02c0.17,0.32-0.19,0.47-0.35,0.66
			c-0.28,0.33-0.48,0.64-0.48,1.12c0.01,3.83-0.01,7.67-0.01,11.5c0,0.24-0.02,0.55,0.11,0.7c0.48,0.56,0.22,1.02-0.12,1.48
			C131.01,68.25,129.9,69.81,128.38,71.02 M137.29,72.33h0.18c-0.03,0.49-0.15,1-0.05,1.46c0.14,0.7-0.55,1.64,0.25,2.04
			c0.67,0.33,1.55,0.13,2.35,0.02c0.58-0.08,0.64-0.33,0.65-0.83c0.03-2.88,0.06-5.75,0.01-8.63c-0.09-5.27-0.01-10.55-0.07-15.83
			c-0.01-0.68,0.67-1.59-0.1-1.99c-0.56-0.3-1.44,0.02-2.17-0.04c-0.93-0.07-1.08,0.32-1.07,1.17
			C137.31,57.25,137.29,64.79,137.29,72.33 M7.68,70.7H7.6c0,1.19,0.05,2.39-0.01,3.58c-0.05,0.91,0.02,1.54,1.2,1.36
			c0.41-0.06,0.85,0.06,1.28,0.11c0.48,0.06,0.73-0.03,0.69-0.61c-0.05-0.79-0.02-1.59-0.01-2.39c0-0.37,0.02-0.67-0.43-0.88
			c-0.46-0.21-0.49-0.71-0.02-0.91c0.51-0.22,0.45-0.56,0.45-0.95c0-5.95,0-11.89,0.17-17.84c0.02-0.75,0.34-1.72-0.14-2.19
			c-0.36-0.36-1.33-0.11-2.03-0.13c-0.09,0-0.19,0.03-0.28,0c-0.62-0.22-0.7,0.11-0.71,0.63c-0.02,2.36-0.01,4.72-0.05,7.08
			C7.62,61.94,7.68,66.32,7.68,70.7 M121.66,8.88h-4.21c-1.6,0-1.68,0.08-1.71,1.71c-0.02,1.24,0.31,1.6,1.54,1.61
			c2.66,0.01,5.33,0.02,7.99,0c2.6-0.02,5.2,0.1,7.8-0.14c0.45-0.04,0.63-0.19,0.79-0.57c0.26-0.63,0.05-1.28,0.19-1.9
			c0.2-0.86-0.27-1.01-0.9-0.86c-0.88,0.2-1.77,0.11-2.65,0.17C127.4,9.08,124.31,8.78,121.66,8.88 M18.27,70.93
			c-1.21-0.62-2.07-1.36-2.84-2.18c-0.64-0.67-1.04-1.46-1.03-2.46c0.03-1.55-0.06-3.11-0.1-4.67c-0.11-3.77,0.02-7.52,0.31-11.28
			c0.02-0.25,0.15-0.48-0.28-0.47c-0.81,0.02-1.62,0-2.41,0c0.04,0.55,0.09,0.97,0.09,1.4c-0.02,3.8-0.04,7.61-0.11,11.41
			c-0.01,0.79,0.13,1.59,0.04,2.34c-0.2,1.81-0.02,3.61-0.11,5.41c-0.02,0.35,0.11,0.49,0.47,0.49
			C14.23,70.87,16.15,71.08,18.27,70.93 M61.92,12.19c2.36,0,4.73-0.08,7.09,0.04c1.09,0.05,1.42-0.57,1.77-1.32
			c0.1-0.22,0.13-0.47,0.18-0.7c0.18-0.85-0.21-1.33-1.1-1.32c-3.13,0.02-6.25,0.04-9.38,0.08c-2.11,0.02-4.22,0.06-6.34,0.11
			c-0.26,0-0.6-0.12-0.76,0.17c-0.36,0.63-0.49,1.32-0.21,2.02c0.26,0.64,0.69,0.97,1.48,0.95C57.07,12.16,59.49,12.19,61.92,12.19
			 M103.13,8.88v0.18c-2.52,0-5.03,0-7.55,0c-0.28,0-0.58-0.1-0.71,0.35c-0.42,1.41,0.54,2.8,1.98,2.8
			c3.53-0.01,7.06-0.01,10.59-0.03c1.21-0.01,2.42-0.05,3.64-0.15c1.34-0.11,1.35,0.08,1.63-1.21c0.29-1.32-0.28-1.97-1.59-1.95
			C108.46,8.9,105.79,8.88,103.13,8.88 M82.97,12.19v0.03c2.39,0,4.78,0,7.17,0c0.84,0,1.25-0.41,1.29-1.26
			c0.04-0.88-0.63-1.9-1.3-1.92C88.76,9,87.39,8.85,86.01,8.87c-3.31,0.04-6.62,0.01-9.93,0.01c-1.32,0-1.96,1.03-1.5,2.3
			c0.29,0.8,0.72,1.06,1.59,1.04C78.43,12.14,80.7,12.19,82.97,12.19 M36.27,9.3c-0.92-0.21-1.72,0.22-2.55,0.13
			c-0.22-0.02-0.34,0.11-0.43,0.27c-0.28,0.5-0.42,1.07-0.16,1.58c0.26,0.49,0.73,0.83,1.33,0.84c1.75,0.03,3.5,0.07,5.24,0.07
			c2.91,0,5.83-0.12,8.74-0.01c0.99,0.04,1.35-0.31,1.67-1.07c0.52-1.23-0.03-2.1-1.36-2.04C44.56,9.23,40.37,9.42,36.27,9.3
			 M21.9,12.27v-0.08c2.05,0,4.11,0,6.17-0.01c0.23,0,0.61,0.12,0.66-0.15c0.13-0.68,0.62-1.27,0.45-2.03
			c-0.09-0.39-0.31-0.67-0.67-0.62c-0.72,0.1-1.4-0.14-2.1-0.15c-4.31-0.05-8.62,0.34-12.94-0.03c-0.32-0.03-0.61,0.03-0.81,0.33
			c-0.66,0.96,0.09,2.54,1.27,2.64c0.63,0.06,1.27,0.02,1.9,0.05C17.85,12.34,19.88,12.27,21.9,12.27 M57.44,68.57
			c0.68-0.89,1.36-1.75,2.01-2.63c2.54-3.48,4.96-7.05,7.75-10.35c1.25-1.49,2.46-3.13,2.45-5.27c0-0.34,0.29-0.82-0.14-0.97
			c-0.48-0.16-1.07-0.15-1.36,0.44c-1,2.05-2.67,3.63-3.83,5.58c-2.06,3.43-4.51,6.61-6.83,9.87c-0.71,0.99-0.69,1.76-0.3,2.72
			C57.25,68.15,57.34,68.34,57.44,68.57 M89.68,49.16c-1.51-0.4-2.51,0.11-3.44,1.15c-1.67,1.87-2.7,4.14-4.16,6.14
			c-1.53,2.1-2.75,4.38-3.75,6.77c-0.15,0.36-0.33,0.73-0.55,1.05c-0.48,0.7-0.37,1.93,0.22,2.57c0.25,0.27,0.39,0.31,0.58-0.05
			c0.41-0.75,0.85-1.48,1.26-2.22c1.92-3.51,3.82-7.02,6.39-10.13C87.56,52.84,88.53,50.95,89.68,49.16 M89.78,28.52
			c-1.14-0.24-1.66,0.4-2.16,1.24c-0.84,1.42-1.78,2.78-2.68,4.16c-1.78,2.72-3.22,5.64-5.11,8.33c1.79,0.35,3.24,0.2,3.89-1.72
			c0.09-0.28,0.34-0.5,0.51-0.76c1.5-2.19,3.06-4.33,4.08-6.82c0.29-0.69,0.36-1.68,1.42-1.85c0.03-0.01,0.04-0.23,0.04-0.35
			C89.78,29.99,89.78,29.23,89.78,28.52 M110.46,48.92c-0.36,0.48-0.82,0.91-1.12,1.48c-2.01,3.8-4.14,7.53-6.39,11.2
			c-1.29,2.1-2.49,4.26-3.73,6.39c-0.46,0.8,0.42,0.87,0.72,1.2c0.38,0.41,0.46-0.18,0.59-0.37c0.94-1.46,1.73-3.01,2.57-4.53
			c1.69-3.07,3.82-5.88,5.48-8.97C109.67,53.31,110.8,51.35,110.46,48.92 M58.51,42.42c0.72,0,1.42-0.04,2.1,0.01
			c0.65,0.06,1.03-0.17,1.38-0.74c1.76-2.83,3.53-5.66,5.65-8.24c1.02-1.24,1.61-2.56,1.33-4.18c-0.05-0.29,0.24-0.73-0.23-0.85
			c-0.4-0.1-0.54,0.31-0.73,0.58C64.84,33.44,61.97,38.09,58.51,42.42 M36.26,67.12c1.96-2.49,4.4-4.46,6.53-6.74
			c1.69-1.81,3.58-3.42,5.15-5.34c0.13-0.16,0.36-0.33,0.36-0.5c0.03-1.07,0.02-2.14,0.02-3.32c-2.3,2.5-4.08,5.2-6.41,7.44
			c-1.75,1.67-3.07,3.75-5.01,5.24C35.83,64.72,35.64,65.79,36.26,67.12 M48.28,56.37c-0.7,0.52-0.99,1.26-1.54,1.78
			c-3.13,2.93-6.16,5.96-9.11,9.07c-0.98,1.03-0.96,1.02,0.07,2.02c0.29,0.28,0.44,0.29,0.72,0.01c0.76-0.75,1.58-1.46,2.33-2.22
			c1.92-1.94,3.8-3.91,5.73-5.84c0.62-0.62,1.66-1.02,1.93-1.73c0.31-0.81-0.02-1.86-0.07-2.81C48.34,56.59,48.32,56.53,48.28,56.37
			 M15.62,64.15c1.16-0.84,2.32-1.63,3.42-2.49c2.8-2.21,5.1-4.94,7.78-7.29c0.13-0.11,0.29-0.28,0.3-0.43
			c0.09-1.19,0.14-2.38,0.21-3.58c-0.41,0.38-0.63,0.8-1.03,1.04c-0.79,0.47-1.31,1.17-1.77,1.94c-0.41,0.68-0.93,1.29-1.53,1.83
			c-1.58,1.4-2.99,2.98-4.4,4.56c-0.59,0.66-1.2,1.33-1.92,1.83C15.75,62.2,15.23,62.92,15.62,64.15 M118.96,65.6
			c4.12-5.2,6.67-11.36,10.64-16.72c-0.91,0.08-1.88-0.4-2.45,0.72c-1.08,2.13-2.59,3.98-3.83,6.01c-1.23,2-2.24,4.15-3.78,5.92
			C118.37,62.86,118.92,64.2,118.96,65.6 M58.17,69.12c0.14,0.1,0.34,0.24,0.55,0.37c0.67,0.42,1.21,0.54,1.68-0.35
			c0.38-0.72,0.95-1.34,1.44-2c1.99-2.67,4.17-5.21,6-8c0.43-0.65,0.43-1.74,1.57-1.82c0.15-0.01,0.11-0.19,0.11-0.3
			c0-0.99,0-1.99,0-2.9C65.5,58.91,61.97,64.1,58.17,69.12 M47.98,29.07c-3.52,4.56-6.86,9.03-10.41,13.39
			c1.49,0.19,2.68,0.15,3.65-1.25c1.92-2.77,4.17-5.29,6.47-7.75c0.16-0.17,0.29-0.29,0.29-0.52
			C47.98,31.69,47.98,30.44,47.98,29.07 M130.89,54.56c-0.14,0.2-0.31,0.4-0.45,0.62c-2.71,4.17-5.42,8.35-8.13,12.52
			c-0.33,0.51-0.98,1.04-0.92,1.49c0.05,0.43,0.84,0.77,1.26,1.1c2.47-3.59,4.95-7.19,7.43-10.79c0.1-0.14,0.26-0.34,0.4-0.34
			c0.48-0.01,0.42-0.32,0.42-0.62C130.89,57.24,130.89,55.92,130.89,54.56 M89.64,51.11c-1.2,2.62-3.11,4.57-4.63,6.79
			c-2.12,3.1-3.69,6.53-5.85,9.6c-0.08,0.11-0.21,0.22-0.08,0.39c0.32,0.43,0.74,0.79,1.22,0.92c0.32,0.09,0.49-0.43,0.62-0.71
			c2.17-4.39,5.07-8.33,7.63-12.48C89.36,54.32,90.22,53.02,89.64,51.11 M15.85,67.29c1.82-1.34,3.65-2.66,5.61-3.78
			c1.92-1.1,3.64-2.47,5.3-3.91c0.21-0.18,0.41-0.32,0.41-0.66c-0.02-1.06-0.01-2.11-0.01-3.2c-0.15,0.06-0.21,0.07-0.25,0.1
			c-0.3,0.26-0.6,0.52-0.89,0.8c-3.01,3.05-6.04,6.07-9.71,8.37C15.33,65.61,15.27,66.11,15.85,67.29 M35.98,63.39
			c4.37-4.48,8.42-9.08,12.28-13.94c-0.94-0.08-1.75-0.06-2.41,0.65c-0.69,0.73-1.47,1.36-2.14,2.1c-2.33,2.6-4.61,5.24-6.83,7.93
			C36.05,61.13,35.69,62.02,35.98,63.39 M100.96,70.17c0.23,0.11,0.57,0.24,0.88,0.42c0.36,0.21,0.49,0.23,0.8-0.21
			c0.45-0.64,0.94-1.27,1.31-1.94c1.51-2.72,3.57-5.11,4.75-8.03c0.28-0.69,0.55-1.59,1.53-1.77c0.21-0.04,0.18-0.21,0.18-0.35
			c0-1.23,0-2.46,0-3.8C107.22,59.78,104.11,64.94,100.96,70.17 M67.16,28.68c-1.12-0.43-2.16-0.2-2.72,0.62
			c-2.43,3.55-4.69,7.22-7.22,10.69c-0.4,0.55-0.76,1.1-0.43,1.82c0.09,0.2-0.17,0.53,0.19,0.61c0.33,0.08,0.44-0.22,0.63-0.42
			c2.04-2.21,3.54-4.8,5.26-7.25C64.3,32.74,65.72,30.72,67.16,28.68 M130.82,28.02c-3.38,4.52-5.36,9.61-8.77,14.02
			c0.93,0,1.66-0.01,2.38,0c0.35,0.01,0.44-0.21,0.57-0.48c1.62-3.42,3.88-6.48,5.41-9.97C130.95,30.37,130.72,29.36,130.82,28.02
			 M98.55,67.77c2.81-6.6,7.19-12.3,10.19-18.75c-1.29-0.5-1.69,0.59-2.1,1.31c-1.99,3.45-3.88,6.96-5.82,10.45
			c-0.64,1.15-1.29,2.3-2.44,3.04c-0.23,0.15-0.31,0.32-0.31,0.6C98.06,65.54,98.04,66.66,98.55,67.77 M69.54,58.46
			c-2.53,4.15-5.48,7.63-8.32,11.19c-0.13,0.16-0.42,0.28-0.32,0.5c0.07,0.14,0.34,0.23,0.54,0.26c0.57,0.08,1.16-0.08,1.72,0.17
			c0.17,0.08,0.27-0.07,0.37-0.19c0.77-0.91,1.53-1.83,2.3-2.74c1.4-1.63,2.09-3.74,3.57-5.31c0.15-0.15,0.13-0.33,0.13-0.51
			C69.54,60.79,69.54,59.76,69.54,58.46 M98.08,62.89c0.07,0.02,0.14,0.04,0.2,0.06c2.61-4.67,5.21-9.33,7.82-14.01
			c-1.59-0.18-1.59-0.17-2.23,1.16c-0.25,0.52-0.48,1.06-0.81,1.53c-1.4,2.07-2.84,4.12-4.29,6.15c-0.71,0.99-0.8,1.83-0.8,2.84
			C97.97,61.37,98.04,62.13,98.08,62.89 M108.83,28.35c-0.57,0.18-0.9-0.32-1.3,0.06c-0.46,0.44-0.92,0.84-1.2,1.45
			c-0.58,1.28-1.21,2.53-2.01,3.68c-1.86,2.65-3.41,5.5-5.1,8.25c-0.07,0.11-0.09,0.22-0.01,0.34c1.83,0.08,1.83,0.08,2.73-1.47
			c0.48-0.82,0.94-1.64,1.4-2.47C105.14,34.98,106.93,31.75,108.83,28.35 M39,70.12c0.45,0.18,0.78,0.35,1.13,0.43
			c0.37,0.08,0.74,0.24,1.12-0.07c1.88-1.5,3.93-2.82,5.44-4.76c0.34-0.43,0.73-1.05,1.21-1.07c0.96-0.04,0.82-0.68,0.94-1.24
			c0.18-0.83-0.17-1.55-0.46-2.39C45.15,63.97,42.46,67.36,39,70.12 M47.07,28.27c-1.49-0.18-1.53-0.2-1.74,0.11
			c-0.84,1.21-1.86,2.27-2.76,3.43c-2.01,2.59-3.78,5.35-5.95,7.81c-0.65,0.73-0.96,1.43-0.83,2.37c0.03,0.18,0.01,0.41,0.21,0.47
			c0.21,0.06,0.27-0.17,0.39-0.31c1.88-2.29,3.83-4.53,5.38-7.07c0.3-0.49,0.69-0.95,1.13-1.33C44.63,32.22,45.61,30.14,47.07,28.27
			 M87.19,28.34c-1.07-0.62-1.64-0.15-2.08,0.75c-0.24,0.49-0.6,0.92-0.89,1.38c-2.24,3.6-4.48,7.21-6.72,10.81
			c-0.21,0.34-0.33,0.81-0.08,1.01c0.35,0.27,0.89,0.18,1.3-0.05c0.16-0.09,0.27-0.32,0.37-0.51c1.08-1.91,2.11-3.86,3.25-5.73
			C83.92,33.44,85.57,30.9,87.19,28.34 M129.6,27.8c-1.18-0.63-1.68,0.05-2.15,0.81c-0.23,0.36-0.46,0.72-0.66,1.09
			c-2,3.83-4.36,7.41-6.99,10.83c-0.36,0.47-0.71,0.95-1.12,1.51c0.34,0,0.55-0.03,0.75,0c1.17,0.21,1.96-0.15,2.32-1.36
			c0.13-0.42,0.44-0.8,0.7-1.17C125.09,35.76,126.8,31.46,129.6,27.8 M77.47,62.91c1.01-2.47,2.3-4.81,3.85-7
			c1.56-2.2,2.67-4.71,4.57-6.74c-0.79,0.2-1.69-0.48-2.29,0.42c-1.56,2.33-3.27,4.57-4.56,7.07C78.02,58.6,76.67,60.47,77.47,62.91
			 M110.37,28.84c-0.1-0.05-0.2-0.1-0.3-0.16c-2.74,4.31-4.89,8.97-7.69,13.38c0.65,0,1.13-0.02,1.62,0.01
			c0.37,0.02,0.55-0.14,0.68-0.46c1.22-2.94,3.15-5.5,4.45-8.38c0.32-0.71,1.22-0.92,1.26-1.74c0.05-0.83,0.01-1.66,0-2.48
			C110.41,28.95,110.39,28.9,110.37,28.84 M16.58,42.59c0.59-0.09,1.33,0.3,1.85-0.22c1.47-1.46,3.09-2.79,4.21-4.59
			c1.25-1.99,2.39-4.07,4.34-5.51c0.12-0.09,0.14-0.18,0.14-0.3v-2.41C23.92,34.23,19.96,38.16,16.58,42.59 M65.24,49.55
			c-1.66-0.56-2.55,0.21-3.45,1.26c-1.78,2.07-3.14,4.44-4.89,6.52c-0.07,0.08-0.13,0.21-0.13,0.31c-0.01,0.99-0.01,1.98-0.01,3.21
			C59.61,56.9,62.01,52.95,65.24,49.55 M89.72,56.09c-3.08,4.29-5.76,8.88-8.61,13.39c0.2,0.12,0.5,0.27,0.76,0.48
			c0.48,0.39,0.73,0.33,0.93-0.29c0.37-1.17,1.01-2.2,1.67-3.23c1.24-1.93,2.65-3.74,3.99-5.6C89.52,59.42,90.21,57.89,89.72,56.09
			 M126.49,27.91c-0.65-0.18-1.07,0.14-1.45,0.59c-1.11,1.34-2.14,2.75-3.07,4.23c-0.91,1.45-1.89,2.87-3.31,3.89
			c-0.24,0.17-0.29,0.4-0.3,0.63c-0.02,1.12-0.01,2.24-0.01,3.49C121.4,36.58,124.2,32.45,126.49,27.91 M67.25,49.5
			c-0.56-0.22-0.84-0.01-1.09,0.29c-0.92,1.06-1.89,2.09-2.75,3.2c-2.21,2.85-4.03,5.99-6.45,8.68c-0.11,0.12-0.16,0.24-0.16,0.41
			c0.01,0.83,0,1.67,0,2.67C60.35,59.57,63.77,54.57,67.25,49.5 M77.33,39.98c2.4-4.13,5.02-8.04,7.47-12.01
			c-1-0.4-1.7-0.24-2.32,0.71c-1.76,2.67-3.28,5.48-5.01,8.17c-0.09,0.14-0.13,0.34-0.13,0.52C77.32,38.23,77.33,39.11,77.33,39.98
			 M44.75,49.49c-0.92,0-1.65,0.01-2.37-0.01c-0.32-0.01-0.51,0.16-0.69,0.38c-1.83,2.22-3.63,4.44-5.24,6.84
			c-0.63,0.95-0.64,1.84-0.51,2.88C38.68,56.06,41.56,52.76,44.75,49.49 M126.43,48.94c-0.61,0.09-1.34-0.45-1.72,0.22
			c-1.49,2.56-3.1,5.05-4.92,7.37c-1.13,1.44-0.99,2.88-0.89,4.47C121.31,56.92,123.99,53.03,126.43,48.94 M27.16,60.77
			c-3.33,2.96-7.23,4.81-10.68,7.37c0.21,0.2,0.44,0.45,0.69,0.66c1.11,0.93,1.09,0.91,2.17-0.06c2-1.79,4.21-3.36,6.07-5.32
			c0.21-0.21,0.49-0.46,0.76-0.49c1.06-0.12,1.07-0.81,0.99-1.6C27.15,61.2,27.16,61.08,27.16,60.77 M63.89,28.39
			c-0.65,0.06-1.52-0.09-1.68,0.18c-0.54,0.93-1.49,1.45-2.03,2.35c-1.04,1.72-2.09,3.44-3.22,5.11c-0.72,1.06-0.33,2.15-0.47,3.4
			C59.23,35.81,61.48,32.15,63.89,28.39 M97.84,37.05c1.14-1.69,2.24-3.39,3.41-5.03c0.75-1.05,1.43-2.12,2-3.27
			c0.22-0.44,0.18-0.59-0.32-0.62c-0.97-0.06-1.9-0.12-2.29,1.08c-0.1,0.3-0.39,0.54-0.59,0.81C98.58,32.11,97.06,34.19,97.84,37.05
			 M83.32,70.58c1.53,0.36,2.34,0.02,3.11-1.45c0.72-1.37,1.48-2.72,2.33-4.02c0.78-1.19,1.61-2.44,1-4.03
			C87.38,64.07,85.21,67.24,83.32,70.58 M105.84,28.29c-0.41-0.12-0.67-0.05-0.99,0.25c-0.76,0.69-0.98,1.67-1.51,2.47
			c-1.11,1.68-2.4,3.23-3.41,4.97c-0.51,0.87-1.12,1.68-1.88,2.35c-0.16,0.14-0.35,0.23-0.35,0.49c0.01,0.99,0,1.97,0,2.96
			c0.1,0.03,0.19,0.06,0.29,0.08C100.28,37.15,103.67,33.09,105.84,28.29 M23.56,28.87c-1.22-0.24-2.04-0.08-2.75,0.91
			c-1.51,2.11-3.13,4.15-4.79,6.15c-0.72,0.87-0.64,1.76-0.54,2.9C18.22,35.45,20.85,32.21,23.56,28.87 M89.78,32.59
			c-1.64,3.49-4.09,6.4-6.13,9.67c0.42,0,0.7-0.04,0.96,0.01c1.15,0.22,1.74-0.32,2.28-1.3c0.8-1.45,1.41-3.06,2.79-4.13
			c0.08-0.07,0.08-0.28,0.08-0.42C89.78,35.14,89.78,33.87,89.78,32.59 M44.33,28.23c-0.81-0.22-1.31-0.17-1.87,0.34
			c-0.78,0.71-1.42,1.5-2.03,2.33c-1.37,1.86-2.48,3.94-4.34,5.41c-0.21,0.16-0.31,0.34-0.3,0.62c0.02,0.75,0.01,1.49,0.01,2.35
			C38.64,35.52,41.12,31.68,44.33,28.23 M68.93,33.42c-2.21,2.89-4.03,6.02-6.36,9c0.64,0,1.09,0.01,1.53,0
			c0.26-0.01,0.49,0.03,0.69-0.28c1.11-1.79,2.45-3.42,3.65-5.15C69.25,35.82,69.02,34.66,68.93,33.42 M123.64,70.65
			c0.5,0.17,0.91-0.1,1.32-0.03c0.78,0.13,1.09-0.28,1.42-0.92c0.93-1.81,1.95-3.58,2.95-5.35c0.21-0.38,0.47-0.91,1.03-0.59
			c0.55,0.31,0.35,0.76,0.03,1.16c-0.15,0.19-0.22,0.41,0.05,0.53c0.38,0.17,0.31-0.2,0.33-0.35c0.25-1.49,0.06-2.99,0.13-4.63
			C128.21,63.82,126.26,67.43,123.64,70.65 M103.18,48.86c-0.55,0-1.01,0.03-1.46-0.01c-0.53-0.05-0.84,0.15-1.11,0.6
			c-0.8,1.37-1.59,2.75-2.53,4.03c-0.13,0.18-0.19,0.36-0.19,0.59c0.02,0.99,0.01,1.98,0.01,2.96
			C99.38,54.12,101.96,52,103.18,48.86 M23.83,49.91c-0.77,0.01-1.51-0.45-2.13,0.18c-1.76,1.79-3.46,3.66-5.31,5.35
			c-0.92,0.83-0.96,1.7-0.84,2.79C18.83,55.91,20.66,52.27,23.83,49.91 M77.34,57.73c1.45-3.01,3.52-5.63,5.28-8.41
			c-1.48-0.43-2.46,0.03-3.04,1.34c-0.06,0.14-0.17,0.25-0.27,0.37c-1.48,1.85-2.4,3.88-1.97,6.33
			C77.35,57.48,77.34,57.61,77.34,57.73 M118.87,56.05c0.05,0.02,0.11,0.05,0.16,0.07c1.58-2.36,3.16-4.73,4.85-7.26
			c-0.69,0-1.17-0.02-1.65,0.01c-0.32,0.01-0.68-0.14-0.93,0.22c-1.33,1.94-3.34,3.62-2.43,6.42
			C118.92,55.67,118.87,55.87,118.87,56.05 M110.28,60.13c-1.88,3.77-4.23,7.22-6.64,10.69c1.46,0.06,2.34-0.85,3-1.89
			c1.09-1.72,1.95-3.59,3.08-5.29C110.46,62.52,110.47,61.39,110.28,60.13 M77.5,35.61c1.25-2.83,3.06-5.27,4.68-7.92
			c-0.5-0.05-0.89-0.12-1.28-0.12c-0.34,0-0.75-0.16-1,0.25C78.45,30.19,76.57,32.41,77.5,35.61 M47.95,34.9
			c-2.35,2.46-4.31,5-6.38,7.62c0.63-0.03,1.11-0.12,1.58-0.07c0.62,0.06,0.99-0.18,1.34-0.7c0.88-1.32,1.74-2.68,2.79-3.84
			C48.09,37.01,47.99,36.1,47.95,34.9 M19.48,69.92c0.5,0.48,1.28,0.28,1.28,0.25c0.06-1.37,1.07-0.57,1.31-0.4
			c0.73,0.54,1.12,0.11,1.51-0.35c0.78-0.91,1.46-1.89,2.26-2.77c0.72-0.79,0.79-1.84,1.22-2.8C24.43,65.76,22.18,68.07,19.48,69.92
			 M15.63,61.45c3.68-3.82,7.02-7.75,10.48-11.61c-0.61-0.24-0.92,0.06-1.21,0.46c-0.64,0.91-1.47,1.63-2.3,2.36
			c-0.83,0.72-1.66,1.47-2.36,2.32c-1.07,1.31-2.19,2.56-3.59,3.52C15.66,59.18,15.23,60.05,15.63,61.45 M56.61,56.44
			c1.58-2.48,3.32-4.74,5.33-7.03c-0.61,0-1.04,0.06-1.44-0.01c-0.93-0.18-1.44,0.29-1.93,1.01c-0.59,0.88-1.05,1.87-1.83,2.62
			c-0.12,0.12-0.14,0.26-0.14,0.42C56.61,54.45,56.61,55.45,56.61,56.44 M130.75,33.56c-1.45,3-3.3,5.62-4.79,8.4
			c1.39,0.46,2.13-0.18,2.65-1.37c0.44-1,0.97-1.99,1.61-2.87c0.59-0.81,0.72-1.65,0.65-2.58C130.83,34.67,130.8,34.2,130.75,33.56
			 M41.23,28.24c-0.96-0.04-1.65-0.05-2.26,0.69c-0.68,0.82-1.48,1.54-2.17,2.36c-0.18,0.22-0.33,0.62-0.68,0.53
			c-0.36-0.09-0.33,0.06-0.33,0.29c0,1.03,0,2.05,0,3.33C37.75,32.98,39.2,30.48,41.23,28.24 M19.62,42.52
			c0.66-0.11,1.4,0.42,1.82-0.13c1.33-1.74,3.1-3.13,4.14-5.12c0.29-0.54,0.54-1.27,1.41-1.24c0.2,0.01,0.14-0.23,0.14-0.37
			c0-0.63,0-1.25,0-2.06C24.21,36.4,23.18,40.5,19.62,42.52 M110.34,33.49c-1.58,3.01-3.17,5.79-4.88,8.56
			c0.44,0,0.81-0.03,1.17,0.01c0.36,0.04,0.45-0.16,0.57-0.43c0.74-1.66,1.32-3.43,3.03-4.43c0.07-0.04,0.09-0.21,0.09-0.32
			C110.34,35.82,110.34,34.76,110.34,33.49 M20.48,28.81c-1.61-0.08-1.6-0.07-2.54,1.02c-0.42,0.49-0.86,0.96-1.31,1.42
			c-1.08,1.11-1.55,2.38-1.08,4.02C17.12,33.06,18.73,30.97,20.48,28.81 M124.07,28.09c-0.74-0.13-1.24,0.07-1.69,0.65
			c-1.16,1.48-2.18,3.1-3.71,4.26c-0.11,0.08-0.17,0.17-0.17,0.29v2.39C120.35,33.16,122.2,30.64,124.07,28.09 M56.53,35.14
			c0.71-1.13,1.39-2.19,2.04-3.28c0.67-1.13,1.3-2.27,2.38-3.08c0.27-0.21,0.3-0.54-0.23-0.56c-0.77-0.02-1.49-0.11-1.88,0.84
			c-0.25,0.6-0.71,1.13-1.13,1.65C56.69,31.99,56.09,33.36,56.53,35.14 M20.41,49.95c-2.48-0.55-3.16,1.63-4.51,2.65
			c-0.81,0.61-0.24,1.55-0.41,2.6C17.08,53.19,18.95,51.85,20.41,49.95 M22.77,42.52c0.75,0.03,1.59,0.36,2.15-0.05
			c0.85-0.63,1.62-1.52,2.12-2.41c0.4-0.71,0.08-1.82,0.08-2.75C25.81,39.19,24.43,40.94,22.77,42.52 M65.55,42.41
			c0.9,0,1.62-0.05,2.34,0.02c0.53,0.05,0.76-0.19,0.96-0.61c0.62-1.34,0.14-2.72,0.22-4.09C68.01,39.31,66.76,40.73,65.55,42.41
			 M40.94,49.62c-1.76-0.28-1.77-0.29-2.47,1.03c-0.43,0.81-0.84,1.69-1.6,2.2c-1.19,0.8-0.95,1.88-0.85,3.25
			C37.45,53.61,39.04,51.56,40.94,49.62 M89.61,38.51c-0.38,0.61-0.75,1.22-1.14,1.82c-0.41,0.62-0.83,1.24-1.28,1.9
			c1.8,0.09,1.79,0.09,2.4-1.39C89.9,40.09,89.73,39.33,89.61,38.51 M38.55,28.19c-0.96,0.07-1.64-0.02-2.3-0.27
			c-0.4-0.15-0.47,0.01-0.46,0.36c0.01,0.99,0,1.97,0,3.21C36.64,30.22,37.39,29.21,38.55,28.19 M17.81,28.73
			c-0.87-0.18-1.64-0.12-2.32-0.47v3.12C16.27,30.49,16.99,29.66,17.81,28.73 M47.93,38.94c-0.89,1.2-1.71,2.3-2.54,3.42
			C47.12,42.93,48.32,41.45,47.93,38.94 M107.87,41.99c0.97,0.2,1.57,0.04,2-0.98c0.33-0.79,0.58-1.47,0.34-2.46
			C109.39,39.76,108.65,40.85,107.87,41.99 M118.52,31.79c0.93-1.14,1.77-2.05,2.45-3.17c-2.14-0.05-2.45,0.24-2.45,2.21V31.79z
			 M79.41,49.23c-0.68,0-1.25,0-1.81,0c-0.21,0-0.39,0.05-0.33,0.29c0.21,0.92-0.17,1.85,0.07,2.93
			C77.94,51.26,78.7,50.34,79.41,49.23 M128.69,41.94c0.52-0.1,1.13,0.42,1.48-0.13c0.61-0.96,0.75-2.03,0.61-3.25
			C130.04,39.75,129.37,40.85,128.69,41.94 M56.43,31.23c0.49-0.73,0.87-1.26,1.22-1.82c0.25-0.4,0.86-0.8,0.67-1.19
			c-0.2-0.41-0.89-0.14-1.37-0.2c-0.23-0.03-0.55-0.25-0.54,0.28C56.45,29.21,56.43,30.11,56.43,31.23 M99.89,28.24
			c-0.69-0.01-1.23-0.05-1.77,0.11c-0.27,0.08-0.43,0.09-0.42,0.42c0.02,0.84,0.01,1.68,0.01,2.69
			C98.48,30.31,99.15,29.33,99.89,28.24 M35.84,52.71c0.66-1.1,1.46-1.95,1.81-3.09h-1.98C35.95,50.61,35.7,51.59,35.84,52.71
			 M77.46,27.73c-0.21,0.8-0.12,1.59-0.05,2.4c0.28-0.31,0.46-0.62,0.64-0.93C78.74,28.04,78.74,28.04,77.46,27.73 M56.61,52.11
			c0.62-1.01,1.12-1.82,1.64-2.66c-1.64-0.08-1.64-0.08-1.64,1.46C56.61,51.23,56.61,51.56,56.61,52.11 M17.22,49.92
			c-2.29-0.13-2.08-0.23-1.65,1.57C16.09,51,16.63,50.48,17.22,49.92 M120.04,48.9c-1.39-0.11-1.4-0.11-1.33,1.06
			c0.01,0.19-0.14,0.41,0.1,0.63C119.2,50.05,119.58,49.53,120.04,48.9 M26.02,42.53c0.88,0.17,1.35,0.08,0.99-0.89
			C26.7,41.92,26.42,42.17,26.02,42.53" />
		</g>
		<g>
			<defs>
				<path id="SVGID_1_" d="M127.49,69.93c0.02,0.02,0.05,0.03,0.07,0.03c0.01-0.01,0.02-0.02,0.03-0.03
				c-0.05-0.04-0.11-0.07-0.16-0.11C127.45,69.86,127.47,69.9,127.49,69.93 M128.06,72.4c2.57-0.03,5.15,0,7.7-0.44
				c0.38-0.07,0.5,0,0.49,0.38c-0.02,1.01-0.04,2.03-0.02,3.04c0.01,0.42-0.21,0.41-0.51,0.42c-2.54,0.05-5.09,0.12-7.63,0.18
				c-9.02,0.23-18.04,0.08-27.07,0.21c-5.58,0.08-11.16,0.37-16.74,0.12c-6.66,0-13.32,0.09-19.98-0.03
				c-5.28-0.09-10.55-0.09-15.83-0.24c-2.64-0.08-5.28-0.07-7.92-0.07c-2.3,0-4.6,0.01-6.9-0.04c-4.78-0.1-9.57,0.01-14.36-0.22
				c-2.17-0.1-4.36-0.01-6.53,0.07c-0.72,0.03-0.91-0.2-0.83-0.87c0.05-0.45,0.01-0.92,0.01-1.38c0-1.4,0-1.43,1.45-1.45
				c1.38-0.02,2.76,0.06,4.14,0.07c4.72,0.03,9.44,0.08,14.16,0.08c4.35,0,8.71,0.03,13.06-0.1c5.43-0.16,10.86,0,16.29,0.04
				c7.49,0.06,14.97,0.06,22.46,0.05c7.71,0,15.42-0.01,23.13,0.06c5.44,0.05,10.88,0.14,16.32,0.14
				C124.64,72.43,126.35,72.42,128.06,72.4 M127.42,69.81c0.85-1.04,1.4-2.25,2.01-3.42c0.25-0.48,0.45-0.45,0.89-0.26
				c0.63,0.27,0.14,0.53,0.04,0.74c-0.59,1.2-1.57,2.07-2.51,2.97c-0.07,0.07-0.18,0.16-0.28,0.13c-0.01,0.01-0.02,0.02-0.03,0.03
				c-0.01-0.02-0.03-0.04-0.04-0.06c-0.03-0.02-0.06-0.06-0.09-0.12c0.01,0.01,0.02,0.01,0.03,0.02
				C127.43,69.82,127.42,69.82,127.42,69.81 M48.5,65.63c0.02-0.07,0.01-0.18,0.13-0.13c0.01,0.01-0.03,0.14-0.05,0.22
				c-0.22,0.5-0.46,0.99-0.64,1.49c-0.56,1.52-2.83,3.07-4.39,3.02c-0.01,0-0.01,0.01-0.02,0.01c0,0,0,0,0,0
				c0.05,0.07,0.02,0.12-0.07,0.15c-0.02,0.01-0.05-0.02-0.08-0.03c0.05-0.04,0.1-0.08,0.15-0.12c0-0.01-0.01-0.01-0.01-0.02
				c0.01,0,0.03,0,0.04,0C45.41,68.91,46.82,67.12,48.5,65.63 M27.06,63.85c-0.43,0.96-0.49,2.01-1.22,2.8
				c-0.8,0.88-1.49,1.87-2.26,2.77c-0.38,0.45-0.77,0.89-1.51,0.35c-0.23-0.17-1.25-0.97-1.31,0.4c0,0.03-0.78,0.23-1.28-0.25
				C22.18,68.07,24.43,65.76,27.06,63.85L27.06,63.85 M64.41,70.56c-0.09-0.1,0.08-0.17,0.15-0.24c2.14-1.87,3.54-4.29,5.13-6.65
				c0,0.97,0.13,1.96-0.05,2.89c-0.11,0.61-0.55,1.26-1.04,1.67c-1.14,0.95-2.42,1.74-3.84,2.25c-0.06,0.1-0.14,0.15-0.22,0.15
				C64.5,70.62,64.45,70.6,64.41,70.56 M83.32,70.58c1.88-3.33,4.06-6.5,6.45-9.5c0.61,1.6-0.22,2.85-1,4.03
				c-0.86,1.3-1.61,2.65-2.33,4.02c-0.59,1.12-1.2,1.58-2.13,1.58C84.01,70.71,83.69,70.66,83.32,70.58 M40.13,70.55
				c-0.35-0.08-0.69-0.25-1.13-0.43c3.46-2.76,6.16-6.15,9.39-9.11c0.29,0.84,0.64,1.56,0.46,2.39c-0.12,0.56,0.02,1.2-0.94,1.24
				c-0.48,0.02-0.87,0.64-1.21,1.07c-1.5,1.94-3.55,3.26-5.44,4.76c-0.17,0.14-0.35,0.19-0.52,0.19
				C40.53,70.66,40.33,70.59,40.13,70.55 M27.16,60.77c0,0.31-0.01,0.44,0,0.56c0.08,0.79,0.06,1.48-0.99,1.6
				c-0.27,0.03-0.55,0.28-0.76,0.49c-1.87,1.96-4.07,3.52-6.07,5.32c-1.08,0.96-1.06,0.99-2.17,0.06c-0.25-0.21-0.48-0.45-0.69-0.65
				C19.93,65.57,23.82,63.73,27.16,60.77L27.16,60.77 M130.91,60.46c-0.07,1.64,0.12,3.14-0.13,4.63c-0.03,0.15,0.04,0.52-0.33,0.35
				c-0.26-0.12-0.2-0.34-0.05-0.53c0.32-0.4,0.52-0.85-0.03-1.16c-0.56-0.31-0.82,0.21-1.03,0.59c-1.01,1.77-2.02,3.54-2.95,5.35
				c-0.33,0.64-0.64,1.05-1.42,0.92c-0.18-0.03-0.36,0.01-0.55,0.04c-0.24,0.04-0.5,0.09-0.78-0.01
				C126.26,67.43,128.21,63.82,130.91,60.46L130.91,60.46 M103.64,70.82c2.41-3.47,4.76-6.92,6.64-10.69
				c0.2,1.26,0.19,2.39-0.56,3.51c-1.13,1.7-1.99,3.57-3.08,5.29c-0.64,1.01-1.47,1.89-2.85,1.89
				C103.74,70.82,103.69,70.82,103.64,70.82 M61.43,70.41c-0.2-0.03-0.47-0.12-0.54-0.26c-0.1-0.22,0.19-0.34,0.32-0.5
				c2.84-3.56,5.79-7.04,8.32-11.19c0,1.3,0,2.33,0,3.37c0,0.18,0.01,0.36-0.13,0.51c-1.49,1.57-2.18,3.68-3.57,5.31
				c-0.77,0.91-1.53,1.82-2.3,2.74c-0.1,0.12-0.2,0.27-0.37,0.19c-0.36-0.16-0.73-0.15-1.1-0.15c-0.07,0-0.13,0-0.2,0
				C61.72,70.43,61.58,70.43,61.43,70.41 M37.7,69.24c-1.03-1-1.05-0.99-0.07-2.02c2.95-3.11,5.97-6.15,9.11-9.07
				c0.55-0.52,0.85-1.26,1.54-1.78c0.04,0.17,0.06,0.22,0.06,0.28c0.05,0.95,0.39,2,0.07,2.81c-0.27,0.72-1.31,1.11-1.93,1.73
				c-1.93,1.93-3.82,3.9-5.73,5.84c-0.76,0.76-1.57,1.46-2.33,2.22c-0.14,0.14-0.25,0.21-0.36,0.21
				C37.96,69.46,37.84,69.38,37.7,69.24 M81.88,69.96c-0.26-0.21-0.56-0.36-0.76-0.48c2.85-4.51,5.53-9.1,8.61-13.39
				c0.48,1.79-0.21,3.33-1.25,4.76c-1.35,1.86-2.75,3.67-3.99,5.6c-0.66,1.03-1.3,2.06-1.67,3.23c-0.12,0.36-0.25,0.53-0.44,0.53
				C82.23,70.21,82.07,70.12,81.88,69.96 M27.16,55.73c0,1.09-0.01,2.15,0.01,3.2c0.01,0.34-0.2,0.48-0.41,0.66
				c-1.66,1.44-3.38,2.82-5.3,3.91c-1.96,1.12-3.79,2.45-5.61,3.78c-0.58-1.18-0.52-1.68,0.46-2.3c3.67-2.29,6.7-5.32,9.71-8.37
				c0.28-0.28,0.59-0.54,0.89-0.8C26.95,55.8,27.01,55.79,27.16,55.73L27.16,55.73 M121.39,69.2c-0.06-0.45,0.59-0.99,0.92-1.49
				c2.71-4.17,5.42-8.35,8.13-12.52c0.14-0.22,0.31-0.43,0.45-0.62c0,1.36,0,2.67,0,3.99c0,0.3,0.07,0.61-0.42,0.62
				c-0.14,0-0.3,0.2-0.4,0.34c-2.48,3.59-4.95,7.19-7.43,10.79C122.23,69.96,121.45,69.63,121.39,69.2 M110.42,54.48
				c0,1.34,0,2.57,0,3.8c0,0.14,0.03,0.32-0.18,0.35c-0.99,0.17-1.25,1.07-1.53,1.77c-1.18,2.92-3.24,5.31-4.75,8.03
				c-0.37,0.67-0.86,1.31-1.31,1.94c-0.31,0.44-0.44,0.42-0.8,0.21c-0.31-0.18-0.65-0.31-0.88-0.42
				C104.11,64.94,107.22,59.78,110.42,54.48L110.42,54.48 M58.72,69.48c-0.21-0.13-0.4-0.27-0.55-0.37c3.8-5.01,7.33-10.2,11.34-15
				c0,0.91,0,1.9,0,2.9c0,0.11,0.04,0.29-0.11,0.3c-1.14,0.07-1.14,1.17-1.57,1.82c-1.83,2.79-4,5.33-6,8
				c-0.49,0.66-1.06,1.28-1.44,2c-0.25,0.48-0.53,0.67-0.84,0.67C59.3,69.8,59.02,69.67,58.72,69.48 M36.9,63.91
				c1.94-1.49,3.26-3.57,5.01-5.24c2.34-2.23,4.11-4.94,6.41-7.44c0,1.18,0.01,2.25-0.02,3.32c-0.01,0.17-0.23,0.34-0.36,0.5
				c-1.57,1.92-3.46,3.54-5.15,5.34c-2.13,2.28-4.57,4.25-6.53,6.74C35.64,65.79,35.83,64.72,36.9,63.91 M80.29,68.83
				c-0.48-0.13-0.9-0.5-1.22-0.92c-0.13-0.18,0-0.28,0.08-0.39c2.16-3.07,3.73-6.5,5.85-9.6c1.52-2.22,3.43-4.18,4.63-6.79
				c0.58,1.9-0.27,3.21-1.09,4.53c-2.56,4.15-5.46,8.09-7.63,12.48c-0.13,0.25-0.28,0.71-0.55,0.71
				C80.34,68.84,80.32,68.83,80.29,68.83 M27.33,50.36c-0.06,1.19-0.12,2.39-0.21,3.58c-0.01,0.15-0.17,0.32-0.3,0.43
				c-2.67,2.35-4.98,5.08-7.78,7.29c-1.1,0.87-2.26,1.65-3.42,2.49c-0.39-1.24,0.13-1.95,1.06-2.59c0.72-0.5,1.34-1.17,1.93-1.83
				c1.4-1.58,2.81-3.16,4.39-4.56c0.6-0.53,1.12-1.14,1.53-1.83c0.46-0.77,0.98-1.46,1.77-1.94C26.7,51.16,26.92,50.74,27.33,50.36
				L27.33,50.36 M14.33,49.86c0.42-0.01,0.3,0.22,0.28,0.47c-0.29,3.75-0.42,7.51-0.31,11.28c0.04,1.56,0.13,3.12,0.1,4.67
				c-0.02,1,0.39,1.79,1.03,2.46c0.77,0.82,1.63,1.57,2.84,2.18c-1.25,0.09-2.43,0.05-3.58,0.01c-0.8-0.03-1.59-0.05-2.38-0.04
				c-0.37,0.01-0.49-0.14-0.47-0.49c0.09-1.8-0.09-3.6,0.11-5.41c0.09-0.75-0.06-1.55-0.04-2.34c0.07-3.8,0.08-7.61,0.11-11.41
				c0-0.42-0.05-0.85-0.09-1.4c0.48,0,0.97,0,1.47,0C13.71,49.87,14.02,49.87,14.33,49.86 M15.9,52.6c1.35-1.02,2.02-3.2,4.51-2.65
				c-1.46,1.9-3.33,3.25-4.92,5.25C15.66,54.15,15.09,53.21,15.9,52.6 M17.22,49.92c-0.59,0.56-1.13,1.08-1.65,1.57
				C15.14,49.69,14.93,49.79,17.22,49.92 M7.59,74.29C7.65,73.1,7.6,71.9,7.6,70.7h0.08c0-4.38-0.06-8.76,0.02-13.14
				c0.04-2.36,0.03-4.72,0.05-7.08c0-0.52,0.09-0.85,0.71-0.63c0.05,0.02,0.12,0.01,0.18,0.01c0.03,0,0.07,0,0.1,0
				c0.21,0.01,0.46-0.01,0.7-0.03c0.54-0.04,1.09-0.09,1.34,0.17c0.47,0.47,0.16,1.44,0.14,2.19c-0.17,5.95-0.17,11.89-0.17,17.84
				c0,0.39,0.06,0.73-0.45,0.95c-0.47,0.21-0.44,0.7,0.02,0.91c0.46,0.21,0.44,0.5,0.43,0.88c-0.01,0.8-0.04,1.6,0.01,2.39
				c0.04,0.58-0.21,0.67-0.69,0.61c-0.42-0.05-0.87-0.18-1.28-0.11c-0.13,0.02-0.25,0.03-0.36,0.03C7.6,75.68,7.54,75.09,7.59,74.29
				 M16.39,55.44c1.85-1.69,3.55-3.55,5.31-5.35c0.43-0.44,0.92-0.35,1.44-0.25c0.23,0.04,0.46,0.08,0.69,0.08
				c-3.17,2.36-5,6-8.28,8.32C15.43,57.14,15.47,56.27,16.39,55.44 M16.65,58.5c1.4-0.96,2.52-2.21,3.59-3.52
				c0.69-0.85,1.52-1.6,2.36-2.32c0.84-0.72,1.67-1.44,2.3-2.36c0.28-0.4,0.6-0.7,1.21-0.46c-3.46,3.85-6.79,7.79-10.48,11.61
				C15.24,60.05,15.66,59.18,16.65,58.5 M37.65,49.61c-0.36,1.15-1.15,1.99-1.81,3.09c-0.14-1.12,0.11-2.1-0.16-3.09H37.65
				 M34.23,49.59c0.54-0.02,0.67,0.16,0.65,0.67c-0.1,2.08-0.2,4.17-0.17,6.25c0.03,2.52,0.03,5.03,0,7.55
				c-0.01,0.78-0.01,1.55,0.05,2.33c0.17,2.21,1.73,3.44,3.42,4.8c-4.69-0.06-9.2-0.32-13.99-0.18c0.76-0.63,1.17-1.25,1.66-1.81
				c1.22-1.39,1.64-3.18,2.45-4.77c0.1-0.2,0.11-0.47,0.11-0.71c0.01-4.17,0-8.35,0.01-12.52c0-0.48-0.46-1.06-0.02-1.38
				c0.27-0.2,0.71-0.2,1.13-0.19c0.1,0,0.2,0,0.29,0c0.63-0.01,1.26-0.01,1.89-0.01c0.11,0,0.23,0,0.34,0
				C32.77,49.61,33.5,49.61,34.23,49.59 M36.46,56.7c1.6-2.4,3.41-4.62,5.24-6.84c0.18-0.22,0.36-0.39,0.69-0.38
				c0.72,0.02,1.45,0.01,2.37,0.01c-3.2,3.27-6.07,6.57-8.8,10.08C35.82,58.54,35.82,57.65,36.46,56.7 M36.87,52.85
				c0.76-0.52,1.17-1.39,1.6-2.2c0.69-1.31,0.7-1.31,2.47-1.03c-1.9,1.94-3.49,3.99-4.92,6.48C35.92,54.73,35.68,53.66,36.87,52.85
				 M56.61,50.91c0-1.54,0-1.54,1.64-1.46c-0.51,0.83-1.01,1.64-1.64,2.66C56.61,51.56,56.61,51.23,56.61,50.91 M36.87,60.14
				c2.22-2.69,4.5-5.33,6.83-7.93c0.67-0.74,1.46-1.38,2.14-2.1c0.67-0.71,1.47-0.73,2.41-0.65c-3.86,4.86-7.91,9.46-12.28,13.94
				C35.69,62.02,36.05,61.14,36.87,60.14 M56.79,62.07c0-0.17,0.05-0.29,0.16-0.41c2.42-2.7,4.24-5.83,6.45-8.68
				c0.86-1.11,1.83-2.13,2.75-3.2c0.26-0.29,0.53-0.51,1.09-0.29c-3.47,5.07-6.9,10.07-10.45,15.24
				C56.79,63.74,56.8,62.91,56.79,62.07 M55.01,49.4c0.51-0.01,0.53,0.22,0.5,0.61c-0.35,5.05,0.15,10.1,0.15,15.15
				c0,1.05,0.06,2.09,0.04,3.14c-0.01,1.14,0.8,1.9,1.94,2.03c0.4,0.05,0.77,0.34,1.16,0.5c0.38,0.15,0.78,0.27,1.26,0.44H46.7
				c-0.06-0.07-0.11-0.15-0.17-0.22c1.69-0.91,2.24-2.6,2.97-4.16c0.28-0.6,0.34-1.25,0.26-1.89c-0.3-2.42-0.06-4.84-0.17-7.26
				c-0.11-2.47-0.2-4.94-0.27-7.41c-0.01-0.49,0.15-0.93,0.8-0.93c0.87,0,1.73,0.01,2.6,0.01C53.48,49.43,54.25,49.42,55.01,49.4
				 M56.61,53.45c0-0.16,0.01-0.3,0.14-0.42c0.78-0.75,1.24-1.74,1.83-2.62c0.48-0.72,0.99-1.19,1.93-1.01
				c0.4,0.07,0.83,0.01,1.44,0.01c-2.01,2.29-3.75,4.55-5.33,7.03C56.61,55.45,56.61,54.45,56.61,53.45 M56.76,57.65
				c0-0.11,0.06-0.23,0.13-0.31c1.75-2.08,3.11-4.45,4.89-6.52c0.9-1.05,1.8-1.82,3.45-1.26c-3.23,3.4-5.63,7.35-8.48,11.31
				C56.76,59.63,56.75,58.64,56.76,57.65 M57.18,67.96c-0.39-0.96-0.41-1.73,0.3-2.72c2.32-3.26,4.77-6.43,6.83-9.87
				c1.16-1.95,2.83-3.53,3.83-5.58c0.29-0.59,0.88-0.6,1.36-0.44c0.43,0.15,0.14,0.63,0.14,0.97c0.01,2.14-1.2,3.79-2.45,5.27
				c-2.79,3.3-5.21,6.87-7.75,10.35c-0.65,0.89-1.33,1.74-2.01,2.63C57.34,68.34,57.26,68.15,57.18,67.96 M77.27,49.52
				c-0.05-0.24,0.12-0.29,0.33-0.29c0.57,0.01,1.13,0,1.81,0c-0.72,1.11-1.47,2.03-2.08,3.22C77.1,51.37,77.48,50.44,77.27,49.52
				 M66.16,71.3c0.93-0.6,1.86-1.15,2.76-1.75c1.54-1.02,2.09-2.27,1.99-4.13c-0.25-4.53-0.3-9.07-0.15-13.6
				c0.02-0.65-0.17-1.31-0.15-1.98c0.01-0.32,0.02-0.48,0.42-0.52c1.72-0.17,3.44-0.09,5.15-0.04c0.71,0.02,0.35,0.78,0.28,1.1
				c-0.25,1.08-0.31,2.17-0.31,3.27c0,3.41,0.07,6.81-0.02,10.22c-0.07,2.56,1.08,4.36,3.09,5.76c0.86,0.6,1.73,1.19,2.58,1.87
				C76.58,71.35,71.37,71.36,66.16,71.3 M77.33,57.36c-0.42-2.45,0.5-4.47,1.97-6.33c0.09-0.12,0.21-0.23,0.27-0.37
				c0.58-1.31,1.56-1.78,3.04-1.34c-1.75,2.79-3.83,5.4-5.28,8.41C77.34,57.61,77.35,57.48,77.33,57.36 M79.03,56.65
				c1.29-2.5,3-4.74,4.56-7.07c0.39-0.58,0.9-0.5,1.43-0.43c0.29,0.04,0.59,0.08,0.87,0.01c-1.89,2.04-3,4.54-4.57,6.74
				c-1.55,2.19-2.84,4.53-3.85,7C76.67,60.47,78.02,58.6,79.03,56.65 M99.54,49.05c-0.48,0.82-1,1.71-1.66,2.84
				c0-0.85-0.01-1.45,0-2.04c0-0.37-0.08-0.73-0.49-0.76c-0.42-0.03-0.5,0.39-0.58,0.71c-0.05,0.2-0.03,0.43-0.03,0.64
				c0.01,4.39-0.01,8.78,0.04,13.17c0.02,1.31,0,2.63,0.33,3.92c0.19,0.74,0.49,1.41,1.1,1.86c0.73,0.55,1.32,1.23,2.03,1.96
				c-4.79,0.2-9.44,0.21-14.31,0.17c0.95-0.68,1.8-1.15,2.47-1.84c1.3-1.35,2.25-2.97,2.44-4.78c0.47-4.23,0.1-8.48,0.12-12.73
				c0-0.82,0-1.65-0.27-2.45c-0.12-0.36,0.05-0.66,0.51-0.66H99.54 M78,66.84c-0.59-0.64-0.7-1.87-0.22-2.57
				c0.22-0.32,0.39-0.69,0.55-1.05c1.01-2.39,2.22-4.68,3.75-6.77c1.46-2,2.5-4.27,4.16-6.14c0.93-1.04,1.93-1.55,3.44-1.15
				c-1.15,1.79-2.12,3.68-3.45,5.28c-2.57,3.12-4.47,6.62-6.39,10.13c-0.41,0.75-0.85,1.48-1.26,2.22c-0.1,0.18-0.18,0.26-0.27,0.26
				C78.23,67.06,78.13,66.98,78,66.84 M99.94,69.19c-0.3-0.33-1.18-0.4-0.72-1.2c1.24-2.13,2.44-4.29,3.73-6.39
				c2.25-3.67,4.38-7.4,6.39-11.2c0.3-0.57,0.76-1,1.12-1.48c0.34,2.43-0.79,4.39-1.88,6.4c-1.67,3.1-3.79,5.9-5.48,8.97
				c-0.84,1.52-1.63,3.07-2.57,4.53c-0.09,0.15-0.17,0.51-0.35,0.51C100.11,69.33,100.04,69.29,99.94,69.19 M98.07,64.42
				c0-0.28,0.08-0.45,0.31-0.6c1.15-0.74,1.8-1.89,2.44-3.04c1.93-3.49,3.83-7,5.82-10.45c0.41-0.72,0.81-1.81,2.1-1.31
				c-2.99,6.44-7.37,12.15-10.19,18.75C98.04,66.66,98.06,65.54,98.07,64.42 M117.54,48.87c0,5.41,0,10.83,0.01,16.25
				c0,0.73,0.03,1.47,0.12,2.19c0.15,1.33,1.15,2.03,2.12,2.73c0.41,0.3,0.88,0.52,1.17,1.12c-0.81,0-1.53,0.01-2.25,0
				c-1.66-0.03-3.31,0.01-4.96,0.04c-2.08,0.04-4.17,0.09-6.25,0.01c-0.15,0.12-0.32,0.14-0.65,0.07c0.28-0.13,0.46-0.21,0.64-0.29
				c1.61-0.45,2.34-1.87,3.3-3.02c0.75-0.89,0.73-1.95,0.89-3.05c0.46-3.34,0.13-6.67,0.2-10c0.04-2-0.16-4.01-0.25-6.06H117.54
				 M98.08,62.89c-0.04-0.76-0.1-1.52-0.1-2.28c0-1.01,0.09-1.85,0.8-2.84c1.46-2.02,2.9-4.07,4.29-6.15
				c0.32-0.47,0.55-1.01,0.81-1.53c0.64-1.33,0.64-1.33,2.23-1.16c-2.61,4.67-5.22,9.34-7.82,14.01
				C98.21,62.92,98.14,62.9,98.08,62.89 M118.71,49.96c-0.07-1.17-0.07-1.17,1.33-1.06c-0.45,0.63-0.83,1.15-1.22,1.69
				C118.57,50.37,118.72,50.15,118.71,49.96 M118.87,56.05c0-0.18,0.05-0.38-0.01-0.55c-0.9-2.79,1.11-4.47,2.43-6.42
				c0.18-0.27,0.44-0.25,0.69-0.23c0.08,0.01,0.16,0.01,0.24,0.01c0.48-0.02,0.96-0.01,1.65-0.01c-1.69,2.53-3.27,4.9-4.85,7.26
				C118.97,56.1,118.92,56.07,118.87,56.05 M97.89,54.06c0-0.23,0.06-0.41,0.19-0.59c0.94-1.28,1.73-2.66,2.53-4.03
				c0.26-0.45,0.58-0.65,1.11-0.6c0.45,0.04,0.92,0.01,1.46,0.01c-1.21,3.14-3.79,5.27-5.28,8.17
				C97.89,56.04,97.9,55.05,97.89,54.06 M119.54,61.52c1.54-1.77,2.55-3.92,3.78-5.92c1.24-2.02,2.75-3.88,3.83-6.01
				c0.42-0.83,1.06-0.78,1.73-0.73c0.24,0.02,0.48,0.03,0.71,0.01c-3.97,5.37-6.52,11.52-10.64,16.72
				C118.92,64.2,118.37,62.86,119.54,61.52 M119.79,56.53c1.81-2.32,3.43-4.81,4.92-7.37c0.25-0.44,0.66-0.35,1.08-0.27
				c0.22,0.04,0.44,0.09,0.65,0.05c-2.45,4.09-5.12,7.98-7.53,12.06C118.8,59.41,118.66,57.97,119.79,56.53 M119.78,67.86
				c-0.39-0.51-0.6-0.97,0.07-1.53c1.14-0.96,1.72-2.36,2.48-3.6c1.8-2.93,3.85-5.71,5.23-8.9c0.75-1.74,2.26-3.03,3.15-4.72
				c0.11-0.2,0.3-0.26,0.54-0.27c1.47-0.05,2.94-0.11,4.41-0.19c0.47-0.02,0.51,0.24,0.46,0.57c-0.24,1.56,0.11,3.11,0.1,4.67
				c-0.03,5.43-0.01,10.86,0.02,16.3c0,0.65-0.15,0.83-0.8,0.81c-2.21-0.06-4.41,0.02-6.62,0.16c-0.14,0.01-0.3,0.07-0.45-0.13
				c1.51-1.21,2.62-2.77,3.75-4.32c0.34-0.46,0.6-0.92,0.12-1.48c-0.13-0.15-0.11-0.46-0.11-0.7c0-3.83,0.02-7.67,0.01-11.5
				c0-0.48,0.2-0.79,0.48-1.12c0.16-0.19,0.52-0.34,0.35-0.66c-0.19-0.35-0.51-0.16-0.81,0.02c0.03-0.68-0.18-1.23-0.29-1.79
				c-0.03-0.18-0.05-0.39-0.29-0.4c-0.21-0.01-0.31,0.15-0.35,0.35c-0.06,0.3-0.2,0.6-0.17,0.88c0.16,1.79-0.81,3.12-1.71,4.52
				c-2.7,4.22-5.58,8.32-8.16,12.62c-0.21,0.36-0.39,0.73-0.59,1.11C120.24,68.44,120,68.15,119.78,67.86 M139.22,48.5
				c0.48-0.05,0.95-0.11,1.3,0.08c0.77,0.41,0.09,1.31,0.1,1.99c0.06,5.27-0.02,10.55,0.07,15.83c0.05,2.88,0.02,5.75-0.01,8.63
				c0,0.5-0.07,0.75-0.65,0.83c-0.8,0.11-1.69,0.32-2.35-0.02c-0.8-0.4-0.11-1.34-0.25-2.04c-0.1-0.46,0.03-0.97,0.05-1.46h-0.18
				c0-7.54,0.02-15.08-0.02-22.63c0-0.84,0.15-1.24,1.07-1.17c0.06,0,0.13,0.01,0.19,0.01C138.76,48.55,138.99,48.52,139.22,48.5
				 M126.9,43.29c4.08-0.03,8.15-0.22,12.23-0.32c1.12-0.03,1.53,0.35,1.68,1.44c0.02,0.12,0.01,0.24,0.01,0.37
				c0.02,2.35-0.22,2.6-2.54,2.61c-0.43,0-0.86,0-1.29,0c-4.68,0.28-9.38,0.22-14.07,0.33c-3.65,0.09-7.29,0.08-10.94,0.07
				c-1.72-0.01-3.44-0.01-5.17-0.01c-1.92,0-3.84,0.09-5.75,0.18c-5.08,0.24-10.17,0.26-15.25,0.34
				c-5.12,0.08-10.25,0.13-15.37,0.18c-0.52,0-1.04-0.03-1.57-0.07c-0.71-0.05-1.42-0.1-2.11-0.05c-1.46,0.12-2.92,0.09-4.38,0.15
				c-4.16,0.16-8.32,0.16-12.47,0.16c-1.11,0-2.23,0-3.34,0c-2.91,0.01-5.83,0.12-8.74,0.08c-1.65-0.03-3.3,0.01-4.95,0.05
				c-1.54,0.03-3.07,0.07-4.61,0.05c-1.7-0.02-3.41-0.13-5.11-0.14c-4.49-0.02-8.97-0.04-13.45,0.01c-1.33,0.01-1.73-0.55-1.9-1.71
				c-0.44-3.03-0.19-3.3,2.83-3.3h12.62c5.11,0,10.22-0.01,15.33,0.01c0.07,0,0.15-0.01,0.23-0.03c0.26-0.04,0.54-0.09,0.66,0.33
				c0.01,0.05,0.31,0.1,0.42,0.04c1.04-0.55,2.13-0.47,3.22-0.38c0.47,0.04,0.94,0.07,1.41,0.06c2.5-0.08,5-0.07,7.5-0.06
				c1.06,0,2.13,0.01,3.19,0.01c7.74-0.02,15.47-0.05,23.21-0.08c0.86,0,1.74-0.2,2.57-0.05c0.92,0.17,1.82,0.09,2.72,0.02
				c0.65-0.05,1.3-0.11,1.95-0.07c1.62,0.09,3.25,0.03,4.88,0.01c1.66-0.02,3.33-0.22,4.96-0.04c0.79,0.08,1.56,0.02,2.33-0.05
				c0.52-0.04,1.04-0.09,1.56-0.09c2.27,0,4.55-0.02,6.82-0.02c2.18,0,4.35,0,6.53,0c1.8,0,3.61,0.01,5.41,0.01
				C121.06,43.32,123.98,43.32,126.9,43.29 M26.02,42.53c0.4-0.36,0.68-0.61,0.99-0.89c0.27,0.73,0.07,0.96-0.41,0.96
				C26.44,42.6,26.24,42.57,26.02,42.53 M45.39,42.36c0.83-1.12,1.65-2.22,2.54-3.42c0.33,2.15-0.5,3.54-1.83,3.54
				C45.88,42.48,45.64,42.44,45.39,42.36 M130.78,38.56c0.14,1.22,0,2.29-0.61,3.25c-0.22,0.35-0.55,0.27-0.89,0.19
				c-0.2-0.05-0.4-0.09-0.59-0.06C129.37,40.85,130.04,39.75,130.78,38.56 M107.87,41.99c0.78-1.14,1.52-2.23,2.34-3.44
				c0.24,0.99,0,1.67-0.34,2.46c-0.33,0.78-0.76,1.05-1.38,1.05C108.31,42.07,108.1,42.04,107.87,41.99 M87.19,42.22
				c0.45-0.66,0.88-1.27,1.28-1.9c0.39-0.6,0.76-1.21,1.14-1.82c0.12,0.83,0.29,1.58-0.02,2.33c-0.49,1.18-0.58,1.42-1.52,1.42
				C87.84,42.26,87.55,42.24,87.19,42.22 M69.08,37.73c-0.09,1.37,0.4,2.75-0.22,4.09c-0.2,0.43-0.43,0.66-0.96,0.61
				c-0.72-0.06-1.45-0.02-2.34-0.02C66.76,40.73,68.01,39.31,69.08,37.73L69.08,37.73 M22.77,42.52c1.66-1.58,3.04-3.33,4.34-5.21
				c0,0.93,0.31,2.04-0.08,2.75c-0.5,0.89-1.26,1.78-2.11,2.41c-0.21,0.15-0.46,0.2-0.73,0.2C23.74,42.67,23.23,42.54,22.77,42.52
				 M47.95,34.9c0.05,1.19,0.15,2.11-0.67,3.01c-1.06,1.17-1.91,2.53-2.79,3.84c-0.34,0.51-0.71,0.75-1.33,0.7
				c-0.47-0.04-0.95,0.04-1.58,0.07C43.64,39.9,45.6,37.36,47.95,34.9 M27.13,33.61c0,0.81,0,1.43,0,2.05
				c0,0.14,0.05,0.38-0.14,0.37c-0.87-0.03-1.12,0.69-1.41,1.24c-1.04,1.99-2.8,3.38-4.14,5.12c-0.27,0.35-0.66,0.26-1.07,0.18
				c-0.25-0.05-0.5-0.1-0.74-0.06C23.18,40.5,24.21,36.4,27.13,33.61 M125.96,41.96c1.49-2.78,3.34-5.4,4.79-8.4
				c0.05,0.64,0.08,1.11,0.12,1.58c0.07,0.93-0.06,1.77-0.65,2.58c-0.64,0.88-1.17,1.87-1.61,2.87c-0.41,0.93-0.95,1.52-1.82,1.52
				C126.54,42.11,126.26,42.06,125.96,41.96 M110.34,33.49c0,1.27,0,2.33,0,3.39c0,0.11-0.02,0.28-0.09,0.32
				c-1.71,1-2.3,2.77-3.03,4.43c-0.12,0.27-0.21,0.47-0.57,0.43c-0.36-0.04-0.73-0.01-1.17-0.01
				C107.17,39.27,108.76,36.5,110.34,33.49 M62.57,42.42c2.33-2.98,4.15-6.1,6.36-9c0.09,1.23,0.32,2.4-0.49,3.56
				c-1.2,1.73-2.54,3.36-3.65,5.15c-0.2,0.32-0.43,0.28-0.69,0.28c-0.19,0.01-0.39,0.01-0.6,0.01
				C63.23,42.42,62.93,42.42,62.57,42.42 M89.78,32.59c0,1.28,0,2.55,0,3.83c0,0.14,0,0.35-0.08,0.42c-1.39,1.07-2,2.67-2.79,4.13
				c-0.54,0.98-1.13,1.52-2.28,1.3c-0.26-0.05-0.55-0.01-0.96-0.01C85.69,38.99,88.14,36.08,89.78,32.59 M27.13,29.58v2.41
				c0,0.12-0.03,0.21-0.14,0.3c-1.95,1.44-3.09,3.52-4.34,5.51c-1.13,1.8-2.74,3.13-4.21,4.59c-0.34,0.34-0.77,0.29-1.2,0.24
				c-0.22-0.03-0.45-0.05-0.65-0.02C19.96,38.16,23.92,34.23,27.13,29.58 M47.98,29.07c0,1.37,0,2.62,0,3.87
				c0,0.24-0.13,0.35-0.29,0.52c-2.3,2.46-4.55,4.98-6.47,7.75c-0.97,1.4-2.16,1.44-3.65,1.25C41.12,38.1,44.46,33.63,47.98,29.07
				L47.98,29.07 M16.63,31.25c0.45-0.46,0.89-0.93,1.31-1.42c0.93-1.09,0.93-1.09,2.54-1.02c-1.75,2.16-3.36,4.25-4.93,6.46
				C15.08,33.63,15.55,32.36,16.63,31.25 M16.02,35.93c1.66-2,3.28-4.04,4.79-6.15c0.71-0.99,1.52-1.15,2.75-0.91
				c-2.71,3.34-5.34,6.58-8.08,9.96C15.38,37.69,15.31,36.8,16.02,35.93 M110.08,28.68c0.1,0.05,0.2,0.11,0.3,0.16
				c0.01,0.06,0.04,0.11,0.04,0.17c0,0.83,0.04,1.66,0,2.48c-0.05,0.81-0.94,1.02-1.26,1.74c-1.3,2.89-3.24,5.44-4.45,8.38
				c-0.13,0.32-0.32,0.48-0.68,0.46c-0.48-0.03-0.97-0.01-1.62-0.01C105.19,37.65,107.34,32.99,110.08,28.68 M16.38,39.02
				c2.65-3.17,5.23-6.4,7.81-9.63c0.5-0.62,1.06-0.88,1.97-0.63c-2.96,4.97-6.97,9.07-10.62,13.45c0,0.01,0,0.03,0.01,0.04
				c-0.01,0-0.02,0-0.03-0.01c-0.03,0.03-0.06,0.07-0.08,0.1c-0.01-0.04-0.01-0.08-0.02-0.12c0.03,0.01,0.07,0.01,0.1,0.02
				c0-0.01,0.01-0.01,0.02-0.02c0,0,0.01-0.01,0.01-0.01C15.35,41.04,15.55,40.01,16.38,39.02 M118.52,30.83
				c0-1.97,0.31-2.26,2.45-2.21c-0.67,1.11-1.52,2.03-2.45,3.17V30.83z M56.99,42.43c-0.36-0.08-0.11-0.42-0.19-0.61
				c-0.33-0.72,0.03-1.26,0.43-1.82c2.53-3.48,4.79-7.14,7.22-10.69c0.56-0.82,1.6-1.04,2.72-0.62c-1.44,2.04-2.86,4.06-4.29,6.07
				c-1.72,2.44-3.22,5.04-5.26,7.25c-0.16,0.18-0.28,0.43-0.53,0.43C57.05,42.44,57.02,42.43,56.99,42.43 M79.83,42.24
				c1.89-2.69,3.32-5.61,5.11-8.33c0.91-1.38,1.84-2.74,2.68-4.16c0.5-0.84,1.02-1.48,2.16-1.24c0,0.71,0,1.48,0,2.24
				c0,0.12-0.01,0.34-0.04,0.35c-1.06,0.17-1.13,1.16-1.42,1.85c-1.02,2.48-2.58,4.63-4.08,6.82c-0.17,0.25-0.42,0.48-0.51,0.76
				c-0.48,1.42-1.39,1.87-2.56,1.87C80.75,42.39,80.3,42.34,79.83,42.24 M68.02,29.01c0.19-0.27,0.33-0.68,0.73-0.58
				c0.47,0.12,0.18,0.56,0.23,0.85c0.27,1.62-0.32,2.94-1.33,4.18c-2.12,2.58-3.89,5.41-5.65,8.24c-0.35,0.57-0.73,0.79-1.38,0.74
				c-0.69-0.06-1.39-0.01-2.1-0.01C61.97,38.09,64.84,33.44,68.02,29.01 M63.89,28.39c-2.41,3.76-4.66,7.42-7.4,11.03
				c0.13-1.25-0.25-2.33,0.47-3.4c1.13-1.67,2.18-3.39,3.22-5.11c0.54-0.9,1.49-1.42,2.03-2.35c0.11-0.18,0.54-0.18,1.01-0.17
				C63.44,28.41,63.68,28.41,63.89,28.39L63.89,28.39 M15.49,28.26c0.68,0.35,1.45,0.29,2.32,0.47c-0.82,0.93-1.54,1.75-2.32,2.64
				V28.26z M99.21,42.13c-0.08-0.11-0.06-0.22,0.01-0.34c1.69-2.75,3.24-5.6,5.1-8.25c0.81-1.15,1.44-2.41,2.01-3.68
				c0.28-0.62,0.74-1.02,1.2-1.45c0.22-0.21,0.43-0.15,0.67-0.08c0.18,0.05,0.39,0.1,0.63,0.02c-1.9,3.41-3.69,6.63-5.49,9.85
				c-0.46,0.83-0.93,1.65-1.4,2.47c-0.74,1.26-0.87,1.49-1.9,1.49C99.81,42.15,99.54,42.14,99.21,42.13 M97.71,41.78
				c0-0.99,0-1.97,0-2.96c0-0.26,0.19-0.35,0.35-0.49c0.76-0.67,1.37-1.48,1.88-2.35c1.02-1.74,2.3-3.3,3.41-4.97
				c0.53-0.8,0.75-1.78,1.51-2.47c0.33-0.3,0.58-0.37,0.99-0.24c-2.17,4.8-5.56,8.86-7.84,13.57C97.9,41.83,97.8,41.81,97.71,41.78
				 M97.7,28.77c-0.01-0.33,0.16-0.34,0.42-0.42c0.55-0.16,1.09-0.12,1.78-0.11c-0.74,1.09-1.41,2.07-2.19,3.22
				C97.71,30.44,97.72,29.61,97.7,28.77 M36.79,31.29c0.69-0.82,1.5-1.54,2.17-2.36c0.62-0.74,1.3-0.74,2.26-0.69
				c-2.03,2.24-3.47,4.74-5.44,7.2c0-1.28,0-2.3,0-3.33c0-0.23-0.03-0.38,0.33-0.29c0.03,0.01,0.06,0.01,0.09,0.01
				C36.49,31.83,36.63,31.48,36.79,31.29 M57.71,30.72c0.42-0.52,0.88-1.05,1.13-1.65c0.39-0.95,1.11-0.86,1.88-0.84
				c0.54,0.01,0.51,0.35,0.23,0.56c-1.08,0.82-1.71,1.96-2.38,3.08c-0.64,1.09-1.33,2.15-2.04,3.28
				C56.09,33.36,56.69,31.99,57.71,30.72 M36,42.44c-0.2-0.06-0.18-0.28-0.21-0.47c-0.13-0.93,0.19-1.63,0.83-2.37
				c2.17-2.46,3.94-5.22,5.95-7.81c0.9-1.16,1.92-2.21,2.76-3.43c0.21-0.31,0.25-0.28,1.74-0.11c-1.46,1.87-2.44,3.95-4.18,5.47
				c-0.43,0.38-0.83,0.84-1.13,1.33c-1.55,2.54-3.49,4.78-5.38,7.07c-0.1,0.12-0.16,0.32-0.32,0.32
				C36.05,42.45,36.02,42.45,36,42.44 M35.79,36.93c-0.01-0.28,0.1-0.46,0.3-0.62c1.86-1.47,2.96-3.55,4.34-5.41
				c0.61-0.83,1.25-1.62,2.03-2.33c0.56-0.51,1.06-0.56,1.87-0.34c-3.21,3.46-5.69,7.29-8.53,11.06
				C35.79,38.42,35.81,37.67,35.79,36.93 M100.05,30.01c0.19-0.27,0.49-0.51,0.59-0.81c0.39-1.21,1.32-1.14,2.29-1.09
				c0.5,0.03,0.54,0.19,0.32,0.62c-0.57,1.15-1.25,2.23-2,3.27c-1.18,1.65-2.28,3.35-3.41,5.03
				C97.06,34.19,98.58,32.11,100.05,30.01 M77.43,42.3c-0.26-0.2-0.13-0.67,0.08-1.01c2.24-3.6,4.47-7.21,6.72-10.81
				c0.29-0.47,0.65-0.89,0.89-1.39c0.44-0.91,1.01-1.37,2.08-0.75c-1.62,2.56-3.27,5.09-4.84,7.68c-1.14,1.88-2.17,3.82-3.25,5.73
				c-0.1,0.18-0.21,0.41-0.37,0.51c-0.23,0.13-0.51,0.21-0.76,0.21C77.77,42.47,77.59,42.42,77.43,42.3 M118.5,33.29
				c0-0.13,0.06-0.21,0.17-0.29c1.54-1.16,2.55-2.78,3.71-4.26c0.46-0.58,0.96-0.78,1.69-0.65c-1.87,2.55-3.72,5.07-5.57,7.59V33.29
				z M130.82,28.02c-0.1,1.33,0.14,2.35-0.41,3.58c-1.53,3.49-3.8,6.55-5.41,9.97c-0.13,0.27-0.21,0.49-0.57,0.48
				c-0.72-0.02-1.45,0-2.38,0C125.46,37.63,127.44,32.54,130.82,28.02L130.82,28.02 M56.42,28.31c-0.01-0.53,0.31-0.31,0.54-0.28
				c0.15,0.02,0.33,0,0.51-0.01c0.36-0.03,0.72-0.06,0.86,0.21c0.19,0.39-0.42,0.79-0.67,1.19c-0.35,0.55-0.73,1.09-1.22,1.82
				C56.43,30.11,56.45,29.21,56.42,28.31 M35.79,28.28c0-0.35,0.06-0.51,0.46-0.36c0.65,0.25,1.34,0.34,2.3,0.27
				c-1.16,1.01-1.91,2.03-2.76,3.3C35.79,30.26,35.8,29.27,35.79,28.28 M118.36,37.25c0-0.23,0.06-0.45,0.3-0.63
				c1.42-1.02,2.4-2.44,3.31-3.89c0.93-1.48,1.96-2.89,3.07-4.23c0.37-0.45,0.79-0.77,1.45-0.59c-2.28,4.54-5.08,8.67-8.14,12.84
				C118.35,39.48,118.34,38.37,118.36,37.25 M77.33,37.36c0-0.17,0.04-0.37,0.13-0.52c1.73-2.69,3.25-5.5,5.01-8.17
				c0.62-0.95,1.32-1.1,2.32-0.71c-2.45,3.97-5.07,7.89-7.47,12.01C77.33,39.11,77.32,38.23,77.33,37.36 M77.46,27.73
				c1.28,0.31,1.28,0.31,0.59,1.47c-0.19,0.31-0.36,0.62-0.64,0.93C77.34,29.33,77.26,28.53,77.46,27.73 M119.8,40.53
				c2.63-3.42,4.99-7,6.99-10.83c0.2-0.38,0.44-0.73,0.66-1.09c0.47-0.75,0.98-1.44,2.15-0.81c-2.8,3.66-4.52,7.96-7.14,11.71
				c-0.26,0.38-0.57,0.75-0.7,1.17c-0.37,1.2-1.16,1.56-2.32,1.36c-0.2-0.04-0.42,0-0.75,0C119.1,41.48,119.44,41,119.8,40.53
				 M79.9,27.82c0.19-0.31,0.48-0.29,0.76-0.26c0.08,0.01,0.16,0.02,0.24,0.02c0.39-0.01,0.78,0.07,1.28,0.12
				c-1.63,2.64-3.43,5.09-4.68,7.92C76.57,32.41,78.45,30.19,79.9,27.82 M16,27.36c-0.51-0.05-0.59-0.23-0.58-0.67
				c0.07-4.23-0.18-8.46-0.01-12.69c0.02-0.47,0.17-0.54,0.58-0.55c3.58-0.01,7.17-0.04,10.75-0.07c0.33,0,0.62-0.02,0.58,0.46
				c-0.18,2.24-0.02,4.47-0.1,6.79c-0.16,1.94-0.09,3.97-0.07,5.99c0,0.69-0.05,0.97-0.88,0.9c-1.18-0.09-2.38,0.02-3.58,0.09
				c-0.54,0.03-1.07,0.04-1.6,0.04C19.39,27.65,17.69,27.52,16,27.36 M130.39,13.38c0.54,0,0.94-0.08,0.71,0.74
				c-0.18,0.63-0.15,1.34-0.11,2.01c0.17,3.09-0.34,6.17-0.1,9.25c0.06,0.82-0.23,1.06-1.03,1.02c-1.02-0.05-2.07-0.12-3.06,0.26
				c-0.21,0.08-0.41,0.17-0.56-0.2c-0.2-0.48-0.6-0.52-0.86-0.02c-0.23,0.44-0.58,0.5-1,0.49c-0.83-0.02-1.63,0-2.43,0.33
				c-0.43,0.18-0.88,0.15-1.34,0.13c-0.26-0.01-0.53-0.03-0.79,0c-0.55,0.05-1.27-0.18-1.22-1.26c0.13-3.12-0.1-6.24,0.12-9.36
				c0.06-0.88-0.03-1.77-0.09-2.66c-0.03-0.51,0.12-0.68,0.66-0.67c1.38,0.04,2.76,0.01,4.14,0.01v-0.08c1.26,0,2.51,0,3.77,0
				C128.24,13.38,129.31,13.38,130.39,13.38 M109.58,13.37c0.61-0.01,0.78,0.18,0.77,0.78c-0.05,2.62-0.07,5.25-0.08,7.87
				c0,1.56,0.21,3.12,0.17,4.69c-0.02,0.64-0.17,0.79-0.79,0.66c-3.27-0.68-6.57-0.41-9.87-0.33c-0.21,0-0.43,0.05-0.64,0.07
				c-1.43,0.17-1.42,0.17-1.43-1.26c-0.03-3.09-0.07-6.19-0.09-9.28c-0.01-0.86,0.09-1.71,0.07-2.57c-0.01-0.47,0.16-0.54,0.58-0.54
				c1.5,0.02,3,0.01,4.51,0.01v-0.08c1.25,0,2.49,0.01,3.74,0.01C107.53,13.39,108.55,13.39,109.58,13.37 M38.46,27.05
				c-0.42-0.07-0.85-0.07-1.28-0.09c-1.39-0.07-1.4-0.06-1.41-1.5c0-2.88,0.02-5.77,0.02-8.65c0-0.85,0.06-1.7-0.28-2.53
				c-0.13-0.32-0.29-0.99,0.58-0.98c4.05,0.03,8.09,0.01,12.13,0.01c-0.59,4.63,0.05,9.2-0.31,13.72c-0.62-0.03-1.26-0.1-1.9-0.08
				c-0.69,0.03-1.38,0-2.07-0.03c-0.93-0.04-1.86-0.08-2.79,0.02c-0.26,0.03-0.66,0.18-0.56-0.38c0.04-0.23-0.05-0.44-0.29-0.5
				c-0.26-0.07-0.43,0.13-0.49,0.32c-0.17,0.55-0.51,0.71-0.94,0.71C38.73,27.08,38.6,27.07,38.46,27.05 M77.39,26.22
				c-0.15-3.77-0.02-7.53,0.03-11.3c0.01-0.53-0.36-1.23-0.01-1.54c0.28-0.25,0.99-0.01,1.5,0c1.53,0.01,3.07,0,4.79,0
				c1.21,0.11,2.53,0.1,3.87,0.08c0.51-0.01,1.03-0.01,1.55-0.01c0.48,0,0.69,0.06,0.68,0.63c-0.04,3.43-0.02,6.86-0.04,10.29
				c0,0.85-0.23,1.69-0.08,2.55c0.03,0.17,0.02,0.38-0.24,0.4c-0.22,0.01-0.19-0.16-0.23-0.31c-0.22-0.79-0.68-0.66-1.14-0.25
				c-0.24,0.22-0.42,0.41-0.79,0.31c-1.93-0.52-3.96-0.29-5.88-0.73c-1.25-0.29-2.2,0.46-3.33,0.52c-0.06,0-0.11,0.01-0.15,0.01
				C77.48,26.88,77.41,26.72,77.39,26.22 M56.37,13.7c-0.01-0.53,0.24-0.47,0.47-0.42c0.07,0.02,0.14,0.03,0.19,0.03
				c2.97-0.02,5.95-0.01,8.92-0.01c0.89,0,1.78,0.01,2.67-0.01c0.36-0.01,0.56,0.03,0.52,0.48c-0.33,4.16-0.1,8.33-0.14,12.5
				c-0.01,0.72-0.24,1-0.9,1c-2.13,0.01-4.27,0-6.41-0.1c-1.6-0.08-3.2-0.42-4.8-0.12c-0.67,0.13-0.45-0.32-0.45-0.58
				c-0.02-2.12-0.01-4.23-0.01-6.35h-0.04C56.39,17.99,56.42,15.85,56.37,13.7 M15.83,12.24c-0.63-0.03-1.27,0-1.9-0.05
				c-1.18-0.1-1.93-1.68-1.27-2.64c0.2-0.29,0.49-0.35,0.81-0.33c2.73,0.23,5.46,0.16,8.18,0.09c1.58-0.04,3.17-0.08,4.75-0.06
				c0.7,0.01,1.38,0.25,2.1,0.15c0.36-0.05,0.58,0.23,0.67,0.62c0.18,0.76-0.31,1.35-0.45,2.03c-0.05,0.27-0.43,0.15-0.66,0.15
				c-2.06,0.01-4.11,0.01-6.17,0.01v0.08c-1.13,0-2.26,0.02-3.38,0.02C17.62,12.29,16.72,12.28,15.83,12.24 M48.75,9.07
				c1.33-0.05,1.88,0.82,1.36,2.05c-0.32,0.76-0.68,1.11-1.67,1.07c-2.91-0.12-5.82,0-8.74,0.01c-1.75,0-3.5-0.03-5.24-0.07
				c-0.6-0.01-1.07-0.35-1.33-0.84c-0.26-0.51-0.12-1.07,0.16-1.58c0.09-0.16,0.21-0.29,0.43-0.27c0.38,0.04,0.74-0.02,1.12-0.09
				c0.46-0.08,0.93-0.16,1.44-0.04c0.92,0.03,1.83,0.04,2.76,0.04C42.24,9.34,45.5,9.2,48.75,9.07 M54.14,9.07
				c2.11-0.04,4.22-0.08,6.34-0.1c3.13-0.03,6.26-0.06,9.38-0.08c0.89-0.01,1.27,0.47,1.1,1.32c-0.05,0.24-0.08,0.49-0.18,0.7
				c-0.35,0.75-0.68,1.37-1.77,1.32c-2.36-0.11-4.73-0.04-7.09-0.04c-2.42,0-4.85-0.03-7.27,0.02c-0.79,0.02-1.22-0.31-1.48-0.95
				c-0.28-0.7-0.15-1.39,0.21-2.02c0.13-0.22,0.35-0.2,0.57-0.18c0.06,0.01,0.12,0.01,0.18,0.01C54.13,9.07,54.14,9.07,54.14,9.07
				 M111.12,8.87c1.31-0.01,1.88,0.63,1.59,1.95c-0.28,1.29-0.3,1.1-1.64,1.21c-1.22,0.1-2.43,0.14-3.64,0.15
				c-3.53,0.03-7.06,0.03-10.59,0.03c-1.44,0-2.4-1.39-1.98-2.8C95,8.97,95.3,9.07,95.58,9.07c2.52,0,5.04,0,7.55,0V8.88
				c1.57,0,3.14,0.01,4.71,0.01C108.94,8.89,110.03,8.89,111.12,8.87 M86.01,8.87c1.38-0.01,2.75,0.13,4.13,0.17
				c0.67,0.02,1.34,1.04,1.3,1.92c-0.04,0.85-0.46,1.26-1.29,1.26c-2.39,0-4.78,0-7.17,0v-0.03c-2.27,0-4.54-0.05-6.81,0.03
				c-0.86,0.03-1.3-0.23-1.59-1.04c-0.46-1.26,0.18-2.3,1.5-2.3c1.87,0,3.74,0.01,5.61,0.01C83.13,8.89,84.57,8.88,86.01,8.87
				 M130.5,8.89c0.88-0.06,1.77,0.04,2.65-0.17c0.63-0.14,1.1,0.01,0.9,0.86c-0.14,0.62,0.07,1.27-0.19,1.9
				c-0.16,0.39-0.34,0.53-0.79,0.57c-1.88,0.17-3.77,0.16-5.66,0.14c-0.72,0-1.43-0.01-2.15-0.01c-2.66,0.02-5.33,0.01-7.99,0
				c-1.22,0-1.56-0.36-1.54-1.61c0.03-1.62,0.12-1.71,1.71-1.71h4.21c1.19-0.05,2.46-0.01,3.79,0.03c0.87,0.02,1.77,0.05,2.67,0.05
				C128.91,8.95,129.7,8.94,130.5,8.89 M74.22,7.74c-0.68,1.14-1.25,2.26-0.87,3.7c0.33,1.24,0.89,1.85,2.17,1.86
				c0.06,0,0.13,0,0.19-0.01c0.2-0.02,0.41-0.03,0.61,0.12c-0.13,0.44-0.16,0.9-0.16,1.36c0,3.71-0.02,7.43-0.02,11.15
				c0,5.22-0.02,10.44,0.02,15.66c0.01,0.7-0.18,0.87-0.86,0.85c-1.41-0.06-2.83-0.03-4.24-0.01c-0.47,0.01-0.63-0.14-0.64-0.63
				c-0.04-2.21-0.15-4.41-0.17-6.62c-0.03-6.97-0.02-13.94-0.04-20.91c0-0.51-0.24-1.16,0.71-0.97c0.16,0.03,0.24-0.08,0.33-0.23
				c0.76-1.18,1.14-2.45,1.01-3.87c-0.11-1.2-0.46-1.79-1.32-1.75C70.48,7.46,70,7.6,69.51,7.59c-2.29-0.05-4.58,0-6.86,0.05
				c-3.05,0.06-6.09,0.12-9.14-0.03c-0.43-0.02-0.62,0.14-0.82,0.53c-0.55,1.04-0.42,2.1-0.22,3.14c0.36,1.94,0.4,1.96,2.38,2.01
				c0.47,0.01,0.56,0.13,0.5,0.57c-0.08,0.54-0.1,1.1-0.09,1.65c0.02,8.5,0.05,17.01,0.08,25.51c0,0.34,0.02,0.66,0.25,0.95
				c0.29,0.37,0.05,0.47-0.3,0.47h-6.14c0.06-0.28,0.13-0.48,0.13-0.68c0-5.26-0.02-10.52-0.02-15.77c0-2.82,0-5.65,0-8.48
				c0-0.98,0.11-1.99-0.08-2.94c-0.15-0.74,0.1-0.98,0.66-1.19c0.92-0.35,1.48-1.63,1.51-2.61c0.04-1.16-0.76-1.88-1.11-2.82
				c-0.14-0.39-0.45-0.36-0.76-0.34c-4.81,0.23-9.62,0.45-14.44,0.33c-1.38-0.04-2.45,0.07-2.61,1.75
				c-0.02,0.25-0.28,0.47-0.39,0.72c-0.6,1.3,0.1,2.87,1.28,2.89c1.62,0.03,1.62,0.03,1.38,1.65c-0.01,0.03-0.01,0.06-0.01,0.09
				c-0.13,3.49-0.26,6.99-0.14,10.49c0.19,5.43,0.1,10.86,0.14,16.29c0,0.5-0.17,0.71-0.69,0.71c-1.53,0-3.07-0.04-4.6,0.09
				c-1.01,0.08-1.18-0.33-1.17-1.18c0.07-3.96-0.01-7.92,0.07-11.88c0.12-5.27,0.29-10.55-0.03-15.83c-0.02-0.32,0.01-0.5,0.34-0.42
				c0.83,0.18,0.98-0.38,1.07-0.98c0.04-0.28,0.14-0.53,0.32-0.75c0.62-0.75,0.55-1.76,0-2.94c-0.48-1.01-1.44-0.85-2.11-0.79
				c-1.74,0.16-3.48,0.13-5.22,0.17c-3.3,0.08-6.61-0.02-9.91-0.05c-0.56-0.01-0.97,0.23-1.32,0.67c-0.88,1.12-0.45,3.77,0.75,4.53
				c0.18,0.11,0.34,0.11,0.52,0.12c1.6,0.1,1.56,0.1,1.55,1.69c-0.02,8.17-0.01,16.34,0,24.5c0,1.01,0.09,2.02,0.14,3.11
				c-0.27,0-0.58,0.08-0.81-0.02c-0.19-0.07-0.39-0.03-0.6,0c-0.36,0.07-0.74,0.13-1.06-0.4c-0.16-0.26-0.46-0.13-0.8-0.01
				c-0.3,0.11-0.63,0.22-0.94,0.08C9.58,42,8.99,42.12,8.39,42.25c-0.38,0.08-0.77,0.16-1.15,0.14c-0.1-0.01-0.29,0.17-0.31,0.29
				c-0.16,1.02-0.72,1.99-0.59,3.03c0.17,1.31,0.21,2.59,0.18,3.92c-0.08,3.61-0.03,7.22-0.02,10.84
				c0.02,5.24-0.14,10.48-0.02,15.72c0.01,0.73,0.2,0.82,0.99,0.77c1.18-0.08,2.49-0.53,3.6,0.42c0.19,0.16,0.55,0.15,0.72-0.15
				c0.15-0.27,0.39-0.25,0.64-0.25c2.39-0.03,4.78-0.19,7.16-0.06c5.06,0.27,10.12,0.19,15.18,0.29c4.26,0.08,8.53-0.11,12.79-0.12
				c8.01-0.03,16.02,0.07,24.03,0.14c9.7,0.09,19.4,0.03,29.1-0.02c6.62-0.04,13.25,0.02,19.88,0.17
				c5.08,0.11,10.18-0.18,15.26-0.31c0.51-0.01,1.02,0,1.52,0.02c1.02,0.03,2.05,0.06,3.07-0.14c1.25-0.25,1.45-0.52,1.47-1.77
				c0.08-5.74-0.05-11.48-0.16-17.21c-0.06-2.94,0.15-5.89-0.18-8.83c-0.02-0.18-0.06-0.41,0.02-0.54c0.64-1.06,0.54-2.31,0.82-3.45
				c0.29-1.2-0.37-2.25-1.1-3.17c-0.28-0.35-0.66-0.29-1.03-0.23c-0.21,0.03-0.41,0.07-0.6,0.03c-0.51-0.09-0.96,0.03-1.44,0.07
				c-1.92,0.15-3.86,0.12-5.79,0.16c-0.19,0-0.55,0.06-0.4-0.28c0.31-0.71-0.01-1.39,0.01-2.08c0.07-3.37,0.09-6.74,0.1-10.12
				c0-2.39-0.19-4.78-0.02-7.16c0.14-2.05,0.13-4.09,0.12-6.13c0-0.94,0-1.9-0.26-2.84c0.56-0.1,1.11-0.08,1.66-0.02
				c0.29,0.03,0.53,0,0.73-0.25c1.17-1.45,1.42-3.05,0.8-4.8c-0.12-0.33-0.27-0.73-0.66-0.64c-0.84,0.18-1.66,0.09-2.49-0.01
				c-0.54-0.06-1.08-0.12-1.63-0.11c-4.85,0.13-9.7,0.03-14.55,0.01c-0.38,0-0.55,0.11-0.72,0.48c-0.52,1.18-0.07,2.4-0.25,3.6
				c-0.16,1.06,0.9,1.92,1.99,1.82c0.33-0.03,0.69-0.16,0.67,0.49c-0.11,2.75-0.22,5.5-0.21,8.26c0.01,5.24-0.07,10.49-0.19,15.73
				c-0.03,1.2,0.08,2.39,0.03,3.58c-0.01,0.28,0.04,0.55-0.4,0.54c-1.82-0.01-3.64,0-5.46,0c0.38-2.67,0.32-5.25,0.36-7.82
				c0.11-6.63,0.1-13.26,0.12-19.89c0-0.62,0.05-0.99,0.82-0.88c0.32,0.05,0.57-0.19,0.77-0.52c0.68-1.09,0.62-2.29,0.51-3.46
				c-0.1-1.09-1.21-1.89-2.29-1.89c-5.19,0-10.37,0.28-15.56,0.18c-0.08,0-0.15,0-0.23,0c-0.21,0.01-0.41,0.02-0.59-0.05
				C94.25,7.36,94,7.56,93.83,8.55c-0.3,1.73,0.59,3.12,1.16,4.62c0.12,0.31,0.38,0.36,0.68,0.3c0.69-0.14,0.77,0.21,0.77,0.81
				c-0.02,2.95-0.01,5.9,0.01,8.84c0.04,6.16,0.1,12.33,0.16,18.5c0,0.44-0.06,0.64-0.58,0.63c-1.53-0.04-3.07-0.02-4.61,0
				c-0.43,0.01-0.6-0.08-0.54-0.55c0.1-0.72,0.18-1.45,0.19-2.18c0-1.96-0.05-3.93-0.08-5.89c-0.09-6.14-0.07-12.28-0.1-18.42
				c0-0.76-0.12-1.54,0.92-1.74c0.2-0.04,0.13-0.25,0.21-0.36c0.89-1.31,0.64-2.76,0.38-4.14c-0.09-0.49-0.41-1.17-1.27-1.22
				c-3.28-0.19-6.56-0.12-9.85-0.17c-0.71-0.01-1.43,0.01-2.15,0.02c-1.51,0.04-3.02,0.07-4.53-0.16c-0.02,0-0.05-0.01-0.07-0.01
				C74.32,7.43,74.3,7.61,74.22,7.74" />
			</defs>
			<use xlink:href="#SVGID_1_" style="overflow:visible;fill:#5aa0db;" />
			<clipPath id="SVGID_2_">
				<use xlink:href="#SVGID_1_" style="overflow:visible;" />
			</clipPath>
			<rect x="6.21" y="7.36" class="st1" width="136.48" height="70.16" />
		</g>
	</g>
</svg>
